{"glyphs":{"0":{"ha":694,"x_min":89,"x_max":594,"o":"m 448 814 q 500 795 477 808 q 546 752 523 783 q 579 679 568 722 q 592 593 591 635 q 590 500 594 551 q 582 432 587 465 q 563 349 576 398 q 532 265 549 299 q 490 197 516 231 q 443 145 464 162 q 392 112 421 127 q 337 89 363 97 q 272 85 311 81 q 204 104 243 88 q 134 169 164 120 q 97 275 104 218 q 92 385 89 332 q 102 465 94 419 q 126 555 110 510 q 163 640 142 601 q 213 712 184 679 q 269 764 241 745 q 333 799 297 784 q 395 816 368 813 q 448 814 421 819 m 267 152 q 331 142 296 141 q 395 161 365 143 q 449 212 425 178 q 490 288 474 246 q 512 375 505 330 q 522 455 519 420 q 525 537 525 491 q 524 610 526 583 q 508 680 520 649 q 471 732 496 711 q 407 759 446 753 q 338 752 371 763 q 277 721 305 742 q 228 669 250 701 q 190 592 207 638 q 165 505 173 545 q 155 412 158 464 q 155 323 152 361 q 170 247 157 285 q 213 184 183 208 q 267 152 243 160 z "},"1":{"ha":694,"x_min":179,"x_max":456,"o":"m 402 562 l 372 395 q 354 282 361 332 l 345 214 q 337 157 338 175 q 330 129 335 140 q 310 109 324 117 l 280 90 q 247 75 251 72 q 248 102 242 78 q 254 121 248 106 q 267 168 259 136 l 282 239 q 296 310 290 274 l 334 511 l 351 608 q 360 661 357 642 q 357 685 363 680 q 328 684 351 691 q 294 665 316 679 q 246 639 271 652 q 206 617 221 626 q 185 613 191 608 q 179 627 179 618 q 181 633 179 629 q 193 641 182 636 q 237 672 203 646 l 281 701 q 336 745 285 704 l 372 774 l 402 799 q 432 814 418 813 q 450 805 445 814 q 446 768 456 795 q 434 718 440 755 l 420 651 l 402 562 z "},"2":{"ha":694,"x_min":77,"x_max":612,"o":"m 180 214 l 251 301 l 294 353 q 349 424 309 371 q 404 497 390 476 q 451 574 418 519 q 486 663 484 629 q 465 723 489 696 q 370 739 440 750 q 315 723 343 734 q 271 704 288 713 q 226 674 255 695 q 185 638 197 654 q 163 615 172 622 q 151 611 155 608 q 151 629 147 614 q 161 659 154 646 q 184 687 169 671 q 216 721 199 704 q 253 753 234 739 q 298 778 273 768 q 363 798 324 789 q 431 807 401 808 q 493 793 466 806 q 539 761 520 780 q 566 717 558 743 q 569 662 574 691 q 533 582 562 628 q 476 501 503 536 q 418 431 449 466 l 366 374 l 299 298 q 242 236 279 276 q 210 186 206 195 q 271 184 212 177 q 386 189 330 192 q 482 178 435 184 q 549 175 529 172 l 585 180 q 606 173 601 180 q 594 145 612 167 q 557 114 583 130 q 521 97 532 98 q 494 101 513 96 q 441 115 475 107 l 393 127 q 323 135 372 130 q 254 136 275 140 l 200 127 q 159 112 182 123 q 119 89 135 100 q 94 79 103 78 q 80 90 84 79 q 81 113 77 101 q 111 150 88 130 l 137 171 q 180 214 163 193 z "},"3":{"ha":693,"x_min":127,"x_max":559,"o":"m 169 83 q 136 89 142 81 q 128 104 129 97 q 130 117 127 111 q 145 140 132 127 q 169 159 158 153 q 194 167 180 165 q 229 163 210 169 l 264 152 q 312 159 281 149 q 368 186 342 169 q 417 234 393 203 q 456 300 442 264 q 467 372 469 336 q 447 421 463 401 q 399 448 431 441 q 327 454 367 456 q 259 446 292 452 q 208 428 227 439 q 184 418 190 417 q 175 420 178 418 q 169 428 171 422 q 175 444 168 434 q 186 455 178 449 l 214 475 q 254 499 244 496 q 288 504 263 503 q 333 509 313 506 q 367 518 354 513 q 400 538 380 524 q 439 573 420 553 q 470 621 457 593 q 485 679 484 648 q 467 730 486 709 q 400 756 448 752 q 333 750 366 758 q 277 730 300 742 q 240 708 255 719 q 217 695 225 697 q 207 695 210 693 q 205 706 204 697 q 219 729 207 718 q 251 756 231 741 q 292 782 271 770 q 345 804 313 794 q 418 816 376 814 q 486 806 454 817 q 538 768 517 795 q 559 704 559 741 q 543 636 559 666 q 512 597 532 616 q 477 565 493 578 q 438 533 461 551 q 418 509 416 515 q 443 498 419 504 q 489 481 467 492 q 526 448 511 470 q 544 386 542 426 q 514 289 545 346 q 470 227 494 254 q 418 180 446 199 q 356 142 391 161 q 286 111 320 123 q 214 91 252 99 q 169 83 175 83 z "},"4":{"ha":694,"x_min":41,"x_max":648,"o":"m 195 542 l 323 667 l 382 724 l 454 791 q 488 819 477 811 q 508 823 500 827 q 517 807 516 819 q 511 770 519 795 q 502 722 508 759 l 488 654 l 477 595 q 465 520 471 570 q 454 449 458 471 q 453 422 451 427 q 479 420 456 418 l 539 425 q 601 428 582 426 q 630 431 620 431 q 644 426 640 431 q 627 399 648 421 q 594 372 610 382 q 566 360 578 362 q 537 362 559 359 q 483 366 515 366 q 445 362 451 367 q 437 332 437 356 q 429 261 436 309 l 422 204 q 414 136 415 158 q 408 106 414 114 q 388 93 402 99 q 356 84 373 87 q 334 87 338 81 q 336 113 330 93 q 346 153 342 132 q 356 204 351 174 l 371 293 q 377 339 376 324 q 375 358 378 353 q 342 358 371 363 q 298 354 334 356 q 208 344 262 352 l 115 329 l 78 319 q 52 322 60 316 q 42 346 43 328 q 58 390 41 364 q 89 427 70 407 l 130 469 l 195 542 m 294 589 l 261 555 l 200 488 q 153 434 174 459 q 139 400 133 408 q 181 396 146 392 q 225 401 217 401 l 337 411 q 385 421 378 414 q 397 456 391 429 l 408 520 q 420 589 415 561 q 429 644 425 618 q 438 696 433 671 q 438 722 443 721 q 415 705 434 723 l 385 679 l 342 635 l 294 589 z "},"5":{"ha":694,"x_min":70,"x_max":601,"o":"m 71 98 l 73 116 q 82 136 75 125 q 104 160 90 148 q 132 175 119 172 q 170 168 145 177 q 210 154 195 158 q 251 154 224 150 q 303 170 271 157 q 361 200 336 183 q 405 239 385 216 q 442 307 425 262 q 458 385 459 351 q 436 444 455 423 q 382 473 418 464 q 298 481 347 482 q 219 476 254 481 q 167 464 185 471 q 142 458 149 457 q 130 462 134 458 q 125 475 125 467 q 127 490 125 483 l 152 540 l 197 655 q 226 739 218 708 q 237 775 235 770 q 249 795 239 781 q 267 818 258 809 q 282 825 275 826 q 295 804 288 824 q 299 775 299 790 q 299 759 298 760 q 322 768 300 757 q 366 779 343 779 l 480 781 l 524 784 q 569 788 555 784 q 589 790 583 792 q 597 782 594 788 q 582 757 601 776 q 560 736 566 741 q 540 721 554 730 q 513 711 526 712 q 474 715 500 709 q 433 724 448 721 l 375 729 q 324 731 337 732 q 294 720 304 728 q 277 701 283 711 q 255 653 271 690 q 232 595 239 615 q 219 561 225 574 q 215 539 212 547 q 225 525 217 530 q 261 526 233 519 q 316 530 277 528 q 368 532 355 532 q 433 524 404 532 q 496 488 463 516 q 534 415 529 460 q 519 324 538 370 q 471 248 502 285 q 395 179 441 212 q 317 134 349 147 q 244 110 285 121 q 182 95 204 98 l 119 85 q 83 85 97 81 q 71 98 70 90 z "},"6":{"ha":694,"x_min":108,"x_max":573,"o":"m 307 673 l 393 747 l 450 787 q 490 813 474 806 q 509 817 507 821 q 502 798 512 812 q 472 769 493 785 q 425 728 450 753 q 372 673 400 704 q 317 612 344 643 q 263 546 290 582 q 227 488 236 510 l 197 425 q 249 468 225 449 q 294 497 272 487 q 356 515 315 507 q 421 523 397 524 q 488 505 458 521 q 538 465 519 488 q 565 413 557 442 q 568 345 573 384 q 547 275 562 311 q 503 202 532 239 q 441 141 473 164 q 373 103 409 118 q 295 88 338 89 q 209 104 258 87 q 134 175 159 122 q 109 296 108 229 q 116 363 110 335 q 130 417 122 391 q 156 481 138 444 q 199 552 174 519 q 248 610 224 585 l 307 673 m 286 140 q 358 139 317 132 q 432 177 399 145 q 484 256 464 208 q 499 353 503 303 q 470 430 494 404 q 411 466 446 456 q 338 470 375 475 q 274 449 306 465 q 223 414 242 433 q 190 371 204 395 q 174 303 176 347 q 185 227 172 260 q 227 170 199 191 q 286 140 254 148 z "},"7":{"ha":695,"x_min":94,"x_max":594,"o":"m 339 461 q 400 553 375 515 q 438 610 425 591 q 473 669 450 630 q 490 714 496 707 q 453 720 485 721 q 393 718 435 718 q 325 715 351 717 q 289 714 298 713 l 203 718 l 158 720 q 119 723 134 720 q 99 732 104 725 q 94 745 94 739 q 116 764 94 753 q 154 785 138 775 q 178 798 170 795 q 212 790 190 799 q 243 778 234 781 q 271 774 252 776 q 322 772 289 773 q 380 772 355 771 l 458 779 q 525 788 500 783 q 570 791 550 794 q 592 775 589 788 q 579 743 594 763 l 554 708 q 519 661 523 666 l 474 585 l 430 516 q 378 429 425 509 l 332 353 q 290 279 304 308 q 267 229 275 251 q 258 197 258 208 l 263 165 q 250 138 262 153 l 211 104 q 169 76 180 75 q 151 85 157 78 q 149 112 145 92 q 163 172 153 146 q 193 230 174 197 l 245 317 q 286 385 278 374 l 339 461 z "},"8":{"ha":694,"x_min":106,"x_max":591,"o":"m 109 238 q 130 305 113 273 q 178 369 146 336 q 239 419 209 401 q 269 446 269 437 q 251 465 268 452 l 210 492 q 173 527 184 509 q 161 576 161 545 q 168 633 161 608 q 191 686 174 659 q 240 745 208 714 q 318 796 273 776 q 420 819 363 817 q 525 795 482 820 q 579 734 567 770 q 586 661 591 698 q 561 591 579 619 q 526 546 543 562 q 487 512 509 529 q 444 483 465 496 q 422 465 423 470 q 460 446 422 459 q 516 412 489 435 q 563 357 543 389 q 582 289 584 326 q 563 231 580 265 q 523 171 546 196 q 458 123 499 146 q 382 92 418 100 q 300 85 347 83 q 218 98 254 87 q 153 133 183 109 q 114 184 122 157 q 109 238 106 211 m 505 285 q 478 349 500 320 q 414 398 456 378 q 350 420 372 418 q 276 402 314 422 q 213 350 239 382 q 179 290 188 319 q 178 230 170 260 q 204 182 185 202 q 253 147 224 161 q 328 131 281 132 q 388 136 353 130 q 451 162 423 142 q 493 218 479 183 q 505 285 508 252 m 507 637 q 502 707 514 676 q 448 760 489 738 q 345 764 408 781 q 281 730 305 752 q 241 679 257 709 q 224 617 224 649 q 236 564 224 585 q 261 536 245 547 q 305 509 277 525 q 351 486 333 493 q 386 484 369 479 q 411 497 396 486 q 443 524 425 507 q 480 571 460 540 q 507 637 499 603 z "},"9":{"ha":694,"x_min":112,"x_max":589,"o":"m 261 163 l 328 232 l 382 298 q 413 344 393 311 q 438 385 434 377 l 466 442 q 416 408 439 421 q 364 385 394 394 q 304 371 334 376 q 243 372 274 366 q 165 407 195 380 q 125 463 136 433 q 113 528 113 492 q 119 594 112 564 q 148 667 128 637 q 190 723 168 696 q 243 770 213 749 q 309 803 273 791 q 376 819 344 816 q 472 804 429 822 q 542 756 515 786 q 579 684 569 727 q 585 596 589 640 q 557 485 580 541 q 507 382 534 430 q 455 307 479 335 q 390 236 431 278 q 325 169 350 193 q 268 123 300 145 q 223 90 235 100 q 197 78 210 79 q 180 83 184 77 q 195 106 176 90 l 222 127 l 261 163 m 329 422 q 398 437 360 422 q 460 482 436 451 q 494 547 484 513 q 505 621 505 581 q 489 692 505 660 q 424 753 469 731 q 319 761 379 774 q 240 721 271 749 q 194 658 209 692 q 177 589 179 625 q 183 520 176 553 q 207 464 191 483 q 260 433 223 445 q 329 422 298 422 z "}," ":{"ha":694,"x_min":0,"x_max":0,"o":""},"!":{"ha":692,"x_min":254,"x_max":437,"o":"m 254 -142 q 260 -131 254 -139 q 283 -110 265 -122 q 319 -99 301 -97 q 352 -126 338 -102 q 359 -172 367 -151 q 338 -198 355 -185 q 300 -209 321 -211 q 274 -199 285 -208 q 258 -169 263 -190 q 254 -142 254 -149 m 316 175 l 344 420 l 349 519 q 357 531 349 524 q 378 551 365 538 q 406 576 391 564 q 430 584 422 587 q 433 551 437 581 q 425 523 431 545 q 412 461 418 500 l 403 404 q 389 315 394 352 l 363 118 q 354 56 355 60 q 336 23 353 53 q 309 -6 318 -6 q 296 0 300 -5 q 295 24 292 6 q 302 67 298 41 l 316 175 z "},"\"":{"ha":694,"x_min":182,"x_max":497,"o":"m 199 876 l 192 956 q 185 997 189 985 q 183 1017 182 1009 q 200 1033 183 1024 q 236 1040 217 1041 q 266 1031 254 1039 q 280 1014 277 1023 q 273 972 283 1004 q 264 912 269 959 l 257 862 l 248 773 l 244 724 l 239 674 q 233 652 238 659 q 222 647 228 646 q 213 656 216 648 q 210 681 210 665 l 205 727 l 203 781 l 199 876 m 411 876 l 404 965 q 397 999 401 989 q 395 1013 394 1009 q 410 1031 395 1023 q 444 1041 425 1039 q 476 1033 463 1042 q 494 1011 490 1023 q 486 962 497 1000 q 477 905 481 947 l 467 834 l 460 766 q 456 710 457 735 q 450 666 455 685 q 437 649 444 648 q 427 659 431 650 q 421 690 423 669 q 417 732 419 711 q 414 784 415 753 l 411 876 z "},"#":{"ha":994,"x_min":31,"x_max":956,"o":"m 335 628 q 351 706 346 679 l 364 786 q 371 847 370 822 q 360 877 371 873 q 335 873 350 881 q 316 855 328 869 q 302 843 304 842 q 300 854 299 844 q 309 878 301 865 l 323 899 q 342 923 336 917 l 351 931 q 361 937 358 937 q 369 938 363 938 q 409 921 390 935 q 437 893 427 908 q 444 866 446 879 q 433 846 444 865 q 417 791 423 827 l 408 749 l 397 688 l 387 635 q 480 650 451 646 q 609 669 509 654 l 656 676 q 668 736 663 708 q 677 802 673 764 q 683 850 682 839 q 685 876 685 861 q 677 896 684 890 q 644 886 662 909 q 623 866 625 864 q 621 877 620 868 q 632 899 621 882 q 648 926 644 916 q 655 939 652 936 q 665 947 657 941 q 676 953 672 952 q 684 954 680 954 q 718 939 697 953 q 748 915 738 926 q 758 889 758 903 q 748 865 757 884 q 733 807 739 847 l 722 745 l 712 684 l 785 690 l 868 699 l 898 690 q 943 667 930 680 q 952 646 956 655 q 923 637 947 637 l 857 642 q 769 640 826 644 l 710 635 q 689 517 701 583 q 675 427 677 452 l 668 353 q 766 358 724 357 q 838 367 808 359 q 875 374 867 374 q 908 359 887 372 q 943 332 930 347 q 953 308 956 318 q 911 300 949 298 l 836 305 q 730 305 770 308 l 662 300 q 653 247 656 262 q 644 182 651 232 q 632 103 637 133 q 617 35 627 73 q 597 -30 608 -3 q 579 -57 587 -56 q 575 -18 572 -58 q 582 47 578 22 l 591 125 l 600 212 l 609 298 q 469 279 492 283 l 339 260 q 333 213 334 224 q 322 138 332 202 q 309 58 312 74 l 296 -12 q 284 -47 292 -33 q 273 -60 277 -62 q 266 -45 268 -60 q 263 0 264 -30 q 263 43 263 31 q 270 104 264 56 l 277 168 l 286 248 q 218 231 250 237 q 160 216 186 224 q 127 209 134 208 q 88 223 113 210 q 54 253 63 237 q 47 272 44 269 q 68 272 50 275 q 99 268 85 269 q 140 271 113 267 l 211 282 l 291 300 q 319 519 310 462 l 328 580 q 253 566 285 572 q 202 554 220 560 q 159 538 184 548 q 121 530 134 528 q 87 543 115 531 q 45 570 59 554 q 35 589 31 585 q 48 594 40 593 l 92 589 l 172 601 l 273 618 l 335 628 m 654 628 l 518 610 l 380 589 q 376 551 377 564 l 359 450 l 349 345 l 342 310 q 409 317 380 314 q 469 326 438 321 l 529 336 l 614 351 q 635 494 624 427 q 648 570 646 562 l 654 628 l 654 628 z "},"$":{"ha":575,"x_min":36,"x_max":539,"o":"m 281 817 q 277 858 279 836 q 277 890 274 880 q 287 910 279 902 q 303 924 295 919 q 325 935 312 928 q 346 939 338 941 q 357 921 354 936 q 352 887 359 912 q 346 845 345 863 l 346 821 q 394 819 376 821 q 443 807 412 817 q 501 776 473 798 q 534 723 529 755 q 520 665 539 691 l 500 642 q 481 621 488 626 q 471 619 474 616 q 467 626 467 621 q 473 660 464 633 q 473 706 481 686 q 449 732 467 718 q 394 752 431 746 q 318 758 358 759 q 243 745 271 755 q 190 716 215 734 q 156 675 165 697 q 148 632 147 652 q 164 575 148 597 q 232 520 180 553 q 334 464 284 487 l 419 424 q 503 355 479 391 q 529 283 526 319 q 522 211 533 246 q 480 137 508 167 q 433 97 452 107 q 376 77 414 87 l 334 64 q 331 31 330 41 q 334 -2 331 20 q 336 -38 337 -24 q 330 -57 335 -52 q 307 -58 324 -62 q 274 -40 286 -53 q 260 -18 262 -27 l 267 26 l 271 60 q 218 60 250 59 q 144 76 186 61 q 79 114 102 91 q 45 163 55 137 q 41 218 36 190 q 55 254 45 237 q 81 279 65 270 q 100 285 98 288 q 96 256 102 281 q 90 220 90 231 q 100 188 89 209 q 126 155 109 169 q 184 130 144 141 q 260 119 224 119 q 323 123 288 117 q 386 141 359 129 q 431 173 414 153 q 455 221 449 194 q 460 263 460 248 q 439 325 458 300 q 373 378 419 349 q 263 438 326 406 q 176 486 200 471 q 129 524 151 501 q 93 573 106 547 q 82 636 79 600 q 94 684 83 657 q 118 731 104 710 q 164 772 132 751 q 231 802 197 793 l 281 817 l 281 817 z "},"%":{"ha":1389,"x_min":113,"x_max":1280,"o":"m 420 181 l 956 764 l 1134 949 q 1187 999 1172 989 q 1225 1009 1203 1008 l 1247 1008 q 1269 1004 1263 1006 q 1277 996 1274 1002 q 1270 974 1280 991 q 1253 952 1261 961 l 1183 897 q 1125 843 1173 888 l 1048 772 l 983 708 q 882 608 883 608 l 368 41 l 319 -9 q 274 -62 296 -35 q 240 -98 253 -89 q 196 -117 228 -106 q 145 -139 164 -127 q 122 -148 126 -151 q 115 -136 117 -144 q 124 -109 113 -127 q 146 -78 136 -88 q 194 -38 156 -67 q 262 22 231 -9 l 420 181 m 452 999 q 523 988 488 1000 q 583 936 558 975 q 607 845 607 896 q 591 739 608 793 q 545 635 574 681 q 474 559 516 589 q 388 513 431 528 q 307 500 345 498 q 226 529 258 503 q 186 601 194 555 q 182 684 179 646 q 195 761 185 720 q 227 847 205 802 q 290 932 249 892 q 382 985 332 972 q 452 999 433 998 m 256 644 q 276 575 258 602 q 334 543 295 548 q 418 573 372 538 q 486 652 463 606 q 522 740 510 698 q 536 831 533 783 q 521 916 538 880 q 457 957 504 951 q 370 935 411 964 q 311 872 338 913 q 273 801 283 831 q 258 724 263 770 q 256 644 254 678 m 1055 383 q 1125 373 1090 385 q 1185 321 1160 361 q 1210 223 1210 281 q 1193 121 1209 178 q 1147 20 1176 65 q 1076 -57 1118 -26 q 990 -102 1033 -87 q 909 -115 948 -117 q 829 -87 859 -113 q 789 -14 798 -62 q 782 70 780 35 q 794 144 783 106 q 830 231 804 182 q 893 318 855 280 q 983 369 930 355 q 1055 383 1036 382 m 857 28 q 879 -41 859 -14 q 937 -73 898 -68 q 1021 -42 975 -77 q 1088 37 1063 -9 q 1124 124 1113 84 q 1137 214 1135 163 q 1123 300 1140 264 q 1060 341 1107 335 q 972 319 1014 348 q 913 256 941 297 q 876 184 886 215 q 861 108 866 154 q 857 28 855 62 z "},"&":{"ha":994,"x_min":37,"x_max":953,"o":"m 645 296 q 688 353 670 328 q 729 415 707 378 q 767 483 751 452 q 792 538 783 513 q 806 575 802 562 q 813 609 810 589 q 823 633 817 630 q 843 621 829 637 q 858 581 851 611 q 864 538 864 551 q 860 511 865 524 q 841 483 857 503 q 805 431 825 463 l 766 370 q 723 300 727 306 l 686 251 q 739 201 710 229 q 791 155 768 174 q 836 136 813 136 q 869 145 850 135 q 898 164 888 155 q 926 196 908 174 q 947 216 943 218 q 951 199 950 214 q 943 165 953 184 q 917 127 932 146 q 888 96 901 108 q 857 67 876 83 q 823 48 837 50 q 779 72 810 45 q 726 119 762 85 q 681 161 690 153 l 640 197 q 580 143 609 168 q 505 94 551 119 q 403 55 458 70 q 294 39 348 40 q 189 53 236 38 q 106 95 141 67 q 54 158 71 122 q 39 237 37 193 q 65 324 41 277 q 129 406 90 371 q 233 479 168 441 l 286 511 q 255 532 270 522 q 221 561 241 543 q 183 610 201 578 q 165 682 165 641 q 181 748 165 713 q 240 829 196 783 q 331 893 284 875 q 414 917 377 911 q 479 923 450 923 q 556 908 522 922 q 619 856 590 895 q 646 764 648 817 q 615 672 644 715 q 545 592 587 629 q 473 539 504 555 l 402 500 q 445 463 430 475 l 516 404 l 614 319 l 645 296 l 645 296 m 596 243 q 555 280 568 267 l 477 353 q 380 438 421 405 l 344 468 q 284 439 305 450 q 236 411 264 428 q 181 370 209 393 q 133 311 153 346 q 114 232 112 276 q 138 157 115 190 q 196 105 161 124 q 276 83 230 86 q 374 96 321 80 q 478 144 426 112 q 562 209 531 176 l 596 243 l 596 243 m 359 542 q 434 581 407 564 q 491 624 462 597 q 544 684 521 650 q 570 760 568 718 q 543 834 573 803 q 457 873 513 865 q 375 868 413 878 q 306 835 336 859 q 253 777 275 812 q 235 695 232 741 q 264 617 238 648 q 314 571 290 585 l 359 542 l 359 542 z "},"'":{"ha":694,"x_min":291,"x_max":393,"o":"m 307 878 l 302 951 q 294 996 298 983 q 291 1012 291 1008 q 306 1030 291 1023 q 338 1039 320 1038 q 371 1030 357 1040 q 389 1011 385 1020 q 384 971 393 1002 q 374 910 379 956 l 364 839 l 357 768 l 353 715 q 347 667 348 675 q 341 651 347 658 q 331 646 336 644 q 322 655 325 646 q 318 680 319 663 l 313 726 l 312 781 l 307 878 z "},"(":{"ha":371,"x_min":47,"x_max":311,"o":"m 258 -127 l 236 -100 q 159 6 203 -58 q 91 136 115 71 q 58 261 67 201 q 48 361 48 321 q 47 422 47 400 q 57 534 48 480 l 88 657 l 176 819 l 258 930 l 277 955 l 291 968 l 303 972 l 311 968 l 309 949 l 289 916 l 239 830 l 189 729 l 161 644 l 143 564 q 132 455 134 509 q 132 362 130 401 q 141 247 134 294 q 160 163 149 200 q 189 76 170 125 q 271 -82 208 27 l 289 -113 l 311 -150 q 305 -165 311 -163 q 289 -162 299 -168 q 258 -127 279 -156 z "},")":{"ha":366,"x_min":45,"x_max":309,"o":"m 67 -98 l 85 -67 q 166 91 148 42 q 196 177 185 140 q 214 262 206 214 q 223 362 222 309 q 224 456 225 415 l 213 579 l 195 659 l 168 745 l 117 845 l 67 931 l 47 964 l 45 983 l 54 987 l 65 983 l 79 970 l 98 945 l 180 835 l 268 673 l 299 549 l 309 438 q 309 395 309 413 q 298 278 309 343 q 265 152 288 213 q 195 20 242 90 q 120 -85 148 -51 l 98 -113 q 65 -148 73 -143 q 51 -151 56 -153 q 45 -134 45 -148 l 67 -98 l 67 -98 z "},"*":{"ha":604,"x_min":90,"x_max":520,"o":"m 282 424 q 176 453 218 444 q 119 472 134 462 q 97 495 104 482 q 91 521 91 508 q 96 544 91 534 q 111 557 101 553 q 133 561 121 561 q 163 553 149 560 q 207 517 176 547 q 242 484 238 488 l 294 438 q 288 489 291 473 q 270 548 284 505 q 256 618 256 591 q 263 653 256 640 q 280 671 271 665 q 305 677 290 677 q 325 670 316 675 q 342 650 334 665 q 352 617 351 636 q 343 570 352 599 q 323 496 325 510 l 314 436 q 379 496 359 477 q 417 534 399 515 q 446 558 435 553 q 471 563 457 563 q 496 556 485 562 q 513 539 507 549 q 520 517 519 528 q 511 493 520 505 q 478 469 502 480 q 412 446 455 457 l 320 420 q 367 404 348 410 q 417 389 386 398 q 464 373 449 379 q 491 359 479 368 q 509 338 503 351 q 511 309 515 324 q 492 285 507 294 q 458 281 478 277 q 424 296 439 284 q 395 326 409 308 l 374 351 l 317 406 q 328 328 322 353 l 340 276 q 346 229 345 250 q 343 196 347 208 q 328 174 338 183 q 306 165 318 165 q 281 171 294 163 q 262 189 269 178 q 254 218 255 199 q 258 256 253 237 q 270 295 258 262 q 286 356 281 328 l 297 411 q 253 369 267 383 l 217 332 q 184 301 198 312 q 157 285 170 291 q 134 279 144 279 q 108 289 120 279 q 93 318 96 298 q 109 359 90 337 q 122 370 114 365 q 184 393 130 375 l 282 424 l 282 424 z "},"+":{"ha":978,"x_min":68,"x_max":901,"o":"m 454 446 l 454 831 l 513 831 l 513 446 l 901 446 l 901 387 l 513 387 l 513 -1 l 454 -1 l 454 387 l 68 387 l 68 446 l 454 446 z "},",":{"ha":694,"x_min":277,"x_max":425,"o":"m 421 -46 q 409 -79 418 -59 q 375 -128 399 -100 q 340 -167 351 -156 q 314 -192 328 -178 q 290 -207 299 -206 q 279 -204 281 -208 q 281 -191 277 -201 q 297 -169 285 -184 q 316 -145 310 -155 l 334 -115 q 345 -78 349 -92 q 326 -63 342 -64 l 308 -68 q 289 -66 295 -71 q 287 -46 283 -61 q 302 -17 289 -34 q 333 9 315 -1 q 366 20 351 18 q 397 15 384 22 q 417 -8 410 7 q 421 -46 425 -24 z "},"-":{"ha":979,"x_min":68,"x_max":901,"o":"m 68 442 l 901 442 l 901 385 l 68 385 l 68 442 z "},".":{"ha":694,"x_min":286,"x_max":424,"o":"m 382 5 q 408 -22 392 1 q 414 -72 424 -46 q 375 -110 404 -98 q 326 -113 346 -121 q 295 -82 305 -106 q 294 -32 286 -58 q 334 3 303 -6 q 382 5 364 13 z "},"/":{"ha":808,"x_min":62,"x_max":734,"o":"m 82 -12 l 678 884 q 698 911 688 906 q 721 912 708 917 q 728 899 734 907 l 713 863 l 121 -28 q 97 -55 109 -47 q 74 -56 85 -62 q 71 -38 62 -50 l 82 -12 l 82 -12 z "},":":{"ha":694,"x_min":286,"x_max":416,"o":"m 286 195 q 304 217 289 203 q 336 237 320 231 q 368 238 353 243 q 399 209 383 234 q 405 162 416 184 q 374 136 399 152 q 332 123 348 120 q 303 138 317 124 q 287 172 288 152 q 286 195 286 191 m 286 -41 q 304 -18 289 -31 q 336 1 319 -5 q 368 3 353 7 q 399 -26 383 -1 q 405 -73 415 -52 q 373 -100 399 -84 q 332 -113 347 -116 q 302 -97 317 -112 q 287 -63 288 -83 q 286 -41 286 -44 z "},";":{"ha":694,"x_min":293,"x_max":428,"o":"m 425 -32 q 416 -81 426 -54 q 384 -137 406 -109 q 353 -173 362 -165 q 325 -196 345 -181 q 299 -207 305 -211 q 293 -197 293 -203 q 304 -179 293 -190 q 332 -149 323 -163 l 347 -125 q 356 -95 361 -104 q 338 -89 351 -87 l 317 -99 q 302 -89 308 -100 q 302 -62 297 -78 q 316 -34 306 -49 q 342 -11 326 -20 q 372 0 358 -3 q 395 1 387 3 q 412 -9 404 -1 q 421 -24 419 -17 q 425 -32 424 -31 m 305 205 q 318 223 307 211 q 351 242 330 235 q 388 245 372 250 q 416 220 404 241 q 421 175 428 200 q 396 139 416 157 q 353 125 376 121 q 325 139 338 126 q 306 172 311 152 q 305 205 301 193 z "},"<":{"ha":1059,"x_min":70,"x_max":985,"o":"m 70 450 l 985 875 l 985 805 l 143 416 l 985 27 l 985 -39 l 70 378 l 70 450 z "},"=":{"ha":982,"x_min":68,"x_max":901,"o":"m 68 326 l 901 326 l 901 268 l 68 268 l 68 326 m 68 571 l 901 571 l 901 513 l 68 513 l 68 571 z "},">":{"ha":1070,"x_min":71,"x_max":986,"o":"m 986 450 l 986 376 l 71 -40 l 71 26 l 913 414 l 71 804 l 71 873 l 986 450 z "},"?":{"ha":692,"x_min":175,"x_max":539,"o":"m 197 435 l 206 450 q 235 488 214 462 q 297 539 256 514 q 390 566 338 565 q 456 553 422 566 q 512 513 490 540 q 536 452 533 486 q 527 385 539 418 q 492 326 515 354 q 436 267 469 297 l 385 218 q 345 173 357 191 q 332 134 334 154 q 340 97 330 114 q 361 73 345 85 q 380 50 376 60 q 367 22 384 39 q 332 5 349 4 q 315 9 325 5 q 290 30 305 13 q 273 76 275 47 q 276 124 271 106 q 296 165 282 146 q 339 217 309 183 q 393 285 368 252 q 436 356 418 318 q 453 427 454 393 q 428 482 452 460 q 348 495 404 504 q 279 470 309 488 q 234 435 250 452 l 212 411 q 188 400 201 399 q 197 435 175 402 m 290 -138 q 307 -116 292 -130 q 337 -97 321 -103 q 367 -95 353 -90 q 396 -124 380 -99 q 401 -170 411 -149 q 371 -196 395 -180 q 332 -209 347 -212 q 305 -194 319 -208 q 290 -161 291 -180 q 290 -138 288 -141 z "},"@":{"ha":1357,"x_min":70,"x_max":1285,"o":"m 924 720 l 949 765 l 1036 765 q 1006 665 1019 710 q 981 577 992 620 l 906 282 q 889 193 889 217 q 903 157 890 169 q 947 147 916 145 q 1024 174 989 150 q 1098 248 1059 197 q 1149 320 1136 298 q 1181 389 1163 343 q 1206 470 1200 435 q 1214 568 1213 506 q 1188 701 1215 630 q 1117 819 1167 755 q 1009 909 1067 882 q 914 946 951 936 q 843 962 878 957 q 763 970 808 968 q 672 968 715 971 q 589 958 629 966 q 503 933 549 949 q 408 883 458 917 q 316 810 359 850 q 235 712 273 770 q 177 611 197 655 q 148 516 158 566 q 135 410 137 466 q 140 305 132 355 q 173 191 148 256 q 249 66 198 125 q 362 -33 300 6 q 476 -91 425 -71 q 585 -118 527 -110 q 692 -125 643 -125 q 811 -116 754 -125 q 911 -94 867 -106 q 998 -58 956 -81 q 1098 6 1040 -35 q 1172 66 1157 47 l 1206 106 l 1285 106 q 1218 26 1247 57 q 1135 -46 1189 -5 q 1028 -113 1080 -86 q 893 -162 975 -140 q 716 -186 810 -185 q 593 -180 665 -188 q 469 -156 521 -172 q 378 -119 418 -139 q 303 -73 338 -99 q 228 -8 269 -47 q 160 73 186 31 q 119 151 134 115 q 92 236 104 187 q 74 333 79 284 q 71 422 70 382 q 86 531 73 476 q 132 655 99 587 q 215 787 164 724 q 319 892 267 850 q 406 951 372 934 q 478 983 441 969 q 560 1008 515 998 q 654 1024 605 1019 q 739 1029 703 1029 q 856 1016 794 1027 q 962 987 918 1004 q 1059 939 1006 970 q 1138 878 1111 907 q 1197 808 1166 850 q 1242 727 1227 766 q 1265 644 1256 689 q 1275 551 1275 600 q 1262 440 1274 503 q 1221 320 1249 378 q 1160 221 1194 263 q 1086 146 1126 179 q 1004 92 1047 113 q 924 69 960 71 q 861 80 891 66 q 823 113 830 93 l 803 157 q 725 99 770 129 q 604 69 680 69 q 499 91 553 68 q 417 141 446 113 q 368 207 389 168 q 339 278 347 245 q 332 349 332 311 q 347 457 333 405 q 374 540 361 509 q 402 595 388 570 q 456 668 416 621 q 543 746 495 715 q 641 792 590 776 q 746 806 692 808 q 813 796 785 805 q 863 775 841 787 q 894 753 885 764 l 924 720 l 924 720 m 890 612 q 872 673 888 641 q 824 733 857 705 q 732 762 790 760 q 632 738 682 762 q 544 677 583 714 q 477 589 505 640 q 433 487 448 538 q 416 366 418 435 q 427 256 414 296 q 465 182 438 216 q 533 131 492 149 q 627 122 574 112 q 709 160 673 131 q 770 225 745 190 q 810 296 795 261 q 834 359 826 330 q 862 461 842 388 q 886 567 881 534 q 890 612 890 600 z "},"A":{"ha":740,"x_min":35,"x_max":698,"o":"m 332 505 l 384 587 q 434 658 400 613 q 482 715 469 703 l 524 756 q 562 790 545 777 q 601 816 578 803 q 638 825 623 829 q 662 806 652 821 q 675 775 671 791 q 677 731 678 759 q 670 666 675 709 q 663 601 664 623 l 650 434 l 648 393 q 650 372 646 376 q 661 367 652 368 l 681 365 q 695 355 692 361 q 686 335 698 349 q 663 319 673 319 l 643 317 q 640 238 641 264 q 640 198 639 212 q 641 163 640 178 q 649 132 643 149 q 654 113 654 116 q 638 83 654 96 l 615 67 q 596 52 600 52 q 584 60 591 52 q 574 82 576 69 q 576 155 572 96 l 578 230 q 581 294 583 280 q 573 311 579 307 q 551 315 568 315 l 475 312 l 387 305 q 352 303 382 304 q 299 301 322 302 q 269 295 277 299 q 248 259 261 291 l 213 191 l 149 54 q 128 10 141 36 q 108 -30 115 -16 q 93 -51 102 -45 q 71 -60 85 -58 q 50 -60 57 -62 q 38 -51 42 -58 q 54 -14 35 -43 q 71 15 62 -3 q 121 106 80 33 l 159 180 l 197 248 l 222 298 q 166 292 191 296 q 134 289 142 289 q 103 291 123 288 q 68 301 83 294 q 53 322 53 309 q 62 347 52 336 l 87 367 q 115 388 107 383 q 126 390 123 392 l 122 374 q 129 349 117 355 q 168 347 141 342 q 208 349 180 348 q 245 356 235 349 q 264 382 255 362 q 277 409 273 403 l 332 505 m 294 356 q 440 361 416 359 l 585 367 l 590 429 l 595 505 l 602 575 q 607 648 604 597 q 610 727 610 700 q 601 759 610 753 q 562 743 591 764 q 511 693 543 728 q 460 635 479 658 q 414 568 442 612 q 366 489 386 524 q 327 418 346 454 l 294 356 l 294 356 z "},"B":{"ha":865,"x_min":37,"x_max":817,"o":"m 588 562 l 507 532 l 444 509 q 416 492 417 498 q 453 475 415 486 q 555 436 492 462 q 662 388 618 410 q 733 334 705 365 q 774 283 762 304 q 785 241 786 263 q 757 181 784 214 q 692 127 730 148 q 612 97 655 106 q 513 88 568 87 q 441 92 475 88 q 368 104 408 96 q 299 128 329 113 q 253 162 270 144 q 237 197 235 181 q 246 219 237 204 q 287 258 255 233 q 330 286 319 283 q 355 289 342 289 q 372 282 369 288 q 374 273 376 277 q 354 268 373 269 q 322 253 335 267 q 305 227 309 238 q 302 207 301 215 q 328 169 304 186 q 389 141 351 152 q 477 127 427 130 q 559 127 528 124 q 642 143 606 130 q 695 176 677 157 q 714 222 713 195 q 689 285 716 249 q 634 334 667 312 q 546 380 602 357 q 448 420 490 404 l 366 449 q 346 459 351 454 q 334 473 340 464 q 327 487 328 482 q 345 503 326 492 q 368 514 359 510 l 414 530 l 494 562 l 638 612 q 708 642 679 627 q 737 672 738 657 q 720 694 736 682 q 676 717 705 707 q 623 732 648 728 q 542 741 599 736 q 474 747 485 746 l 396 745 q 364 740 372 745 q 350 727 355 735 q 334 695 345 718 l 311 646 l 279 577 l 240 505 l 205 420 l 166 325 q 146 269 154 294 l 130 209 q 118 156 123 183 q 111 121 114 130 q 87 95 108 113 q 53 82 66 76 q 38 93 39 88 q 45 126 37 98 l 75 224 l 96 276 l 125 358 l 163 450 l 245 616 l 309 741 q 234 736 267 738 q 176 730 201 734 q 131 716 151 726 q 104 695 111 707 q 99 670 98 684 q 97 654 100 656 q 83 663 94 652 l 72 679 l 55 698 q 48 724 45 711 q 67 748 50 736 q 105 766 83 759 q 174 779 127 772 q 237 787 220 786 q 288 790 254 788 q 335 797 322 791 q 358 814 348 803 l 373 831 q 389 841 384 842 q 394 821 394 839 l 394 795 q 483 797 450 797 q 546 795 516 798 q 622 787 576 793 q 705 769 667 781 q 769 739 742 758 q 807 700 797 719 q 814 665 817 680 q 787 637 811 649 q 728 612 763 625 l 661 587 l 588 562 l 588 562 z "},"C":{"ha":843,"x_min":37,"x_max":800,"o":"m 646 821 q 734 810 704 821 q 779 782 764 799 q 797 735 793 766 q 780 663 800 705 q 717 574 756 613 q 643 509 678 535 q 586 470 607 482 q 539 446 564 458 q 510 439 514 435 q 504 451 507 444 q 515 493 502 458 q 528 522 522 514 q 559 536 534 529 l 586 543 q 642 565 620 551 q 692 611 663 579 q 729 676 722 644 q 720 732 736 709 q 669 768 704 756 q 582 774 634 779 q 473 749 522 768 q 378 701 425 730 q 295 641 332 672 q 223 572 258 610 q 166 499 188 533 q 127 418 144 465 q 110 325 111 371 q 123 248 109 279 q 171 190 138 216 q 248 153 203 164 q 368 140 292 141 q 463 142 422 139 q 546 156 504 146 q 622 181 587 166 q 693 215 657 196 q 753 252 730 234 q 781 266 777 270 q 781 249 784 262 q 755 215 777 234 q 701 174 733 196 q 634 136 669 153 q 553 106 598 120 q 463 84 508 92 q 363 77 418 76 q 293 80 328 77 q 222 91 259 83 q 149 116 186 98 q 89 162 112 134 q 54 227 66 190 q 39 293 41 263 q 41 357 37 323 q 61 437 47 402 q 100 508 75 471 q 163 588 124 545 q 249 667 201 630 q 345 732 296 705 q 445 780 393 759 q 543 810 496 802 q 646 821 590 819 z "},"D":{"ha":953,"x_min":33,"x_max":904,"o":"m 197 157 l 222 225 l 247 303 q 289 406 254 326 l 344 536 q 391 633 363 581 q 430 708 418 686 q 439 736 441 729 q 388 746 436 743 q 330 749 340 749 q 250 736 286 748 q 183 702 214 724 q 135 657 153 680 q 114 615 118 634 q 109 562 109 597 q 114 510 109 530 q 114 481 119 489 q 102 472 109 473 q 89 493 95 472 q 75 527 81 515 q 56 546 68 538 q 38 559 43 553 q 39 589 33 564 q 55 626 41 601 q 88 672 69 650 q 140 715 107 694 q 201 750 173 736 q 253 771 229 764 q 330 787 277 778 q 415 794 384 797 q 449 793 447 792 q 477 801 463 794 q 509 820 492 808 q 534 829 527 833 q 540 816 541 826 q 535 804 539 814 q 536 784 532 793 q 575 764 541 773 q 650 731 610 754 q 726 680 690 707 q 795 607 762 652 q 859 497 829 561 q 897 393 889 434 q 902 310 904 353 q 891 244 900 271 q 864 197 882 218 q 825 157 846 175 q 772 122 804 139 q 707 97 741 104 q 644 92 673 90 q 594 102 642 92 q 507 115 547 112 q 425 118 467 118 q 341 115 394 117 q 272 108 288 113 q 245 96 256 102 q 223 85 233 89 q 207 86 213 81 q 197 112 201 91 q 193 140 193 133 q 197 157 193 146 m 268 186 q 268 157 263 166 q 296 145 273 149 q 352 148 314 142 q 468 159 391 154 q 582 163 546 163 q 670 157 623 162 q 736 154 718 152 q 787 173 762 157 q 823 217 812 189 q 836 275 833 245 q 834 345 838 305 q 816 427 829 387 q 784 505 804 467 q 741 574 765 543 q 685 633 717 605 q 628 677 653 661 q 562 712 603 694 q 503 722 521 730 q 459 655 489 715 q 406 544 429 595 l 347 408 q 306 313 315 338 q 283 241 296 288 q 268 186 270 195 z "},"E":{"ha":871,"x_min":31,"x_max":827,"o":"m 258 684 q 301 725 283 710 q 349 756 319 739 q 416 788 380 774 q 496 809 452 802 q 592 816 541 816 q 693 807 648 815 q 767 788 738 800 q 812 758 797 776 q 825 724 827 741 q 805 687 824 713 q 773 646 787 662 q 741 614 759 630 q 705 589 722 599 q 663 568 687 579 q 626 561 638 556 q 612 572 613 566 q 637 587 611 578 q 681 611 659 594 q 722 653 704 627 q 737 696 739 678 q 715 730 734 713 q 649 755 696 747 q 559 766 602 764 q 458 759 501 768 q 381 732 415 750 q 327 696 348 715 q 295 655 306 677 q 287 612 283 633 q 317 564 290 588 q 397 516 343 539 q 497 479 451 494 l 595 450 q 627 429 623 440 q 623 401 631 417 q 587 375 612 385 q 514 354 561 366 q 397 322 468 342 q 274 286 326 302 q 190 253 221 269 q 140 218 159 237 q 122 189 121 198 q 148 166 123 176 q 200 152 172 155 q 269 147 227 149 q 344 145 311 145 q 440 146 391 144 q 540 152 489 149 q 636 162 591 156 q 711 178 681 168 q 762 197 742 187 q 795 220 783 206 q 811 231 807 233 q 817 219 816 229 q 808 196 817 209 q 785 170 797 180 q 741 146 774 159 q 667 122 708 132 q 566 103 626 111 q 441 92 506 94 l 334 88 q 260 88 298 86 q 185 95 222 90 q 121 107 147 100 q 71 125 96 115 q 39 148 46 136 q 35 180 31 159 q 76 233 39 202 q 140 280 113 263 q 213 315 168 297 q 291 342 257 332 q 388 366 324 352 q 478 385 451 380 q 525 394 505 389 q 544 404 544 399 q 521 418 545 409 q 467 433 504 423 q 397 454 430 442 q 330 486 365 466 q 270 524 294 505 q 229 562 245 543 q 213 601 214 581 q 235 651 213 621 l 258 684 z "},"F":{"ha":784,"x_min":33,"x_max":738,"o":"m 388 793 l 457 788 l 517 786 q 578 784 570 783 q 623 789 590 784 q 667 800 656 795 l 703 814 q 727 807 717 816 q 734 781 738 798 q 703 754 730 770 q 662 721 676 739 q 624 660 648 704 q 582 577 600 616 q 549 511 564 538 q 542 479 534 484 q 559 478 545 477 q 632 476 574 479 l 678 473 q 705 464 690 471 q 726 450 720 458 q 730 430 732 443 q 715 404 728 418 l 694 382 q 677 367 680 365 q 672 380 673 368 q 668 399 670 393 q 653 414 666 406 q 623 426 640 422 q 560 431 606 430 q 528 427 535 431 q 492 365 522 424 l 412 208 l 377 154 q 332 93 357 123 q 286 45 308 62 q 235 11 264 27 q 175 -9 206 -5 q 106 12 144 -14 q 78 39 83 28 q 67 82 74 50 q 62 120 61 114 q 69 142 62 134 q 91 162 75 151 q 119 179 106 174 q 138 178 133 184 q 142 157 144 172 q 132 121 140 151 q 132 70 124 92 q 168 40 140 48 q 224 43 195 31 q 265 70 243 50 q 306 121 287 89 q 346 199 324 153 q 400 305 368 246 q 440 390 432 363 q 443 422 448 416 q 410 425 439 427 l 362 422 l 296 416 l 254 413 q 186 404 226 411 q 131 398 146 397 q 111 403 117 399 q 113 422 106 408 q 142 442 117 430 l 178 463 q 199 470 184 466 q 230 473 213 473 l 319 473 l 396 477 l 435 475 q 465 479 454 473 q 488 507 476 486 l 515 559 l 556 631 q 578 667 572 658 l 620 718 l 652 759 q 585 748 613 753 q 545 742 557 743 q 505 741 533 741 l 432 739 l 356 736 q 307 738 344 735 q 248 740 270 740 q 179 736 212 739 q 126 724 146 733 q 105 702 106 715 q 119 676 104 689 q 179 665 138 657 q 219 665 219 672 q 205 648 220 659 q 175 638 197 642 q 147 635 153 635 q 106 637 123 632 q 67 657 89 642 q 39 686 45 673 q 38 714 33 699 q 65 744 42 728 q 116 772 88 760 q 178 788 143 784 l 233 791 l 294 795 l 388 793 z "},"G":{"ha":833,"x_min":35,"x_max":791,"o":"m 712 399 q 596 309 643 346 q 504 240 549 273 q 396 168 460 207 q 272 105 332 129 q 161 83 212 81 q 99 98 130 84 q 53 144 68 113 q 37 218 39 176 q 46 303 35 260 q 76 381 54 332 q 127 470 98 431 q 221 572 155 510 q 337 672 286 635 q 445 738 388 709 q 554 784 501 766 q 651 806 608 801 q 724 807 695 811 q 769 787 753 802 q 788 745 786 772 q 772 681 791 718 q 731 621 755 648 q 670 569 707 593 q 612 552 633 545 q 587 573 590 559 q 603 614 584 587 q 617 631 611 626 q 630 640 623 637 q 652 639 633 640 q 686 645 671 638 q 714 669 701 651 q 728 705 727 687 q 715 740 729 724 q 660 761 701 757 q 577 754 618 764 q 480 714 536 743 q 387 659 425 686 q 288 575 348 631 q 192 469 229 519 q 136 369 155 418 q 105 264 116 321 q 115 182 95 208 q 174 152 135 157 q 265 168 209 146 q 366 212 321 189 q 473 276 412 236 q 587 350 535 315 q 677 411 640 385 q 735 451 715 437 q 769 460 756 464 q 787 429 783 456 q 779 362 791 401 l 747 260 q 706 139 730 205 q 666 38 682 73 q 634 -21 650 3 q 595 -64 618 -46 q 552 -83 573 -82 q 519 -76 530 -84 q 506 -55 509 -67 q 519 -23 503 -43 q 547 1 535 -3 q 569 1 565 6 l 589 -19 q 613 26 602 4 q 636 84 625 48 q 671 208 648 120 q 699 321 694 295 l 712 399 l 712 399 z "},"H":{"ha":999,"x_min":36,"x_max":956,"o":"m 469 688 l 439 589 q 425 535 433 569 q 413 486 417 502 q 411 463 408 469 q 443 460 414 456 q 500 465 472 464 l 571 468 q 654 470 622 469 q 700 472 686 470 q 722 479 715 474 q 734 520 729 485 l 741 585 l 754 679 l 761 734 q 768 758 763 747 q 798 791 773 768 l 825 816 q 851 832 838 828 q 868 831 865 836 q 869 819 871 826 q 853 794 867 813 q 831 751 839 776 q 813 685 823 727 q 797 590 804 644 q 788 498 789 536 l 787 438 l 784 383 q 784 310 783 362 q 787 249 784 271 q 798 200 789 227 q 820 155 806 173 q 854 134 834 137 q 894 145 873 132 q 921 173 909 155 l 937 200 q 950 213 946 214 q 955 196 954 212 q 949 163 956 180 q 924 121 939 140 q 889 89 909 101 q 841 77 868 76 q 787 94 808 77 q 752 137 766 111 q 734 188 739 163 q 728 239 729 212 l 726 308 q 724 386 723 371 q 721 407 726 400 q 695 418 715 414 q 640 418 686 419 l 577 415 l 501 411 q 428 409 458 408 q 389 404 397 409 l 366 338 l 336 253 q 308 184 321 212 q 277 137 294 157 q 235 98 260 117 q 190 81 209 80 q 148 100 173 82 q 103 142 123 119 q 67 195 84 165 q 43 257 50 225 q 39 313 36 288 q 52 351 42 340 q 82 376 62 363 q 107 393 101 389 q 131 413 113 398 q 160 434 148 429 q 202 442 172 439 l 253 448 q 309 451 291 452 q 336 456 328 451 q 351 481 345 461 l 369 543 l 398 637 q 418 702 410 682 q 419 730 426 722 q 392 734 413 739 l 361 722 q 347 724 350 721 q 353 741 345 728 q 373 759 359 749 q 396 774 386 769 q 431 788 406 779 q 474 806 456 796 q 504 819 492 817 q 521 815 515 821 q 518 791 526 809 q 509 775 517 790 q 487 729 500 760 l 469 688 m 207 123 q 239 143 222 122 q 273 213 256 164 q 292 269 290 262 l 313 345 q 319 394 327 387 q 289 399 312 400 q 245 396 278 399 q 205 392 213 393 q 150 380 198 391 q 91 355 102 370 q 83 312 80 340 q 106 248 85 286 l 136 196 q 173 144 153 165 q 207 123 193 123 z "},"I":{"ha":562,"x_min":35,"x_max":517,"o":"m 122 161 q 154 150 134 161 l 175 136 q 222 125 193 124 q 282 137 248 125 q 350 176 317 149 q 403 255 384 204 q 431 367 422 306 q 444 461 440 429 q 451 539 448 494 q 454 621 454 585 q 449 696 453 648 q 426 760 445 745 q 364 752 407 775 q 321 708 341 739 q 292 653 302 677 q 278 600 283 628 q 270 548 273 572 q 262 507 267 524 q 243 471 257 490 q 213 441 229 451 q 190 436 197 432 q 183 460 184 439 q 201 526 183 481 q 219 577 201 527 q 255 664 237 628 q 295 731 273 701 q 357 794 317 761 q 433 825 397 827 q 478 806 457 823 q 508 746 499 789 q 517 654 517 703 q 512 553 516 621 q 503 432 508 484 q 486 323 498 380 q 455 226 475 267 q 404 157 435 186 q 332 112 372 129 q 261 91 292 96 q 191 85 230 87 q 129 85 151 83 l 85 90 q 46 101 58 92 q 35 118 35 109 q 54 134 36 123 q 76 147 71 144 q 98 156 81 150 q 122 161 115 161 z "},"J":{"ha":657,"x_min":37,"x_max":615,"o":"m 446 262 q 462 305 456 287 q 480 378 468 323 q 502 477 493 433 q 514 543 511 522 q 522 626 516 564 q 520 715 527 688 q 502 746 515 734 q 441 745 490 758 q 362 711 404 734 q 275 645 321 688 q 202 556 230 602 q 165 481 174 511 q 165 436 157 451 q 181 421 170 426 q 195 412 193 416 q 193 401 197 408 q 178 395 191 399 q 149 380 165 391 q 119 369 133 368 q 101 374 109 369 q 93 400 94 380 q 96 437 93 421 q 116 500 102 469 q 156 567 130 532 q 218 636 182 602 q 301 706 254 671 q 390 764 347 741 q 455 794 433 787 q 516 808 478 800 q 566 809 554 815 q 584 787 576 803 q 592 734 592 771 q 591 670 593 698 q 581 593 589 652 q 568 504 573 534 q 551 426 563 473 q 532 351 540 378 l 513 289 q 556 309 536 300 q 592 327 576 317 q 612 333 609 336 q 603 314 615 330 q 574 289 591 299 q 534 264 556 279 l 511 248 q 482 180 495 210 q 454 122 469 151 q 412 53 438 92 q 352 -24 387 14 q 278 -89 317 -62 q 191 -137 238 -117 q 109 -152 144 -157 q 55 -125 73 -147 q 37 -78 37 -104 q 50 -26 37 -53 q 100 39 64 1 q 173 103 136 77 q 262 163 210 130 q 340 208 314 195 l 378 224 l 446 262 l 446 262 m 437 220 q 372 188 399 202 q 293 137 345 173 q 201 68 241 101 q 147 18 161 36 q 117 -31 133 0 q 105 -75 102 -62 q 126 -99 109 -89 q 186 -94 144 -109 q 250 -66 222 -83 q 314 -12 278 -49 q 372 70 349 25 q 416 168 395 115 q 437 220 437 220 z "},"K":{"ha":804,"x_min":34,"x_max":765,"o":"m 120 447 l 151 589 l 175 696 q 177 713 175 698 l 180 739 q 183 772 181 765 q 197 788 185 779 q 228 807 209 798 q 261 821 247 816 q 280 822 275 826 q 279 800 285 818 q 263 768 276 793 q 241 714 250 743 q 224 644 232 685 l 199 523 l 176 422 q 219 449 197 435 q 263 475 241 464 q 307 481 286 486 l 352 475 q 397 509 376 492 q 457 566 417 526 q 515 626 497 606 l 558 676 q 594 721 583 703 q 599 750 605 739 q 551 749 593 760 q 504 731 524 742 q 476 722 484 720 q 468 725 469 723 q 470 734 467 728 q 495 752 473 740 l 587 804 q 619 814 597 810 q 656 814 642 819 q 679 794 669 808 q 682 753 688 779 q 653 705 677 734 q 610 655 630 676 q 552 597 590 634 q 493 543 515 561 q 439 503 472 526 l 385 463 q 420 434 406 447 q 457 389 434 421 q 498 321 479 357 l 526 267 l 551 223 q 590 164 574 182 q 631 145 606 146 q 666 153 649 144 q 701 176 684 163 q 733 203 718 189 q 752 221 747 217 q 761 224 757 225 q 760 205 765 224 q 737 168 755 189 l 700 127 q 670 104 697 125 q 627 77 644 83 q 576 90 610 71 q 538 123 556 101 q 508 170 520 146 l 476 232 l 435 308 q 388 382 407 358 q 343 419 370 406 q 286 431 317 432 q 231 419 256 430 q 190 394 205 408 q 168 364 174 380 q 153 315 161 348 l 134 239 q 127 202 131 227 q 123 174 123 178 l 118 118 q 94 84 111 100 q 61 64 76 68 q 40 65 46 60 q 40 97 34 70 l 53 157 l 67 214 l 120 447 z "},"L":{"ha":893,"x_min":33,"x_max":851,"o":"m 347 253 q 424 220 383 237 q 495 191 465 203 q 579 162 526 178 q 658 145 632 146 q 721 155 692 143 q 762 184 749 168 q 778 221 775 201 q 777 255 781 242 l 765 285 q 771 307 763 301 q 804 300 780 313 q 837 274 826 288 q 850 243 848 260 q 827 196 851 225 q 785 153 807 171 q 731 121 762 135 q 665 102 701 106 q 601 102 629 98 q 537 117 575 104 q 465 145 498 129 l 385 189 l 337 214 q 310 151 324 178 q 262 99 296 123 q 170 74 229 75 q 79 98 121 73 q 35 165 38 123 q 72 253 33 208 q 170 308 111 298 q 241 304 216 315 l 284 288 q 292 346 288 319 q 304 406 296 372 q 325 483 312 439 q 358 572 338 527 q 415 662 378 617 q 489 737 453 707 q 559 783 526 767 q 633 808 593 798 q 708 816 673 817 q 786 788 757 813 q 820 713 815 763 q 809 616 824 663 q 774 546 793 568 q 735 505 755 523 q 696 473 715 486 q 656 451 677 460 q 622 448 634 443 q 605 468 610 452 q 612 509 600 483 q 634 543 621 530 q 660 555 648 557 q 677 546 661 554 q 710 543 692 537 q 741 573 724 548 q 766 627 759 599 q 763 692 772 656 q 735 740 754 722 q 683 764 717 758 q 614 756 652 768 q 545 725 575 745 q 490 674 514 705 q 442 600 466 643 q 404 523 418 556 q 372 423 389 490 q 353 328 354 356 l 347 253 l 347 253 m 279 241 q 200 260 233 258 q 138 241 166 262 q 106 200 115 225 q 104 156 98 174 q 140 124 110 137 q 207 120 171 111 q 244 138 227 124 q 268 188 261 152 l 279 241 l 279 241 z "},"M":{"ha":1261,"x_min":36,"x_max":1219,"o":"m 94 83 l 163 186 l 261 328 l 337 425 l 406 511 q 498 625 465 586 q 578 712 532 665 q 652 777 623 759 l 687 795 q 728 811 715 811 q 746 805 739 810 q 762 782 754 800 q 772 753 770 764 q 767 720 774 742 l 742 635 l 705 534 q 677 450 686 477 l 648 354 l 634 312 l 600 193 q 681 303 659 273 q 722 362 702 334 l 797 471 q 889 598 849 546 q 951 676 928 650 q 997 729 973 702 q 1033 766 1021 757 q 1065 784 1044 775 q 1096 787 1086 792 q 1108 760 1107 783 q 1095 701 1109 736 q 1069 628 1082 665 l 1051 573 l 1030 484 q 1016 391 1022 452 q 1010 295 1010 330 q 1015 232 1009 261 q 1034 178 1020 199 q 1070 146 1047 157 q 1122 142 1094 136 q 1161 161 1146 147 q 1187 191 1176 174 q 1203 213 1198 207 q 1214 218 1209 220 q 1219 203 1219 216 q 1203 163 1218 191 q 1176 120 1189 135 q 1133 93 1162 105 q 1081 81 1104 81 q 1034 89 1055 80 q 994 116 1013 98 q 967 155 976 134 q 954 211 959 175 q 948 288 948 248 q 955 378 947 329 q 972 476 960 415 q 997 584 985 537 q 1019 656 1009 631 l 1042 715 q 1014 692 1023 701 q 983 654 1006 684 l 948 610 q 913 562 931 589 q 860 487 895 536 q 808 413 826 437 l 760 346 l 692 248 l 640 173 q 616 150 636 167 q 590 131 596 133 q 571 126 585 129 q 541 115 557 123 q 518 109 524 106 q 510 127 511 112 q 518 165 508 142 q 535 208 528 187 l 564 288 l 602 393 q 635 498 615 429 q 668 605 655 567 q 685 661 680 644 q 695 706 690 678 q 694 741 699 733 q 650 722 689 749 q 589 665 623 703 l 502 568 q 428 479 479 543 q 357 390 376 415 q 306 320 338 366 q 244 235 273 275 q 200 172 215 195 q 158 110 185 150 q 119 46 132 71 q 101 15 106 21 q 79 -5 96 9 q 53 -25 63 -18 q 40 -29 43 -32 q 38 -12 36 -26 q 56 28 39 3 l 94 83 z "},"N":{"ha":875,"x_min":38,"x_max":831,"o":"m 67 138 l 91 189 l 132 276 l 167 358 l 208 450 l 248 551 l 284 640 l 312 711 q 330 770 328 749 q 338 798 333 790 q 361 809 343 806 q 393 804 379 812 q 415 781 406 797 q 439 729 423 765 l 462 681 l 501 596 l 530 530 q 566 453 542 503 q 605 371 590 404 q 630 321 621 339 l 665 255 l 692 200 q 717 168 709 168 q 728 218 724 168 l 734 282 l 738 333 l 745 429 l 755 551 l 762 649 q 766 724 767 701 q 757 752 765 747 q 736 750 749 756 q 723 739 732 747 q 704 727 714 730 q 688 727 693 724 q 698 752 684 731 q 718 778 706 765 q 744 807 729 791 q 768 825 759 823 q 792 820 777 826 q 817 801 806 814 q 831 772 828 788 l 824 720 l 817 649 l 808 539 l 793 345 l 785 245 l 779 157 q 762 94 774 121 q 734 65 749 68 q 696 81 720 62 q 663 112 673 98 q 636 161 654 125 l 593 245 l 542 345 l 467 498 l 428 589 l 397 654 q 366 692 377 694 q 347 674 357 690 q 328 639 337 659 q 287 543 318 619 q 234 415 256 466 l 182 296 l 141 209 q 115 151 132 189 q 90 95 98 113 q 76 53 82 77 q 59 28 70 29 q 43 38 49 26 q 39 70 38 50 q 44 97 40 90 l 67 138 z "},"O":{"ha":864,"x_min":37,"x_max":813,"o":"m 39 429 q 61 539 42 483 q 117 643 81 595 q 206 731 153 691 q 310 791 258 772 q 409 814 361 810 q 514 805 450 816 q 625 769 578 793 q 704 718 672 745 q 759 655 735 690 q 798 565 782 621 q 812 462 813 509 q 784 346 809 408 q 729 243 759 283 q 655 171 700 203 q 567 123 610 138 q 490 99 524 107 q 423 88 456 91 q 286 96 350 81 q 168 146 221 111 q 84 234 115 181 q 45 339 53 287 q 39 429 37 392 m 743 479 q 693 617 732 557 q 607 705 653 677 q 506 749 561 733 q 389 764 451 764 q 301 749 339 762 q 220 704 262 736 q 156 630 178 671 q 121 548 133 590 q 106 436 109 505 q 118 321 102 367 q 202 207 141 250 q 342 148 262 163 q 492 142 422 133 q 589 170 552 150 q 654 214 626 189 q 707 276 683 238 q 739 378 730 313 q 743 479 748 444 z "},"P":{"ha":909,"x_min":35,"x_max":865,"o":"m 360 800 l 496 804 q 590 795 534 805 q 698 768 646 785 q 788 714 749 750 q 846 627 827 679 q 864 520 865 575 q 836 398 862 449 q 771 309 810 347 q 690 247 733 271 q 593 212 646 222 q 479 203 539 201 q 372 219 414 203 q 322 232 330 235 q 304 200 311 227 q 285 123 298 174 l 263 43 q 253 -6 258 27 q 242 -59 247 -39 q 243 -83 238 -78 q 270 -85 248 -91 q 293 -81 292 -79 q 288 -94 294 -83 q 255 -121 280 -109 q 215 -144 231 -132 q 190 -154 199 -155 q 174 -145 180 -153 q 172 -115 168 -137 q 179 -81 173 -109 q 191 -24 186 -54 q 198 15 195 5 l 222 106 l 255 243 l 277 320 l 307 429 l 338 548 l 356 633 l 370 692 q 371 730 376 720 q 315 736 366 741 q 186 719 205 725 q 143 698 167 713 q 106 657 119 682 q 100 601 93 631 q 119 562 105 577 q 157 533 134 547 q 190 510 180 519 q 198 496 199 501 q 180 493 197 492 q 153 503 172 493 q 102 515 134 513 q 66 522 71 517 q 52 547 62 527 q 38 578 41 567 q 39 612 35 589 q 55 655 42 633 q 98 706 67 676 q 164 755 130 735 q 241 781 199 776 l 360 800 l 360 800 m 395 528 q 367 421 379 465 q 350 351 355 377 q 342 316 345 325 q 340 303 339 307 q 370 279 340 292 q 432 262 399 266 q 520 257 465 259 q 598 257 576 254 q 667 275 629 260 q 737 325 705 290 q 783 419 769 361 q 791 539 797 478 q 757 642 784 602 q 682 704 730 682 q 601 732 634 726 q 528 743 568 739 q 471 741 490 745 q 448 732 453 736 q 422 640 443 728 l 395 528 z "},"Q":{"ha":872,"x_min":35,"x_max":834,"o":"m 450 807 q 546 798 507 805 q 625 767 584 790 q 699 713 666 743 q 749 654 731 683 q 780 576 766 626 q 787 458 793 527 q 770 373 783 413 q 735 294 758 332 q 686 230 712 255 q 630 182 659 204 q 577 150 601 160 q 551 134 553 140 q 578 102 549 128 l 618 60 q 657 28 628 51 q 706 -1 687 6 q 753 -5 726 -9 q 794 6 777 -3 q 821 19 812 16 q 831 20 829 22 q 828 3 834 17 q 810 -24 819 -14 q 779 -52 802 -33 q 737 -76 755 -70 q 692 -74 718 -82 q 658 -57 675 -69 q 609 -17 640 -45 q 546 51 578 11 q 501 100 513 91 q 482 111 490 109 q 445 105 472 113 q 377 93 418 97 q 311 92 337 90 q 233 110 275 95 q 162 149 191 125 q 123 191 134 173 l 90 239 q 70 234 75 237 l 56 227 q 40 227 45 223 q 43 248 35 231 q 57 270 51 264 l 75 288 q 61 319 66 305 q 49 353 55 334 q 40 400 43 373 q 39 458 37 428 q 54 544 41 504 q 94 619 68 583 q 156 688 119 654 q 249 754 192 721 q 353 795 306 787 q 450 807 401 804 m 125 328 q 162 353 142 340 q 207 370 182 366 q 270 368 229 374 q 332 349 311 361 q 380 313 353 338 q 440 258 408 288 q 495 201 473 227 q 530 173 517 174 q 570 187 542 171 q 625 226 599 203 q 673 284 652 249 q 709 377 695 320 q 723 477 723 433 q 703 582 722 524 q 635 681 683 640 q 544 736 587 721 q 454 757 500 751 q 350 756 391 764 q 270 728 309 749 q 201 679 231 708 q 148 613 171 650 q 115 540 125 576 q 104 456 104 504 q 115 367 104 405 q 125 328 125 328 m 390 221 l 341 267 q 285 303 315 291 q 231 317 255 315 q 174 305 189 318 l 141 280 q 162 233 151 254 q 207 185 173 212 q 274 145 240 158 q 345 131 309 133 q 410 134 370 129 q 455 147 450 140 q 390 221 460 155 z "},"R":{"ha":1004,"x_min":39,"x_max":960,"o":"m 163 764 l 257 789 l 374 802 l 532 806 q 600 801 548 806 l 662 794 q 729 779 692 789 q 794 749 766 768 q 831 709 821 730 q 841 652 841 687 q 821 578 842 616 q 772 517 804 545 q 709 477 741 490 l 661 456 q 639 436 642 446 q 643 411 636 427 q 659 376 649 396 l 692 305 l 720 250 l 746 205 q 778 157 762 176 q 829 138 795 138 q 875 152 848 138 q 921 188 902 166 q 947 216 940 210 q 957 218 954 221 q 958 205 960 216 q 947 178 955 195 q 926 147 939 162 q 879 107 913 132 q 812 74 844 83 q 749 85 779 66 q 723 110 738 92 q 697 150 708 128 l 677 189 q 650 250 675 190 l 612 328 q 577 401 587 382 q 546 437 567 420 q 498 465 526 455 q 425 479 470 475 q 378 476 391 482 q 360 465 366 471 q 342 422 354 458 l 283 255 q 266 201 276 236 q 258 154 255 166 q 269 136 260 138 l 294 136 q 301 130 299 134 q 289 116 303 125 l 264 102 l 237 81 l 205 67 q 179 59 189 58 q 167 71 170 60 q 173 102 165 83 q 182 131 176 108 l 196 173 l 221 252 l 283 427 l 327 553 l 353 631 l 378 708 q 383 726 382 719 q 376 740 383 734 q 349 745 370 746 l 290 743 q 204 733 245 740 q 138 709 163 726 q 108 675 112 692 q 119 640 104 659 q 144 614 125 630 q 182 588 163 597 q 200 571 200 578 q 193 560 201 564 q 117 581 185 556 l 86 587 q 64 599 73 591 q 47 623 55 607 q 41 656 39 638 q 48 680 41 669 q 66 699 56 690 l 107 724 l 163 764 m 404 594 q 393 557 394 562 l 374 500 q 413 516 395 509 q 453 528 431 524 q 515 528 496 535 q 563 501 534 520 q 608 479 592 482 q 668 490 631 475 q 734 543 705 505 q 764 620 764 580 q 753 681 764 660 q 714 717 741 701 q 630 742 687 733 q 532 752 573 751 q 483 749 505 752 q 455 740 461 746 q 441 709 450 734 l 404 594 z "},"S":{"ha":856,"x_min":36,"x_max":807,"o":"m 262 82 l 189 88 q 132 98 162 90 q 82 116 102 106 q 49 147 62 125 q 37 186 36 168 q 50 216 38 203 q 87 245 61 229 q 132 273 113 260 q 159 289 151 285 l 191 300 q 210 303 206 306 q 205 285 214 300 q 181 267 199 277 q 141 237 162 258 q 117 205 119 216 q 130 177 114 193 q 180 153 143 161 q 243 143 218 145 q 324 138 269 140 q 402 136 379 135 q 494 146 450 136 q 573 171 539 155 q 628 210 607 186 q 660 255 649 234 q 669 300 670 276 q 655 339 668 323 q 603 373 643 356 q 509 404 562 391 q 389 431 456 418 q 295 454 321 444 q 244 479 269 463 q 210 511 219 495 q 200 551 200 527 q 220 608 199 574 q 266 662 237 635 q 346 719 294 689 q 440 767 397 749 q 527 796 484 786 q 619 811 571 806 q 701 811 667 816 q 760 793 738 806 q 794 765 781 780 q 807 729 806 751 q 791 681 807 707 q 763 647 781 667 q 722 603 745 627 q 686 568 699 578 l 640 536 q 607 520 618 519 q 592 524 595 520 q 611 547 589 528 q 647 580 622 555 q 679 613 672 604 q 702 651 685 621 q 720 703 720 680 q 695 747 721 726 q 640 767 677 762 q 567 770 604 773 q 486 750 526 765 q 407 711 447 736 q 336 657 366 686 q 295 606 307 628 q 280 566 283 583 q 285 536 278 549 q 320 509 293 519 q 388 490 348 499 q 503 465 429 480 q 611 441 578 450 q 676 419 644 433 q 730 378 709 405 q 754 320 751 351 q 738 257 756 289 q 686 201 721 229 q 619 157 652 174 q 544 125 587 140 q 454 99 502 110 q 355 83 406 88 q 262 82 304 78 z "},"T":{"ha":851,"x_min":23,"x_max":802,"o":"m 274 722 q 202 727 233 726 q 148 718 172 728 q 108 685 124 707 q 100 635 92 663 q 118 605 104 618 q 151 579 132 591 q 185 557 169 566 q 200 542 202 548 q 189 534 199 536 q 155 546 180 532 q 121 555 146 550 q 73 568 96 560 q 36 591 49 576 q 29 633 23 606 q 62 680 33 647 q 109 726 92 712 q 163 754 126 739 q 230 772 199 770 q 299 768 249 774 q 358 761 349 762 l 413 751 l 454 748 l 543 731 q 563 731 556 728 q 589 770 569 733 l 595 779 l 608 806 q 633 823 609 807 q 669 842 658 838 q 684 838 680 845 q 686 819 689 831 q 676 795 682 806 l 651 759 l 640 739 q 627 707 625 712 q 659 699 629 702 q 704 695 701 694 l 761 701 q 782 694 779 701 q 768 672 785 688 q 736 648 757 661 q 704 633 716 635 q 668 636 691 630 q 623 646 644 642 q 595 646 602 650 q 577 623 586 642 q 547 564 568 604 q 512 496 525 525 l 469 397 l 436 326 l 407 248 q 388 186 389 205 q 395 161 388 168 q 423 154 402 154 q 489 164 455 153 q 572 200 522 176 l 655 241 l 713 271 l 748 289 l 780 310 q 798 316 794 319 q 796 303 802 313 q 766 276 789 293 l 723 243 q 668 207 709 233 q 617 175 628 181 l 558 140 l 507 115 q 425 84 465 94 q 360 79 386 74 q 321 102 335 83 q 311 154 308 120 q 326 217 312 176 q 346 271 340 258 l 378 354 l 427 461 l 471 543 l 503 601 l 519 633 q 532 670 535 663 q 500 684 528 677 l 455 695 l 384 708 q 313 718 374 709 l 274 722 l 274 722 z "},"U":{"ha":1053,"x_min":33,"x_max":1008,"o":"m 416 793 l 496 798 q 549 803 515 798 q 601 812 583 807 q 634 815 619 817 q 651 805 649 813 q 636 781 653 797 l 610 759 q 570 721 593 744 q 527 675 547 698 q 476 615 507 652 q 414 534 446 578 q 355 447 382 490 q 308 361 328 403 q 279 288 288 319 q 269 226 271 257 q 282 181 268 195 q 338 170 297 168 q 407 181 368 172 q 474 202 446 191 q 538 234 502 214 q 608 279 574 254 q 665 328 642 304 q 708 378 688 351 q 745 435 728 405 q 769 484 762 466 l 805 580 l 824 628 q 845 690 826 635 q 868 761 864 746 q 878 784 873 776 q 893 801 884 793 q 928 824 903 810 q 960 832 954 838 q 966 811 966 826 q 956 783 964 800 q 934 734 947 766 q 908 671 920 702 q 880 596 896 641 q 857 520 864 552 q 848 449 850 489 q 851 370 846 409 l 860 298 l 876 234 q 896 186 883 206 q 924 163 909 165 q 946 166 931 162 q 980 190 962 170 q 1002 207 998 210 q 1007 196 1006 203 q 1005 180 1008 188 q 991 154 1004 176 l 981 136 q 951 105 974 126 q 920 78 928 83 q 907 72 911 72 q 896 73 901 71 q 877 87 890 75 q 849 118 863 99 q 822 170 835 136 q 803 232 809 203 q 791 306 797 260 q 787 362 786 353 l 789 429 q 748 365 768 395 q 683 293 728 336 q 605 225 639 251 q 530 177 570 200 q 451 136 490 153 q 363 105 412 118 q 289 94 315 92 q 231 115 252 96 q 202 166 210 134 q 197 225 195 199 q 215 303 199 257 q 249 380 232 349 q 304 467 266 412 q 376 562 343 521 q 446 642 408 602 q 518 712 483 682 q 548 748 554 743 q 532 754 543 752 q 490 752 521 755 l 407 743 l 317 734 q 245 726 272 729 q 192 721 219 722 q 149 715 165 720 q 129 701 132 711 q 153 673 127 690 q 194 652 172 659 q 250 636 216 645 q 311 628 283 627 q 339 621 339 629 q 335 612 338 618 q 314 601 332 606 q 288 596 296 596 q 260 599 283 595 l 200 604 q 168 614 197 605 q 135 626 140 623 l 111 641 l 77 656 q 50 672 66 661 q 34 696 33 684 q 42 713 34 701 q 58 734 50 725 q 79 752 66 743 q 102 766 92 762 q 132 774 113 771 q 185 779 151 777 q 244 784 220 782 l 332 788 l 416 793 z "},"V":{"ha":899,"x_min":30,"x_max":857,"o":"m 488 741 q 416 725 453 732 q 339 720 378 718 q 283 726 313 720 q 219 739 254 732 q 162 752 184 747 q 123 751 140 757 q 103 735 107 746 q 113 708 100 725 q 168 669 128 685 q 229 656 208 652 l 259 663 q 279 660 277 665 q 266 646 281 656 q 230 632 254 638 l 197 623 q 175 617 193 621 q 153 614 157 614 q 113 636 147 614 l 97 646 q 78 667 94 648 l 48 697 q 34 731 30 718 q 45 746 35 736 q 84 773 56 755 q 131 799 113 792 q 177 804 148 805 q 193 802 186 804 l 216 795 l 305 781 q 361 777 316 779 q 415 774 406 774 l 481 779 q 529 786 517 781 l 575 804 q 599 801 595 807 q 581 774 604 794 q 539 744 574 769 q 473 688 504 719 q 409 618 443 658 q 339 525 374 578 q 284 411 304 472 q 265 296 264 350 q 289 200 265 229 q 351 154 313 170 q 444 142 389 137 q 520 161 483 146 q 591 203 557 176 q 649 259 626 231 q 673 302 671 287 q 665 342 675 318 q 646 378 660 352 q 625 428 633 405 q 613 500 618 450 q 613 601 608 550 q 628 686 616 637 q 653 750 640 734 q 677 774 666 767 l 743 814 q 784 829 769 829 q 815 820 800 828 q 842 783 831 812 q 855 716 853 754 q 854 642 857 678 q 836 537 850 600 q 805 427 821 473 q 767 345 789 381 l 747 310 q 775 273 763 289 q 799 246 787 258 q 821 220 812 234 q 825 204 831 207 q 809 203 819 201 q 781 223 800 205 l 742 255 l 720 276 q 662 219 690 246 q 595 163 633 191 q 522 117 557 135 q 445 92 487 100 q 359 88 403 84 q 284 106 317 92 q 234 145 252 121 q 204 205 216 170 q 192 289 193 239 q 203 385 191 338 q 238 471 214 428 q 295 559 261 514 q 357 630 328 604 q 427 690 385 656 l 488 741 l 488 741 m 781 539 l 795 614 q 799 676 800 641 q 791 738 798 711 q 769 774 785 766 q 728 766 754 782 q 694 723 708 753 q 672 660 680 693 q 662 575 665 626 q 662 493 659 524 q 668 449 663 469 q 687 396 673 429 q 717 367 701 363 q 742 402 726 368 q 763 454 758 437 q 781 539 767 471 z "},"W":{"ha":1099,"x_min":31,"x_max":1050,"o":"m 522 765 q 458 747 479 753 l 416 734 q 349 719 388 725 q 275 713 310 712 q 195 722 235 713 l 142 736 q 110 736 117 742 q 123 699 103 730 q 160 662 134 682 l 210 621 q 251 594 233 602 q 271 579 269 585 q 254 568 273 573 q 217 561 235 562 q 190 562 199 560 q 175 569 180 563 l 125 615 l 91 654 q 35 736 31 718 q 44 751 38 745 q 73 772 50 758 l 106 794 q 119 800 114 798 q 145 792 126 800 q 192 777 163 784 q 270 770 220 770 q 352 771 307 768 q 433 779 397 774 q 501 793 469 785 q 555 809 532 801 q 590 820 578 818 q 607 816 602 821 q 613 807 612 811 q 609 797 613 802 q 580 773 603 789 q 531 731 557 758 q 461 653 505 705 q 384 558 417 601 q 312 459 350 515 q 254 361 275 402 q 212 262 233 320 q 204 191 191 205 q 242 175 217 178 q 319 187 271 171 q 417 239 368 203 q 490 298 466 275 q 536 351 514 320 q 563 396 557 381 q 574 441 568 411 q 590 504 581 471 q 613 570 600 537 q 642 622 627 602 q 679 662 657 641 q 712 694 701 683 q 733 708 722 705 q 751 705 744 711 q 744 667 759 699 q 713 602 722 623 q 703 579 704 581 q 677 534 702 577 q 644 468 652 492 q 628 417 635 445 q 621 358 622 389 q 627 300 620 328 q 652 238 633 272 q 705 177 671 204 q 772 150 738 151 q 843 173 802 149 q 917 236 884 197 q 968 320 951 275 q 991 413 985 366 q 994 519 996 460 q 981 627 990 577 q 964 702 972 676 q 938 751 955 728 q 900 783 922 774 q 874 795 878 791 q 870 806 870 800 q 897 814 869 812 q 950 806 924 814 l 991 789 q 1029 767 1023 777 q 1035 743 1034 758 q 1041 683 1036 728 q 1049 596 1047 639 q 1050 526 1050 553 q 1042 420 1050 469 q 1020 338 1034 372 q 985 268 1007 304 q 938 206 963 233 q 880 156 912 179 q 802 110 848 132 q 726 88 756 87 q 664 112 689 90 q 613 190 638 134 q 586 264 588 245 l 572 342 q 503 269 526 290 q 439 213 480 247 q 368 159 398 179 q 283 115 338 139 q 195 96 229 91 q 150 117 165 100 q 132 159 136 134 q 134 213 129 184 q 159 297 140 250 q 209 395 178 343 q 284 505 240 447 q 374 613 328 563 q 467 711 419 663 l 522 765 l 522 765 z "},"X":{"ha":1129,"x_min":39,"x_max":1086,"o":"m 693 441 q 635 382 663 410 q 578 326 608 354 q 504 262 549 298 q 400 183 460 225 q 302 125 340 141 q 212 97 264 109 q 127 90 159 85 q 60 121 81 96 q 39 160 39 146 q 45 186 39 174 q 81 223 51 198 q 122 257 111 248 q 151 274 134 266 q 199 295 168 281 q 233 302 230 309 q 226 282 237 294 q 202 270 221 277 q 160 243 184 263 q 122 204 136 223 q 113 174 109 186 q 142 151 117 161 q 222 154 167 141 q 291 174 262 163 q 363 212 319 185 q 447 268 408 238 q 517 325 487 297 q 591 396 547 353 q 650 460 635 439 q 666 496 666 480 q 640 545 665 507 l 606 601 q 561 659 592 623 q 512 706 530 694 q 455 732 495 717 q 379 750 415 748 q 299 734 330 752 q 252 693 268 717 q 232 632 235 670 q 247 542 229 593 q 269 484 254 519 q 302 428 283 448 q 317 406 320 409 q 302 404 314 403 q 267 426 285 406 q 240 462 249 447 q 213 518 231 477 q 189 586 195 559 q 185 644 182 613 q 208 715 189 686 q 267 769 228 745 q 349 802 306 793 q 437 807 391 810 q 502 793 471 804 q 561 758 534 782 q 600 716 588 733 q 645 650 612 699 q 691 571 677 602 q 716 543 706 541 q 736 559 722 544 l 770 594 q 813 641 781 605 q 867 704 846 677 q 899 741 888 731 l 945 779 q 986 804 956 789 q 1029 816 1016 819 q 1054 793 1042 812 q 1066 748 1065 774 q 1059 706 1066 722 q 1030 667 1053 692 q 992 620 1008 643 q 961 596 976 596 q 943 599 945 595 q 959 621 941 603 q 983 663 967 629 q 1004 713 999 697 q 999 735 1008 728 q 966 729 990 743 q 929 697 949 720 q 880 644 909 675 q 817 578 850 612 q 762 524 783 543 q 739 493 740 504 q 752 459 738 482 q 782 405 760 446 q 827 323 804 363 q 866 259 850 284 q 902 210 882 233 q 940 175 921 187 q 981 163 960 163 q 1012 171 997 163 q 1041 189 1027 178 q 1067 212 1055 199 q 1082 224 1078 226 q 1086 205 1086 223 q 1063 161 1086 186 q 1026 125 1040 137 q 991 99 1012 113 q 954 81 970 85 q 901 109 937 78 q 861 150 881 125 q 821 207 842 175 q 783 272 801 239 l 747 339 l 715 395 l 693 441 l 693 441 z "},"Y":{"ha":873,"x_min":30,"x_max":831,"o":"m 652 257 q 605 139 625 190 q 571 57 585 88 q 531 -11 557 26 q 474 -77 506 -48 q 407 -124 442 -106 q 342 -150 371 -142 q 287 -154 313 -157 q 234 -134 250 -151 q 214 -89 219 -118 q 243 -7 209 -60 q 301 60 270 34 q 365 112 332 87 q 424 153 399 136 q 488 192 448 169 q 551 231 528 216 q 584 260 574 245 q 606 318 594 275 q 625 390 618 362 l 643 470 q 650 514 654 513 q 623 485 646 515 q 532 367 574 420 q 455 281 490 314 q 379 220 421 248 q 307 200 336 193 q 264 245 278 208 q 257 345 250 283 q 272 487 264 411 q 277 610 279 564 q 258 701 274 661 q 214 756 241 741 q 146 763 186 772 q 101 744 126 758 q 62 712 76 729 q 43 695 49 695 q 34 700 38 694 q 39 720 30 705 q 69 756 49 739 q 115 789 90 774 q 166 808 140 803 q 214 811 193 813 q 266 792 241 807 q 307 755 290 777 q 334 691 325 734 q 342 596 343 648 q 332 488 340 555 l 321 401 q 316 335 316 357 q 319 294 315 313 q 334 267 323 275 q 387 288 345 259 q 434 326 415 309 q 489 382 453 342 q 547 449 524 421 q 603 521 570 477 q 642 580 635 565 q 657 616 649 595 l 676 667 q 704 742 696 724 q 723 773 711 760 q 759 801 735 787 q 797 813 783 815 q 816 804 811 812 q 804 772 821 795 q 774 725 785 744 q 753 678 764 707 q 729 603 742 649 q 704 503 716 557 l 675 374 l 655 298 q 700 326 680 313 q 735 349 720 338 q 763 373 751 359 q 773 397 774 386 l 768 418 q 783 430 770 425 q 814 415 796 435 q 830 383 831 395 q 819 361 828 370 q 789 341 810 352 q 743 315 768 330 l 713 296 l 652 257 l 652 257 m 569 207 q 464 141 504 168 q 389 79 425 113 q 327 13 354 45 q 286 -43 299 -19 q 277 -82 273 -68 q 293 -105 280 -96 q 332 -113 306 -115 q 390 -95 361 -112 q 446 -47 419 -78 q 501 34 473 -16 q 548 144 530 83 q 569 207 567 205 z "},"Z":{"ha":1064,"x_min":35,"x_max":1019,"o":"m 561 720 l 490 726 q 417 740 459 728 q 344 755 374 751 q 305 745 314 758 q 302 711 296 731 q 328 668 307 690 q 375 630 350 646 q 424 606 400 614 q 469 600 448 598 l 508 605 q 524 599 522 604 q 508 583 527 595 q 479 568 498 576 q 446 559 459 560 q 415 562 434 558 q 361 581 397 566 q 315 605 326 597 q 274 648 305 614 q 238 693 243 682 q 234 720 234 705 q 243 747 233 735 q 262 762 247 753 l 311 795 q 349 811 334 809 q 390 804 360 812 q 472 789 420 795 q 549 782 524 783 q 650 778 574 780 l 746 775 l 832 779 l 885 788 q 922 798 901 790 q 951 807 943 806 q 979 804 966 808 q 1004 791 991 799 q 1018 775 1017 783 q 1000 756 1019 767 l 970 743 q 922 708 948 732 q 879 664 895 684 q 828 601 862 644 l 782 542 l 727 468 l 667 388 l 624 328 l 590 282 q 610 256 591 269 q 671 225 630 242 l 732 197 q 783 178 762 184 q 837 164 804 171 q 884 159 869 157 q 916 173 900 161 q 936 207 932 184 q 934 260 940 229 q 912 309 928 286 q 901 337 897 332 q 929 328 905 341 q 958 298 939 322 l 983 264 q 995 204 994 244 q 977 138 995 165 q 936 105 964 120 q 863 92 907 90 q 790 106 836 94 q 705 136 745 119 q 620 177 665 153 l 542 218 q 458 160 490 180 q 384 121 426 139 q 296 95 341 102 q 229 88 251 88 q 172 93 203 87 q 114 111 140 99 q 63 158 88 123 q 36 223 37 193 q 40 278 35 254 q 64 334 47 308 q 111 385 81 361 q 178 422 142 410 q 249 434 214 435 q 309 421 271 433 q 375 397 346 410 l 413 378 q 462 349 422 374 l 509 321 q 539 310 530 309 q 567 336 549 311 q 613 398 585 361 q 676 481 641 436 q 745 569 711 527 q 811 650 779 612 q 853 696 844 688 l 912 756 q 799 728 835 734 q 721 720 762 722 q 654 718 680 717 l 561 720 m 458 277 l 359 333 q 270 373 310 360 q 203 383 229 385 q 133 354 162 380 q 95 307 103 329 q 86 258 87 286 q 100 209 86 231 q 162 162 117 180 q 258 147 207 144 q 327 158 285 148 q 397 182 368 168 q 455 218 425 197 q 482 252 484 240 q 458 277 479 264 z "},"[":{"ha":380,"x_min":78,"x_max":309,"o":"m 78 -153 l 78 935 l 309 935 l 309 882 l 164 882 l 164 -100 l 309 -100 l 309 -153 l 78 -153 z "},"\\":{"ha":730,"x_min":54,"x_max":675,"o":"m 665 -31 q 674 -58 675 -49 q 669 -73 674 -67 q 651 -72 663 -78 q 632 -53 640 -66 l 65 892 q 56 911 58 904 q 59 924 54 919 q 74 928 64 929 q 90 919 84 927 l 665 -31 z "},"]":{"ha":380,"x_min":64,"x_max":300,"o":"m 64 -139 l 64 -81 l 208 -81 l 208 896 l 64 896 l 64 949 l 300 949 l 300 -139 l 64 -139 z "},"^":{"ha":603,"x_min":133,"x_max":460,"o":"m 133 752 q 256 949 225 899 l 294 1010 l 460 752 l 446 751 l 298 877 l 153 755 l 133 752 z "},"_":{"ha":694,"x_min":56,"x_max":644,"o":"m 56 -108 l 56 -58 l 644 -58 l 644 -108 l 56 -108 z "},"`":{"ha":694,"x_min":291,"x_max":393,"o":"m 307 878 l 302 951 q 294 996 298 983 q 291 1012 291 1008 q 306 1030 291 1023 q 338 1039 320 1038 q 371 1030 357 1040 q 389 1011 385 1020 q 384 971 393 1002 q 374 910 379 956 l 364 839 l 357 768 l 353 715 q 347 667 348 675 q 341 651 347 658 q 331 646 336 644 q 322 655 325 646 q 318 680 319 663 l 313 726 l 312 781 l 307 878 z "},"a":{"ha":509,"x_min":29,"x_max":470,"o":"m 317 272 q 242 182 270 214 q 192 132 214 151 q 145 100 170 113 q 102 88 121 86 q 63 105 82 90 q 37 155 45 121 q 44 243 29 189 q 75 322 55 282 q 125 397 96 362 q 185 458 155 433 q 240 498 216 484 q 281 518 263 512 q 321 528 300 525 q 367 524 345 530 q 404 497 389 518 q 418 446 419 477 q 408 399 416 429 q 390 338 399 369 q 376 289 380 308 q 368 227 371 270 q 371 164 365 184 q 389 140 378 144 q 418 144 399 136 q 447 163 429 149 q 467 174 465 176 q 470 165 470 171 q 457 142 469 157 l 441 120 q 419 101 433 110 q 388 85 405 92 q 359 81 371 79 q 334 100 345 84 q 313 142 322 115 q 312 222 304 169 q 317 272 319 275 m 95 207 q 100 166 92 180 q 124 148 109 152 q 172 165 138 143 q 220 199 199 182 q 270 257 241 217 q 319 336 298 296 q 347 411 340 376 q 342 463 354 445 q 304 483 330 480 q 269 476 286 484 q 230 451 252 469 q 183 399 208 433 q 138 331 157 365 q 108 263 119 297 q 95 207 97 229 z "},"b":{"ha":416,"x_min":37,"x_max":377,"o":"m 115 399 q 149 450 134 431 q 187 492 163 469 q 234 523 210 515 q 279 528 257 530 q 347 482 320 521 q 375 395 374 444 q 362 296 377 347 q 331 224 349 252 q 289 174 313 197 q 240 134 264 151 q 183 102 215 117 q 124 87 152 88 q 80 94 96 85 q 55 123 64 104 q 41 169 45 142 q 37 228 37 195 q 41 292 37 258 q 53 360 46 326 q 71 432 60 394 l 108 565 l 125 627 l 144 701 l 156 767 l 159 781 l 184 811 l 235 840 l 254 833 l 245 806 l 217 741 l 195 680 l 175 616 q 138 491 140 500 l 115 399 l 115 399 m 305 281 q 312 351 309 302 q 302 433 315 399 q 261 474 289 467 q 199 456 233 481 q 153 405 178 441 q 115 340 127 368 q 96 280 102 311 q 92 224 91 250 q 107 164 92 186 q 157 140 123 142 q 197 146 176 138 q 241 169 218 154 q 280 215 263 184 q 305 281 298 245 z "},"c":{"ha":473,"x_min":37,"x_max":435,"o":"m 37 230 q 45 293 37 259 q 76 363 54 326 q 130 429 98 400 q 187 473 162 457 q 239 501 212 490 q 294 518 267 512 q 347 528 322 524 q 393 529 372 531 q 424 515 413 526 q 432 484 435 504 q 410 450 429 467 q 378 425 391 433 l 348 406 q 330 399 336 397 q 323 406 325 401 q 350 430 321 410 q 369 465 378 450 q 322 481 361 480 q 266 472 293 481 q 213 449 238 463 q 169 413 189 434 q 132 364 149 393 q 104 300 115 336 q 100 223 94 264 q 127 163 106 188 q 197 134 148 139 q 267 140 226 131 q 330 159 308 149 q 372 182 352 169 q 405 208 393 195 q 419 219 416 221 q 423 211 422 218 q 418 195 425 205 q 384 156 404 174 q 337 124 363 139 q 281 98 311 109 q 214 84 252 88 q 129 90 165 79 q 71 125 93 100 q 43 180 49 151 q 37 230 37 209 z "},"d":{"ha":599,"x_min":37,"x_max":564,"o":"m 425 656 l 446 742 q 457 771 449 758 q 492 814 466 783 q 525 841 519 846 q 532 817 532 836 q 518 776 531 802 q 500 731 506 750 l 481 661 q 449 512 465 602 q 429 368 434 421 q 424 256 423 315 q 430 189 424 217 q 449 152 436 161 q 481 144 461 142 q 515 154 499 144 l 541 170 q 560 173 556 176 q 549 150 564 169 q 523 123 536 134 q 485 101 509 111 q 446 89 460 90 q 427 88 433 87 q 390 121 403 92 q 371 189 376 151 q 368 255 365 226 l 372 333 q 331 259 350 291 q 283 194 312 227 q 229 141 254 161 q 172 103 203 121 q 111 87 140 85 q 60 105 76 87 q 41 156 45 123 q 42 224 37 189 q 60 295 46 254 q 89 368 74 336 q 127 429 104 399 q 178 481 151 459 q 243 520 206 504 q 311 530 280 536 q 356 507 340 524 q 379 460 371 490 q 390 427 387 431 q 397 490 392 422 q 425 656 402 558 m 347 393 q 336 446 347 422 q 298 481 326 470 q 233 477 271 492 q 181 440 205 465 q 141 379 158 415 q 114 308 124 342 q 97 231 103 273 q 103 172 91 189 q 132 152 115 155 q 173 158 149 147 q 227 189 197 168 q 275 231 256 210 q 315 286 293 251 q 342 344 336 320 q 347 393 347 368 z "},"e":{"ha":458,"x_min":35,"x_max":420,"o":"m 35 214 q 44 294 35 255 q 75 368 54 332 q 117 426 97 404 q 165 470 137 448 q 222 507 194 492 q 276 529 250 522 q 332 536 302 536 q 385 519 363 537 q 414 475 408 502 q 410 420 420 449 q 367 356 397 387 q 299 307 336 326 q 207 263 262 288 q 127 236 152 239 q 98 225 103 232 q 96 203 94 218 q 109 171 98 187 q 150 145 119 154 q 219 139 181 136 q 272 146 250 140 q 314 161 295 152 l 339 173 q 369 188 360 182 q 381 191 378 193 q 380 177 384 189 q 361 155 377 167 l 340 139 q 290 112 322 126 q 234 90 258 98 q 176 84 209 83 q 77 115 106 85 q 41 168 47 144 q 35 214 35 193 m 134 267 q 192 289 152 271 q 274 338 231 307 q 331 396 316 368 q 346 440 345 424 q 337 471 346 456 q 296 490 328 486 q 239 478 271 492 q 182 443 207 465 q 143 396 158 420 q 115 345 127 372 q 100 295 103 317 q 103 266 96 273 q 134 267 110 259 z "},"f":{"ha":676,"x_min":32,"x_max":642,"o":"m 314 438 q 254 403 286 422 q 207 376 222 384 q 157 356 191 368 q 105 341 123 344 q 65 338 86 338 q 38 342 45 337 q 33 353 32 348 q 50 356 33 355 q 94 368 68 356 l 149 393 q 220 433 168 402 q 280 471 272 465 l 334 511 q 351 565 345 547 l 378 651 q 410 734 395 705 q 446 783 425 763 q 495 814 467 802 q 558 828 522 827 q 617 808 595 829 q 640 756 639 787 q 627 690 642 726 q 594 631 613 655 q 525 570 575 607 q 446 517 475 534 l 376 476 q 348 382 363 433 q 321 289 332 330 q 300 198 310 247 q 281 89 290 149 q 270 -4 271 28 q 272 -57 268 -37 q 289 -86 277 -78 q 337 -73 300 -95 q 391 -29 364 -58 q 438 33 417 -1 q 471 103 458 66 q 488 170 484 140 q 488 228 492 205 l 483 256 q 453 241 466 246 q 417 235 439 235 q 365 250 392 233 q 351 311 337 266 q 365 335 353 321 q 397 359 376 349 q 437 368 418 369 q 479 353 464 366 l 510 328 q 532 336 522 332 q 562 359 541 341 q 599 396 583 376 q 618 416 614 416 q 614 390 621 415 q 597 350 606 366 q 573 320 587 334 q 543 294 559 306 l 526 282 q 538 248 533 266 q 539 186 544 229 q 523 111 535 152 q 492 33 511 69 q 449 -37 474 -3 q 388 -99 425 -71 q 313 -144 352 -127 q 259 -154 274 -161 q 230 -117 243 -148 q 215 -59 216 -87 q 220 14 213 -32 q 239 134 229 80 q 258 224 249 188 l 288 340 l 314 438 l 314 438 m 391 537 q 456 576 429 559 q 522 619 484 593 q 584 675 559 646 q 609 730 609 704 q 596 771 610 755 q 547 783 582 787 q 493 757 518 779 q 452 707 468 736 q 414 607 435 677 q 391 537 392 537 m 474 302 q 456 328 463 321 q 433 342 448 336 q 396 334 417 349 q 385 299 375 319 q 422 281 395 280 q 456 291 439 281 q 474 302 473 302 z "},"g":{"ha":544,"x_min":34,"x_max":503,"o":"m 425 196 q 461 218 444 205 q 488 232 478 230 q 500 232 498 235 q 496 219 503 230 q 470 186 479 193 q 442 167 462 178 q 415 147 422 156 q 397 110 408 138 q 374 53 387 82 q 337 -19 361 23 q 280 -92 313 -62 q 219 -135 248 -123 q 158 -154 190 -147 q 102 -156 126 -161 q 71 -132 79 -151 q 79 -79 63 -113 q 119 -18 92 -52 q 182 47 146 16 q 253 100 218 78 l 321 140 q 357 173 348 158 q 372 214 366 187 q 370 250 377 240 q 313 234 363 260 l 243 197 q 185 169 215 182 q 133 149 156 155 q 88 145 111 143 q 50 159 64 146 q 35 204 35 172 q 58 279 34 236 q 89 328 70 300 q 124 374 109 355 q 166 419 139 393 q 218 465 194 446 q 271 499 242 484 q 325 522 300 515 q 381 528 350 528 q 420 518 407 528 q 435 491 434 508 q 427 457 436 473 q 374 405 411 427 l 331 380 q 308 371 313 368 q 302 379 303 374 q 317 393 301 383 q 341 414 330 401 q 362 439 353 426 q 368 463 372 452 q 343 480 363 475 q 287 465 323 485 q 232 430 255 448 q 187 387 209 412 q 145 330 165 361 q 112 267 124 298 q 107 221 99 235 q 136 203 116 206 q 182 211 150 199 q 238 233 214 222 q 301 263 261 243 q 360 294 340 283 q 390 305 379 305 q 417 290 404 304 q 435 264 431 277 q 431 221 439 248 q 425 196 422 195 m 341 106 q 308 96 336 110 q 242 52 279 82 q 194 9 205 21 q 161 -36 183 -3 q 137 -89 139 -68 q 141 -115 134 -109 q 161 -119 148 -120 q 212 -102 182 -119 q 264 -60 243 -85 q 307 4 286 -35 q 335 74 328 44 q 341 106 343 104 z "},"h":{"ha":575,"x_min":35,"x_max":536,"o":"m 125 494 l 142 588 l 146 610 q 156 671 148 618 q 165 729 164 725 q 161 774 168 755 q 157 798 155 793 q 166 808 159 802 q 184 827 173 815 q 208 845 195 838 q 228 848 221 852 q 235 828 235 844 q 228 784 235 812 q 212 708 220 756 l 196 616 l 167 448 l 144 328 q 176 379 164 363 q 218 426 188 395 q 269 477 248 458 q 312 512 290 497 q 354 532 334 526 q 400 531 374 538 q 437 507 424 524 q 449 473 450 490 q 440 449 448 469 q 428 395 431 428 l 416 305 q 411 244 412 271 q 414 190 410 217 q 426 158 418 163 q 455 161 434 153 q 484 177 470 167 q 506 200 497 188 q 523 216 515 212 q 533 217 530 220 q 532 203 536 214 q 521 179 528 191 q 500 150 514 167 q 470 117 487 132 q 432 92 452 101 q 399 86 412 83 q 371 107 380 90 q 357 151 361 125 q 354 214 353 177 q 359 278 354 239 l 366 335 q 375 406 371 384 q 377 443 380 429 q 363 466 375 458 q 320 458 352 474 q 263 419 289 443 q 209 361 238 395 q 165 308 179 327 q 145 275 151 288 q 131 235 140 262 q 121 199 122 207 l 111 149 q 98 113 106 130 q 65 87 89 96 q 38 85 41 79 q 37 104 35 92 l 47 138 l 64 205 q 90 310 85 286 q 107 396 96 334 l 125 494 z "},"i":{"ha":338,"x_min":33,"x_max":302,"o":"m 300 208 q 296 191 302 206 q 272 161 290 176 q 236 135 253 146 q 195 111 219 123 q 141 90 171 99 q 92 83 111 80 q 63 98 75 86 q 44 129 51 109 q 35 172 37 149 q 41 227 33 195 q 64 294 41 228 l 96 397 q 111 452 109 436 l 115 484 l 134 504 l 165 528 l 186 537 l 204 542 l 222 532 l 207 503 l 182 467 l 162 422 q 134 348 146 384 q 112 271 122 313 q 98 203 101 230 q 106 160 96 176 q 136 142 116 145 q 169 146 145 141 q 210 157 192 151 q 243 175 227 163 l 278 199 q 300 208 298 209 m 142 684 l 147 701 l 161 723 l 202 747 l 221 741 l 236 713 l 243 683 l 216 651 l 180 635 l 161 644 l 149 661 l 142 684 l 142 684 z "},"j":{"ha":491,"x_min":28,"x_max":452,"o":"m 259 246 q 266 274 264 269 q 277 337 267 280 q 290 421 288 394 q 279 460 293 449 q 231 450 264 471 q 203 424 220 444 q 175 388 185 405 q 169 319 164 372 q 161 299 168 307 q 137 279 155 290 q 109 269 120 268 q 95 279 98 271 q 102 308 92 288 q 112 339 102 309 q 143 404 121 368 q 188 456 165 439 q 237 493 210 474 q 279 518 264 511 q 306 525 293 525 q 337 515 313 524 q 363 499 360 506 q 361 475 367 492 l 351 448 q 339 401 345 433 q 331 351 334 369 l 322 295 q 370 333 353 320 q 398 354 386 346 q 427 369 410 363 q 448 372 444 376 q 441 354 452 368 q 426 340 437 349 q 405 322 414 332 q 377 294 396 313 q 336 251 357 274 q 308 216 315 229 q 296 171 302 204 q 279 88 290 138 q 257 -2 269 38 q 227 -78 246 -42 q 178 -133 207 -113 q 118 -154 149 -153 q 62 -132 87 -155 q 33 -72 37 -109 q 45 5 28 -34 q 79 62 56 33 q 134 124 101 91 l 198 186 l 259 246 l 259 246 m 244 170 q 185 111 211 138 q 130 53 159 85 q 84 -5 100 20 q 65 -60 68 -31 q 77 -104 62 -90 q 116 -115 91 -118 q 176 -69 153 -112 q 214 28 198 -26 q 236 126 229 83 q 244 170 242 169 m 258 684 q 263 700 258 688 q 283 729 267 711 q 320 747 299 748 q 338 740 330 747 q 354 713 346 734 q 360 680 362 692 q 336 651 359 668 q 298 635 313 634 q 277 643 286 636 q 263 662 269 650 q 258 684 258 675 z "},"k":{"ha":559,"x_min":35,"x_max":517,"o":"m 141 594 l 151 635 l 159 684 l 167 721 q 168 746 168 734 q 163 768 168 755 q 159 783 159 780 q 173 800 160 789 q 193 817 185 811 q 222 830 201 823 q 245 831 242 837 q 248 816 249 825 q 239 786 246 807 q 224 727 232 765 l 208 656 l 182 547 l 165 462 l 155 429 q 199 467 182 454 q 250 499 217 481 q 313 526 283 517 q 370 532 343 534 q 419 515 396 530 q 451 480 441 501 q 459 432 460 459 q 441 369 457 399 q 405 323 426 340 q 355 294 385 307 q 309 283 325 281 q 290 284 293 286 q 312 252 286 283 q 334 219 316 246 q 368 173 352 192 q 397 147 385 153 q 428 140 410 140 q 455 144 442 140 q 477 153 467 148 q 498 167 486 157 q 514 174 510 177 q 513 159 517 171 q 497 139 511 151 l 474 116 q 448 98 464 106 q 417 86 433 90 q 389 83 402 81 q 357 97 373 85 q 321 137 341 108 l 295 176 q 245 255 261 225 q 214 294 229 285 q 176 302 199 304 q 138 286 148 298 q 125 265 128 273 q 116 214 123 256 q 109 165 109 172 l 109 129 q 92 101 106 115 q 60 82 79 87 q 38 84 41 78 q 39 106 35 91 q 48 142 43 121 q 60 195 54 163 q 78 294 66 227 q 93 374 90 361 q 113 463 96 387 l 141 594 m 141 356 q 137 321 130 329 l 189 345 q 222 349 205 352 q 242 341 233 347 l 260 326 q 325 310 295 299 q 375 355 355 321 q 394 419 395 388 q 373 469 393 451 q 313 481 353 486 q 246 458 286 478 q 179 411 205 439 q 141 356 152 383 z "},"l":{"ha":365,"x_min":37,"x_max":328,"o":"m 264 837 l 277 809 l 264 759 l 236 696 l 203 623 l 168 524 q 128 403 138 439 q 106 317 117 368 q 96 231 95 267 q 117 159 96 176 q 168 140 137 142 q 210 145 189 138 q 249 168 231 152 q 279 204 267 184 q 301 242 292 224 q 314 261 310 261 q 323 244 318 262 q 314 197 328 227 q 285 146 299 166 q 243 111 271 125 q 181 88 215 96 q 127 83 146 80 q 74 109 94 87 q 46 162 55 131 q 37 225 37 193 q 49 306 37 252 q 71 395 61 360 q 108 507 81 431 l 145 613 l 174 701 l 185 741 l 213 795 l 240 819 l 264 837 l 264 837 z "},"m":{"ha":852,"x_min":33,"x_max":809,"o":"m 663 208 l 664 289 q 669 365 664 329 q 672 426 673 400 q 660 454 671 451 q 634 450 648 457 q 595 420 614 441 q 565 382 576 399 q 504 281 554 365 l 459 208 q 428 156 438 171 q 401 126 417 141 q 375 106 385 111 q 353 103 364 101 q 336 112 342 104 q 330 130 330 119 q 335 149 330 136 q 351 203 340 162 l 359 237 l 378 318 q 396 413 397 389 q 381 449 394 437 q 321 411 369 460 q 280 362 305 395 q 247 315 256 329 l 214 260 q 181 212 210 254 q 141 143 153 170 q 123 107 130 117 q 99 89 116 98 q 68 84 83 79 q 51 100 53 88 q 60 131 50 113 q 80 174 71 149 q 96 227 90 199 q 112 299 103 254 q 127 374 121 345 q 133 431 132 404 q 126 463 134 458 q 94 452 119 467 q 61 427 82 444 q 36 415 40 410 q 36 433 33 420 q 52 456 39 444 l 91 488 l 127 519 q 171 536 150 537 q 200 514 192 534 q 200 464 209 494 l 182 407 q 171 354 180 399 q 154 288 161 309 q 146 254 146 267 q 149 240 145 242 q 165 251 153 239 q 182 272 172 258 q 208 309 193 286 l 243 362 q 290 419 260 387 q 337 467 319 452 q 379 496 355 481 q 423 512 404 510 q 452 507 441 514 q 464 481 463 500 q 458 438 465 461 l 444 394 l 431 342 l 416 286 l 406 239 q 399 203 398 215 q 406 187 400 191 q 430 211 412 183 q 458 258 443 231 q 499 334 474 285 q 539 407 525 384 q 577 455 554 429 q 618 494 600 481 q 657 516 636 507 q 697 525 677 526 q 728 513 716 525 q 740 477 740 501 q 732 440 739 474 q 723 353 724 406 l 720 288 q 718 225 718 260 q 725 177 718 191 q 747 160 733 163 q 769 162 755 157 q 791 181 782 166 q 804 196 800 197 q 808 184 808 196 q 805 163 809 173 q 783 130 795 143 q 749 100 772 117 q 717 85 726 84 q 690 110 703 87 q 669 154 676 133 q 663 208 662 176 z "},"n":{"ha":612,"x_min":37,"x_max":568,"o":"m 62 134 l 80 184 q 104 262 85 197 q 131 351 124 327 q 144 396 137 376 q 151 434 151 417 q 143 455 151 451 q 117 453 136 460 q 86 438 102 447 q 58 412 71 429 q 41 397 45 395 q 37 410 37 399 q 43 433 37 421 q 62 456 51 446 q 97 481 73 466 q 141 511 121 496 q 173 529 161 525 q 197 530 185 533 q 217 504 210 526 q 222 470 224 482 q 211 439 221 463 q 193 387 201 415 q 176 331 184 358 l 157 274 q 184 307 174 296 q 224 351 195 319 q 274 402 254 382 q 323 446 294 421 l 376 491 q 417 517 397 509 q 456 519 438 525 q 487 493 473 514 q 499 454 500 473 q 489 420 498 448 q 478 361 480 393 l 472 269 q 469 210 469 229 q 473 174 469 191 q 487 152 477 157 q 515 150 496 146 l 548 156 q 565 152 563 157 q 555 135 568 147 q 522 112 547 127 q 479 87 496 96 q 446 86 462 78 q 425 116 433 92 q 413 163 416 139 q 412 218 410 188 q 416 284 412 229 q 424 369 420 340 q 428 415 429 397 q 418 438 427 432 q 380 431 410 445 q 338 407 356 420 q 290 370 320 394 q 243 330 260 346 q 195 277 226 315 q 152 217 163 239 q 134 162 141 195 q 120 119 127 130 q 95 96 114 109 q 64 83 77 82 q 47 95 52 84 l 62 134 l 62 134 z "},"o":{"ha":486,"x_min":37,"x_max":450,"o":"m 141 489 q 270 531 200 530 q 385 489 339 533 q 440 390 431 444 q 435 281 450 336 q 398 200 423 238 q 345 138 373 161 q 277 97 317 115 q 196 82 237 79 q 118 109 152 85 q 67 160 84 133 q 44 219 51 186 q 38 296 37 251 q 44 350 39 318 q 81 425 49 381 q 141 489 113 469 m 198 119 q 254 129 220 116 q 314 179 287 142 q 356 254 340 216 q 374 348 372 292 q 352 447 376 404 q 280 496 329 491 q 188 471 232 502 q 134 410 156 448 q 104 322 112 373 q 108 222 97 271 q 145 147 119 171 q 198 119 171 123 z "},"p":{"ha":578,"x_min":33,"x_max":537,"o":"m 92 -73 l 107 -9 l 116 27 q 136 119 134 99 q 136 149 138 140 q 115 183 134 158 q 98 214 95 208 q 111 221 100 220 q 125 219 111 221 q 151 226 140 216 q 164 263 160 233 q 171 317 168 293 q 175 347 174 341 q 180 395 176 353 q 183 456 184 436 q 174 482 183 475 q 144 480 165 488 q 111 454 125 472 q 91 424 96 436 q 87 397 86 411 l 92 370 q 83 336 94 352 q 60 319 73 319 q 40 325 47 318 q 37 364 33 332 q 42 390 39 380 q 60 425 44 399 q 92 470 77 450 q 130 506 107 489 l 163 529 q 185 544 177 541 q 212 538 193 547 q 237 516 227 530 q 247 483 246 501 q 239 423 248 465 l 233 383 l 223 326 q 280 414 258 387 q 330 468 302 442 q 380 506 357 494 q 421 524 402 519 q 468 525 439 528 q 516 487 496 522 q 535 400 537 452 q 514 291 532 335 q 473 211 496 246 q 429 156 450 176 q 384 121 407 136 q 330 96 360 106 q 275 85 299 86 q 231 90 247 83 q 202 109 215 96 q 186 122 189 122 q 180 88 182 123 q 169 26 178 79 l 157 -45 l 148 -81 q 134 -131 136 -125 q 123 -150 132 -137 q 105 -162 114 -163 q 92 -143 97 -162 q 88 -109 86 -125 l 92 -73 m 207 177 q 232 154 210 169 q 287 138 255 140 q 345 146 315 137 q 396 172 375 156 q 436 224 417 189 q 463 294 454 260 q 472 376 471 328 q 462 441 474 423 q 428 467 450 459 q 357 442 406 475 q 301 390 324 419 q 258 329 277 361 q 228 271 239 296 q 210 215 216 245 q 207 177 203 184 z "},"q":{"ha":564,"x_min":31,"x_max":523,"o":"m 437 475 q 451 512 444 498 q 474 534 458 526 q 500 538 489 543 q 512 524 505 536 q 522 509 520 513 q 513 488 523 505 q 497 453 505 475 q 485 415 489 430 q 464 331 481 401 l 430 203 l 395 60 q 382 5 384 16 l 368 -60 q 367 -91 362 -84 q 384 -97 372 -97 q 404 -93 388 -98 q 430 -82 419 -88 q 443 -77 440 -75 q 448 -84 446 -79 q 441 -97 449 -89 q 418 -116 433 -106 q 385 -137 404 -125 q 354 -154 366 -149 q 334 -159 342 -159 q 314 -150 323 -158 q 303 -115 305 -141 q 309 -62 302 -88 l 326 7 l 347 92 l 372 192 q 385 241 388 241 q 363 219 383 241 q 309 172 344 197 q 256 134 275 146 q 203 107 237 121 q 136 90 170 93 q 76 100 100 87 q 41 144 52 113 q 41 224 31 176 q 64 296 48 262 q 110 374 79 331 q 166 444 140 418 q 227 490 193 469 q 291 521 261 511 q 349 529 321 531 q 410 504 393 524 l 437 475 l 437 475 m 410 401 q 381 446 405 425 q 315 470 357 467 q 237 454 271 472 q 174 397 203 436 q 127 318 145 357 q 101 236 110 279 q 106 173 92 193 q 150 151 120 154 q 194 155 168 148 q 244 172 220 161 q 300 203 269 182 q 354 248 332 224 q 388 301 375 271 q 407 362 401 332 q 410 401 412 393 z "},"r":{"ha":426,"x_min":35,"x_max":384,"o":"m 273 138 q 315 145 296 141 q 351 161 334 149 q 374 170 369 174 q 380 161 379 167 q 362 144 381 155 l 326 118 q 283 98 312 109 q 241 83 255 87 q 220 81 227 80 q 186 97 198 81 q 173 130 175 113 q 173 168 171 148 q 189 250 176 216 q 222 320 201 283 l 249 368 q 282 419 265 397 q 295 447 298 440 q 270 456 291 453 q 223 456 248 459 q 182 447 200 453 q 154 434 163 441 q 131 404 144 426 q 104 355 118 382 q 70 290 90 328 q 45 255 51 252 q 38 267 40 259 q 38 288 35 275 q 50 322 41 301 l 67 365 q 92 427 85 413 q 97 446 100 440 q 81 452 93 451 l 59 454 q 43 468 41 458 q 52 478 43 473 q 80 486 60 483 q 106 491 100 488 q 127 509 113 494 l 157 544 q 189 565 180 570 q 198 547 198 559 q 188 526 197 540 l 175 506 q 166 489 165 493 q 196 488 166 484 q 254 493 233 492 q 306 503 276 494 q 340 511 336 512 q 363 496 349 509 q 381 468 378 484 q 376 442 384 451 q 364 433 375 441 q 338 404 353 425 l 301 356 q 257 278 275 320 q 231 207 239 236 q 231 161 224 178 q 248 140 239 144 q 273 138 257 136 z "},"s":{"ha":476,"x_min":36,"x_max":431,"o":"m 186 139 q 249 143 218 138 q 304 170 279 149 q 328 216 328 191 q 318 243 328 231 q 288 267 309 256 q 222 284 267 277 q 148 300 176 292 q 101 324 119 308 q 78 354 82 340 q 77 382 75 368 q 103 431 81 408 q 155 470 125 453 q 217 501 184 487 q 279 522 249 515 q 345 529 309 529 q 391 523 373 528 q 420 506 410 517 q 431 472 431 496 q 415 424 431 447 q 384 391 399 401 q 355 375 370 380 q 333 370 340 370 q 324 374 326 370 q 340 391 322 378 q 361 421 354 401 q 366 450 368 440 q 348 471 363 459 q 291 481 334 484 q 219 466 251 479 q 164 426 187 454 q 143 381 140 397 q 165 350 145 363 q 232 328 185 336 q 311 312 279 320 q 365 283 343 303 q 393 243 387 264 q 397 207 399 222 q 358 149 391 178 q 302 111 325 121 q 244 94 279 101 q 179 85 210 87 q 94 93 130 83 q 47 116 59 102 q 37 147 36 130 q 56 186 38 157 q 88 220 74 215 q 106 222 102 225 q 100 202 109 218 q 92 177 92 186 q 99 155 92 161 q 129 144 106 149 q 186 139 151 140 z "},"t":{"ha":441,"x_min":31,"x_max":401,"o":"m 218 420 l 197 340 q 180 267 189 311 q 171 199 172 222 q 179 164 171 175 q 210 151 186 153 q 257 161 230 149 q 299 185 283 174 q 327 213 315 197 q 345 243 340 229 q 353 257 349 256 q 359 245 356 257 q 356 218 362 233 q 340 182 347 197 q 317 153 333 168 q 282 123 302 137 q 236 98 262 110 q 191 82 211 85 q 154 88 171 79 q 127 117 139 96 q 113 169 115 139 q 117 234 111 198 q 133 306 121 256 q 151 378 144 356 q 169 431 157 401 q 175 469 180 461 q 123 472 170 477 l 85 469 q 46 465 56 464 q 34 472 37 467 q 35 488 31 477 q 47 505 39 497 q 73 520 55 512 q 106 530 91 528 q 146 524 113 530 q 190 528 180 518 q 202 552 195 532 q 218 597 208 572 q 235 638 228 623 q 250 662 242 654 l 270 673 l 292 683 l 311 676 l 302 642 l 288 623 l 268 573 q 255 530 250 536 q 268 520 259 523 q 293 522 275 517 q 338 527 311 526 q 379 532 365 529 q 397 531 393 535 q 393 510 401 528 q 373 486 387 496 q 349 474 359 476 q 309 471 338 471 l 267 470 q 236 465 245 470 q 218 420 228 460 z "},"u":{"ha":633,"x_min":33,"x_max":593,"o":"m 74 277 l 108 355 l 131 414 q 139 450 145 442 q 110 449 133 458 l 96 442 q 80 443 85 439 q 94 465 75 446 q 121 484 105 477 l 155 498 q 197 525 172 505 q 232 539 221 545 q 243 526 242 534 q 238 508 243 517 q 209 450 232 498 l 178 387 q 151 324 164 357 q 123 253 137 292 q 103 191 109 214 q 106 156 98 167 q 147 153 113 146 q 219 188 174 158 q 286 234 264 217 q 332 273 309 250 q 372 314 355 295 q 396 346 388 332 q 414 386 404 360 q 435 434 425 411 q 454 470 446 458 q 477 500 462 482 q 502 524 493 519 q 518 527 510 528 q 533 505 527 526 q 529 463 540 484 q 510 438 525 456 q 484 400 494 420 q 466 354 473 381 q 454 292 458 326 q 453 225 451 258 q 466 169 455 187 q 490 143 476 151 q 519 136 504 136 q 560 150 536 134 q 589 159 585 165 q 583 136 593 154 q 558 115 578 126 l 524 94 q 495 80 509 84 q 470 79 481 77 q 433 97 448 81 q 411 131 418 113 q 399 175 404 149 q 395 225 395 201 q 400 271 395 240 l 405 305 q 371 268 382 280 q 329 224 360 256 q 276 173 298 193 q 224 133 253 152 q 156 97 195 114 q 89 84 117 80 q 47 105 60 88 q 35 161 33 122 q 45 210 37 186 l 74 277 l 74 277 z "},"v":{"ha":499,"x_min":35,"x_max":460,"o":"m 172 456 l 154 391 q 139 301 147 368 q 135 195 130 234 q 163 144 140 156 q 208 136 185 132 q 256 154 230 138 q 313 205 283 170 q 361 275 344 241 q 388 346 379 309 q 397 398 397 384 q 391 424 397 414 l 377 443 q 372 465 371 452 q 378 483 373 475 q 396 507 382 491 q 418 526 409 524 q 440 515 427 528 q 457 479 454 503 q 460 441 460 455 q 448 377 459 422 q 429 311 436 332 q 406 264 421 290 q 369 212 391 239 q 309 156 347 185 q 246 115 271 127 q 188 91 221 102 q 142 82 154 80 q 101 113 117 85 q 81 161 85 140 q 78 218 77 182 l 79 259 q 89 333 80 283 q 102 416 98 382 q 99 453 106 450 q 79 450 92 456 q 57 428 71 446 q 40 414 44 411 q 35 427 35 417 q 41 448 35 436 q 70 483 50 463 q 102 512 90 502 q 126 528 115 522 q 146 534 138 534 q 163 523 157 532 q 172 490 169 513 q 172 456 174 466 z "},"w":{"ha":727,"x_min":39,"x_max":684,"o":"m 57 160 l 92 231 q 120 298 98 245 l 149 368 q 162 410 155 387 q 165 438 170 433 q 134 433 157 444 q 103 422 111 422 q 94 429 96 423 q 104 446 93 435 q 144 480 127 469 q 162 492 161 492 l 196 523 q 218 528 208 530 q 235 516 228 526 q 238 479 241 507 q 230 437 235 452 l 195 344 l 153 243 q 129 184 136 203 q 125 164 121 166 q 149 176 130 163 q 189 210 174 193 q 231 261 203 227 q 277 321 259 296 q 300 351 295 345 l 361 420 q 397 443 380 442 q 426 442 414 444 q 448 432 437 441 q 458 401 458 424 q 449 367 457 395 q 441 288 440 338 q 445 219 442 250 q 460 166 448 187 q 490 142 473 146 q 536 160 508 138 q 575 202 557 176 q 607 259 593 227 q 631 339 621 290 q 641 408 642 388 q 626 442 638 433 l 610 450 q 599 469 602 456 q 613 509 596 483 q 640 536 629 536 q 661 527 650 536 q 678 476 673 515 q 683 406 683 438 q 674 330 684 374 q 651 261 665 293 q 617 201 637 229 q 576 149 598 172 q 515 100 553 126 q 453 81 477 75 q 414 110 429 85 q 396 160 399 135 q 388 234 392 184 q 389 321 385 283 q 391 372 393 359 q 382 390 389 385 q 346 355 376 395 l 309 313 q 275 267 304 307 q 222 198 247 227 q 170 145 197 170 q 124 110 143 120 q 86 93 105 99 q 56 91 67 87 q 44 98 49 92 q 39 110 39 103 q 41 126 39 117 q 57 160 44 134 z "},"x":{"ha":638,"x_min":34,"x_max":597,"o":"m 288 329 q 280 366 290 342 q 252 421 271 390 q 216 460 233 453 q 175 465 198 467 q 141 445 159 462 q 119 431 122 429 q 114 443 115 434 q 129 467 113 451 l 154 494 q 188 519 168 508 q 224 528 208 530 q 253 511 239 525 q 289 465 268 497 q 319 409 309 433 q 336 385 330 385 q 353 401 340 385 q 397 444 366 416 q 444 485 429 472 q 478 512 458 498 q 519 536 498 527 q 560 543 540 545 q 584 534 570 542 q 597 505 597 527 q 589 462 597 483 q 570 426 581 439 q 528 394 559 412 q 486 370 496 376 q 464 365 476 363 q 452 369 452 366 q 463 380 452 373 q 481 393 473 387 q 504 413 490 399 q 527 445 518 427 q 530 472 536 463 q 486 464 524 481 q 446 438 466 454 q 400 401 426 423 q 363 362 374 378 q 350 334 352 347 q 363 288 349 321 q 380 243 368 275 q 402 189 392 210 q 426 160 413 168 q 457 151 439 152 q 486 151 471 149 q 516 161 500 154 q 543 178 532 168 q 558 187 555 189 q 561 174 562 185 q 546 150 559 165 q 524 127 532 134 l 482 100 q 440 79 456 82 q 394 102 424 75 q 361 142 372 120 q 337 198 350 165 q 318 255 325 231 q 304 280 311 279 q 279 254 298 282 q 232 189 255 218 q 194 134 209 159 q 174 102 180 110 q 155 90 168 95 q 117 88 142 84 q 70 101 84 93 q 45 123 56 109 q 37 139 34 137 q 57 136 41 142 q 75 131 73 131 q 110 131 93 126 q 140 143 127 135 q 170 169 153 151 q 213 222 186 187 q 253 274 239 256 q 277 308 267 291 q 288 329 287 325 z "},"y":{"ha":554,"x_min":34,"x_max":515,"o":"m 381 212 q 425 248 409 237 l 461 271 q 496 289 481 284 q 513 290 511 294 q 508 277 515 286 q 495 266 505 273 q 460 235 485 259 l 433 211 l 399 174 q 374 145 380 155 q 363 116 368 136 l 351 59 q 329 -15 345 28 q 296 -85 313 -58 q 250 -134 279 -113 q 182 -157 220 -155 q 135 -148 154 -159 q 110 -111 115 -136 q 116 -60 105 -87 q 148 -9 124 -40 q 198 49 172 22 l 258 106 l 317 164 q 334 230 331 218 l 345 288 q 320 261 326 268 q 297 234 313 254 q 244 173 281 215 q 184 111 207 131 q 146 95 161 91 q 122 116 132 98 q 106 166 112 135 q 102 225 101 198 l 104 333 l 107 380 q 105 432 109 408 q 93 460 101 455 q 60 452 83 465 q 35 441 37 439 q 34 452 34 444 q 57 481 35 462 q 92 515 80 500 q 112 531 104 529 q 129 532 119 534 q 157 506 142 528 q 173 473 173 484 q 165 432 174 462 q 158 372 161 415 l 155 329 q 151 248 151 282 q 154 202 151 225 q 166 171 157 178 q 220 201 176 163 q 276 252 239 217 q 329 308 313 286 q 355 353 344 329 q 374 414 366 378 q 387 460 382 450 q 412 496 392 470 q 445 528 433 523 q 461 531 456 534 q 462 505 465 528 l 457 475 l 435 418 l 402 312 l 381 212 m 306 94 q 242 32 273 62 q 193 -20 211 2 q 166 -55 175 -41 q 151 -86 157 -69 q 151 -117 144 -104 q 178 -131 158 -130 q 220 -113 197 -133 q 256 -65 240 -96 q 279 -13 272 -35 q 296 52 287 10 q 306 94 305 93 z "},"z":{"ha":555,"x_min":35,"x_max":516,"o":"m 143 271 l 163 294 q 205 332 166 297 l 279 405 q 314 430 291 414 q 336 452 338 446 q 314 459 334 456 q 280 463 295 463 q 229 460 256 464 q 178 453 202 457 q 144 450 155 450 q 110 455 128 450 q 87 465 92 459 q 78 479 81 470 q 101 503 75 488 l 121 511 l 138 519 q 157 524 148 524 q 191 515 162 524 q 262 506 220 505 q 331 507 295 506 q 388 515 367 509 l 418 524 q 455 520 441 528 q 474 502 469 513 q 471 481 478 492 q 452 470 467 476 l 427 459 q 401 448 406 451 l 347 408 q 292 363 325 392 q 233 309 259 335 l 191 266 q 149 219 165 242 q 142 191 134 195 q 172 199 145 189 q 235 208 199 210 q 281 200 258 205 q 326 183 303 195 l 369 160 q 421 147 394 149 q 458 149 442 146 q 492 159 473 153 q 513 162 510 166 q 511 147 516 157 q 483 121 506 136 l 450 97 q 410 81 427 81 q 376 87 392 79 q 333 115 360 95 q 282 146 306 135 q 223 159 259 157 q 159 154 185 161 q 122 139 133 146 q 92 116 111 132 q 60 94 73 100 q 42 91 47 87 q 36 106 38 94 q 52 149 35 117 q 79 193 69 180 l 143 271 z "},"{":{"ha":473,"x_min":96,"x_max":385,"o":"m 96 405 l 96 431 q 135 446 116 437 q 172 469 153 454 q 200 506 190 484 q 213 557 211 527 q 210 627 214 587 q 199 691 205 655 l 189 757 l 191 808 l 204 858 l 238 910 l 281 946 l 336 968 l 385 978 l 385 960 l 330 945 l 296 923 l 267 887 l 252 838 l 254 757 l 263 694 q 269 614 270 642 q 262 566 268 591 q 242 516 256 541 q 210 473 229 491 q 170 445 191 456 l 119 418 q 190 382 167 397 q 227 347 212 366 q 250 306 241 328 q 262 260 259 284 q 266 213 266 237 q 264 162 267 190 q 259 106 263 146 q 252 37 255 65 q 252 -9 249 9 q 262 -50 254 -32 q 284 -81 271 -68 q 312 -104 298 -94 q 334 -121 327 -113 q 339 -134 341 -128 q 325 -139 336 -139 q 291 -126 313 -140 q 257 -105 268 -113 q 232 -79 247 -96 q 208 -47 217 -62 q 194 -9 199 -31 q 189 45 189 14 q 197 124 189 74 l 210 217 q 215 274 215 252 q 200 338 214 313 q 177 368 186 364 l 96 405 l 96 405 z "},"|":{"ha":330,"x_min":142,"x_max":193,"o":"m 142 -276 l 142 1108 l 193 1108 l 193 -276 l 142 -276 z "},"}":{"ha":473,"x_min":97,"x_max":387,"o":"m 387 406 q 308 372 328 388 q 278 335 289 355 q 266 283 267 314 q 271 218 266 252 l 286 125 q 292 46 292 79 q 287 -9 292 14 q 273 -45 281 -30 q 249 -78 264 -60 q 227 -101 233 -96 q 193 -123 220 -106 q 155 -139 166 -139 q 142 -133 144 -138 q 150 -117 140 -128 q 170 -101 155 -111 q 196 -81 184 -92 q 218 -50 208 -70 q 230 -11 228 -29 q 227 56 233 7 q 222 106 227 58 q 216 167 217 154 q 215 212 216 180 q 218 260 215 243 q 230 305 220 281 q 257 353 240 329 q 293 384 275 376 l 362 418 q 307 448 328 435 q 269 477 286 461 q 238 518 253 492 q 218 567 224 544 q 212 620 213 590 q 218 695 211 650 l 227 758 l 229 839 l 216 888 l 185 924 l 151 946 l 97 962 l 97 979 l 145 969 l 200 947 l 243 911 l 277 859 l 291 809 l 292 758 l 283 692 q 270 617 274 646 q 269 559 267 589 q 280 506 271 528 q 311 468 290 485 q 355 443 331 451 l 387 431 l 387 406 z "},"~":{"ha":626,"x_min":126,"x_max":545,"o":"m 151 804 q 169 830 155 811 q 193 859 182 848 q 214 880 203 870 q 237 896 225 890 q 260 901 248 901 q 280 896 271 901 q 326 868 290 890 q 386 836 362 846 q 426 827 410 826 q 469 844 449 828 q 504 876 489 860 q 524 897 519 892 q 533 903 529 902 q 541 900 536 903 q 541 882 545 896 q 531 861 537 873 q 516 837 525 850 q 491 805 507 825 q 454 766 475 785 q 415 746 433 747 q 391 749 404 745 q 339 778 378 753 q 283 811 299 802 q 252 820 268 819 q 223 813 237 820 q 200 801 209 807 q 176 780 191 794 q 154 755 160 765 q 142 745 147 746 q 132 752 137 744 q 137 779 126 760 q 151 804 147 798 z "},"":{"ha":1389,"x_min":283,"x_max":1127,"o":"m 809 512 l 818 524 q 837 518 834 516 l 865 530 q 913 538 890 538 q 936 527 935 537 l 937 520 l 1050 513 q 1097 492 1067 511 q 1127 466 1126 473 l 1108 434 l 1105 425 q 1072 424 1103 421 l 1025 421 l 992 434 l 975 424 l 950 427 l 709 406 l 646 395 l 599 397 l 570 382 l 532 385 l 473 364 l 449 364 l 336 355 l 338 365 q 304 384 315 375 q 289 401 294 392 q 284 433 285 410 q 345 458 283 456 l 444 461 l 544 484 l 638 484 l 667 491 l 809 512 z "},"":{"ha":1389,"x_min":255,"x_max":1079,"o":"m 255 409 l 399 444 l 458 465 l 648 526 l 656 597 l 654 720 l 677 785 l 750 722 q 763 706 754 718 l 798 656 q 804 637 803 645 l 794 593 l 789 557 l 993 598 q 1030 585 1004 600 q 1067 556 1055 570 q 1078 536 1079 542 q 1042 528 1075 528 q 1003 526 1009 528 l 956 498 l 908 496 l 884 485 l 821 470 q 791 454 800 464 q 773 416 781 444 q 761 361 765 388 l 749 281 q 749 245 744 253 q 782 227 755 234 l 833 212 q 898 182 862 203 q 965 157 935 162 q 996 152 996 152 l 1027 116 l 1046 100 q 1059 78 1062 83 q 1036 71 1056 73 l 907 52 l 876 33 q 856 54 833 34 l 881 98 l 842 107 l 819 121 q 755 130 817 121 q 679 186 694 139 q 663 256 663 233 l 659 415 l 526 361 q 507 346 514 349 l 463 335 l 444 325 q 420 325 436 322 q 382 337 404 328 q 356 347 361 347 l 344 345 l 344 359 q 305 368 315 360 l 280 397 l 255 409 l 255 409 z "},"":{"ha":1389,"x_min":302,"x_max":1126,"o":"m 336 115 q 359 104 358 109 l 365 88 q 440 106 421 90 q 465 123 459 123 l 477 123 l 572 145 l 586 152 l 577 299 l 560 289 l 459 275 l 418 402 l 404 464 q 400 498 400 481 q 406 549 399 514 q 417 577 410 575 q 433 566 424 578 q 454 554 443 553 q 462 556 458 554 l 493 594 l 528 602 l 546 615 q 534 627 532 623 l 539 635 l 597 711 l 627 777 l 635 780 q 638 792 637 788 q 638 799 638 796 q 638 803 637 802 l 652 809 l 725 916 l 770 1009 l 784 1038 l 765 1047 q 755 1055 759 1050 q 753 1065 752 1061 q 773 1080 753 1077 q 798 1076 776 1080 q 823 1071 821 1073 q 832 1052 825 1069 q 840 1032 840 1034 l 821 1015 l 760 901 l 751 861 l 686 755 l 600 659 q 573 633 576 633 l 552 629 q 559 615 555 617 l 595 629 l 682 656 q 777 679 761 682 q 802 665 793 675 l 819 641 l 846 628 l 760 444 l 741 363 l 770 356 l 770 346 q 764 348 766 347 l 729 338 l 687 342 q 670 329 678 340 q 662 301 662 319 q 664 284 661 292 l 674 250 l 671 196 q 686 193 676 190 l 783 224 l 803 235 l 995 254 l 1061 261 q 1105 226 1084 255 q 1125 186 1126 197 q 1124 171 1125 176 l 1080 1 l 1016 -142 l 979 -204 q 977 -214 977 -212 q 951 -232 976 -216 l 932 -247 q 921 -250 926 -250 q 888 -229 910 -251 q 866 -208 867 -208 l 852 -210 l 842 -198 l 830 -193 l 819 -175 l 802 -163 l 800 -139 l 789 -113 q 798 -101 790 -104 l 825 -122 l 903 -142 q 979 -98 958 -157 l 995 -48 q 1013 -4 1014 -7 l 1009 17 l 1027 52 q 1039 96 1031 58 q 1047 140 1046 134 q 1047 142 1047 141 l 1046 164 l 1052 195 q 1034 204 1046 205 l 867 195 q 853 188 863 194 l 780 182 l 731 163 l 667 147 q 658 135 663 143 q 650 72 653 126 q 660 7 647 18 q 683 -3 672 -3 q 699 5 693 -3 l 709 30 l 793 101 q 801 92 800 94 l 788 60 l 780 36 l 758 19 l 755 -4 q 736 -26 753 -8 l 723 -41 l 676 -69 l 661 -93 q 655 -98 656 -98 q 634 -87 653 -99 l 621 -81 l 614 -64 q 590 -47 611 -59 q 570 -23 569 -35 l 578 76 l 600 115 l 486 62 l 447 41 l 390 31 q 376 21 370 24 l 380 18 l 372 15 q 388 -2 369 14 l 395 -67 l 400 -74 l 414 -112 l 421 -123 q 422 -140 423 -128 q 408 -154 422 -152 q 376 -137 394 -157 q 357 -93 358 -117 q 357 -89 357 -92 l 361 -54 l 351 -7 q 329 45 349 15 q 302 61 309 75 q 323 82 304 64 q 349 95 343 101 l 336 115 l 336 115 m 477 301 q 488 307 484 306 l 520 304 l 540 319 l 570 313 q 583 329 581 316 l 595 433 l 558 449 q 548 465 545 464 l 596 487 l 602 506 l 640 605 l 480 548 q 457 532 466 543 q 447 496 448 522 q 447 468 446 471 l 449 444 l 489 328 l 477 301 m 742 507 l 754 519 l 783 629 q 779 640 784 633 q 757 648 774 646 q 739 645 744 648 q 729 635 734 642 l 707 602 q 681 547 677 562 q 692 530 684 534 l 723 527 l 739 509 q 726 500 730 502 l 700 499 q 677 473 678 494 l 667 366 l 666 359 q 685 353 666 334 q 709 384 702 370 l 728 447 l 740 475 q 742 492 742 483 l 742 507 l 742 507 m 341 770 q 359 782 353 779 l 414 798 l 490 822 l 455 978 q 494 963 485 971 q 512 933 503 954 q 523 901 520 912 l 541 779 q 568 738 568 742 l 561 716 l 545 669 q 505 681 515 667 q 496 718 496 694 q 496 746 496 741 l 495 783 q 417 768 455 782 q 378 755 378 755 l 341 770 l 341 770 m 1021 908 q 1058 873 1044 882 q 1074 862 1072 864 l 1050 821 l 1050 811 q 1044 799 1049 803 l 995 804 l 985 802 l 958 821 l 830 816 l 802 831 l 775 832 q 786 866 752 852 l 821 858 l 909 885 l 949 874 q 974 883 949 873 l 1015 897 l 1021 908 l 1021 908 z "},"":{"ha":1389,"x_min":401,"x_max":958,"o":"m 406 159 q 403 172 401 170 l 412 180 q 583 211 492 190 q 899 288 886 290 l 936 259 q 957 238 958 242 q 942 224 956 235 q 892 216 929 214 l 842 217 q 787 215 812 218 q 726 203 763 212 l 637 176 l 485 144 q 452 146 456 144 l 406 159 l 406 159 m 499 447 l 506 460 l 522 454 q 568 465 534 450 q 629 488 602 479 l 687 505 q 735 522 703 509 q 787 533 768 535 q 848 507 812 530 q 879 469 884 484 q 871 459 877 464 q 831 439 865 454 q 790 425 798 425 q 765 438 773 424 l 782 460 l 765 463 q 699 452 731 461 l 621 427 l 568 409 q 511 432 537 416 l 499 447 m 546 658 q 541 667 540 665 l 546 678 q 563 678 555 677 q 576 679 570 678 l 640 700 l 679 710 l 724 734 q 747 742 737 741 q 764 739 754 742 l 795 723 q 827 704 823 709 q 831 694 831 699 q 827 684 832 690 q 802 670 819 675 l 726 657 q 663 636 698 651 q 621 623 627 622 l 608 627 l 575 637 l 546 658 z "},"":{"ha":1389,"x_min":435,"x_max":1038,"o":"m 435 138 l 585 139 l 648 157 q 617 191 626 186 q 574 203 608 196 q 535 221 541 210 q 533 238 530 233 l 565 240 q 581 252 565 240 l 614 269 l 621 307 l 627 332 q 615 355 627 345 l 623 359 l 631 481 l 633 652 l 622 728 l 627 745 q 614 766 628 751 l 578 823 q 541 852 540 850 q 547 864 541 857 q 555 874 553 872 l 595 863 l 621 863 q 636 850 625 861 l 658 830 q 685 755 680 804 l 691 689 q 695 626 696 633 q 695 616 695 619 l 687 569 q 723 550 693 553 q 772 554 728 549 l 845 561 l 878 577 q 905 591 904 589 l 916 633 q 934 643 926 642 q 961 620 941 644 q 982 589 979 597 q 986 577 985 582 q 981 564 986 572 q 928 532 965 543 l 889 523 q 809 507 823 504 q 800 510 804 508 l 778 519 l 746 520 l 697 528 q 685 497 686 521 q 686 473 685 473 l 688 284 l 679 232 q 666 182 675 203 q 657 158 656 161 q 661 153 659 155 l 703 173 l 830 191 l 876 201 l 886 223 q 900 214 895 215 l 949 222 q 977 212 951 222 l 1017 201 q 1031 190 1025 197 q 1037 167 1036 183 q 1034 147 1038 151 l 1005 146 l 975 136 l 876 131 l 840 120 l 664 87 l 643 83 l 617 96 q 601 85 606 86 l 576 86 l 501 83 q 450 97 464 82 q 435 121 435 113 q 435 132 435 130 l 435 138 z "},"":{"ha":1389,"x_min":290,"x_max":1099,"o":"m 290 633 q 296 657 292 654 l 335 619 q 404 605 361 593 l 543 643 l 755 725 q 872 754 832 754 q 976 699 911 755 l 949 681 l 793 638 l 768 614 l 682 463 l 672 418 l 652 269 l 664 245 q 657 232 664 243 q 667 166 650 220 l 675 106 l 697 43 l 690 13 q 652 20 672 13 q 619 63 633 26 q 604 121 606 100 l 587 274 l 599 413 l 650 597 l 613 587 l 467 548 q 400 556 452 544 q 347 570 347 568 l 290 633 l 290 633 m 814 366 q 843 398 831 392 q 870 406 854 405 q 952 386 893 408 q 1056 321 1012 365 q 1096 239 1099 277 q 1085 213 1094 224 q 1055 198 1077 203 l 1013 193 l 981 186 q 977 266 980 214 q 952 337 974 317 q 903 361 931 357 q 814 366 876 366 z "},"":{"ha":1389,"x_min":319,"x_max":1131,"o":"m 319 151 l 400 245 l 427 286 q 447 300 446 299 l 509 424 q 496 379 500 394 q 493 331 491 363 q 504 325 495 298 l 519 353 l 585 426 l 610 475 q 630 519 632 515 l 619 547 l 648 534 l 743 691 l 759 745 l 569 667 l 485 651 q 476 648 479 649 q 441 667 473 648 q 410 690 410 686 q 425 701 410 696 l 463 703 l 554 734 l 664 774 l 737 802 l 764 799 q 800 793 795 795 l 831 772 l 845 766 q 856 752 856 760 q 856 743 857 745 l 810 648 l 749 559 l 715 529 l 678 481 l 694 410 l 708 300 l 714 197 l 708 136 q 702 104 706 110 q 691 95 697 98 q 652 110 684 92 q 620 130 621 127 q 627 170 618 132 l 644 253 l 642 275 l 646 406 l 585 318 l 528 252 l 519 226 q 504 210 516 220 q 490 196 492 200 l 442 119 l 427 119 q 427 104 427 113 q 425 96 427 96 l 389 83 q 362 108 372 102 q 351 117 353 114 l 348 132 q 319 140 322 168 l 319 151 l 319 151 m 865 80 l 958 151 l 1016 197 l 1016 201 l 920 243 q 868 275 866 266 q 878 283 869 284 l 980 273 l 1043 252 q 1073 245 1069 248 l 1083 233 l 1131 200 q 1131 191 1131 196 q 1115 165 1130 171 l 969 108 l 930 98 l 916 87 l 890 88 l 865 80 l 865 80 z "},"":{"ha":1389,"x_min":511,"x_max":895,"o":"m 614 85 l 560 197 l 538 211 l 527 226 l 511 241 q 518 252 511 245 q 563 259 526 258 q 601 259 600 259 q 644 228 611 256 q 682 189 677 199 q 691 144 687 179 q 679 90 694 109 q 614 85 663 72 m 558 465 l 558 492 l 594 622 l 605 749 q 601 784 605 751 l 597 860 l 579 901 q 597 915 591 912 l 663 882 l 680 878 l 669 746 l 765 775 q 811 803 792 783 q 834 824 831 823 l 869 789 l 883 779 q 885 770 884 776 q 880 762 885 764 l 790 712 q 736 703 757 694 l 671 732 q 665 720 665 726 l 654 618 l 642 494 l 651 489 l 757 518 l 796 512 q 808 515 807 515 q 816 504 808 515 l 857 490 q 883 446 879 481 l 893 353 l 894 303 q 878 185 895 227 q 861 118 861 142 q 857 92 862 94 l 840 83 l 773 -9 l 699 -45 l 608 2 q 602 13 602 4 q 610 30 601 22 q 631 39 618 38 q 648 38 637 39 q 663 37 659 37 q 705 48 681 35 q 743 81 728 60 l 796 155 l 831 269 l 836 341 l 839 385 q 811 441 836 414 q 754 469 785 469 q 713 463 723 469 l 631 408 q 619 410 626 404 l 593 440 l 576 452 l 566 473 l 558 465 z "},"":{"ha":1389,"x_min":128,"x_max":1153,"o":"m 128 436 l 250 463 q 249 473 248 471 l 284 464 l 311 481 q 315 483 312 482 l 349 482 l 378 485 q 373 492 374 489 q 376 500 373 496 l 433 490 l 444 496 l 442 579 l 437 616 q 450 621 441 621 q 467 610 458 622 l 477 589 l 507 570 q 509 558 509 566 q 509 551 509 553 l 509 545 l 513 512 l 620 530 q 655 538 649 535 q 667 546 662 541 q 657 583 671 550 q 646 618 650 599 l 636 675 q 629 701 629 697 l 627 734 l 615 751 l 621 773 l 589 887 q 608 891 599 890 q 630 878 617 892 q 645 857 643 863 l 650 831 l 673 821 l 708 688 l 715 642 q 756 689 745 690 q 762 686 760 688 q 765 665 763 684 l 777 628 l 773 610 q 791 587 772 597 q 821 575 809 576 q 854 591 833 574 q 877 620 874 608 l 894 705 l 898 771 l 913 812 q 905 823 905 819 l 909 859 l 899 867 q 922 886 912 883 l 954 890 l 979 901 l 988 895 q 1000 900 994 900 q 1021 889 1015 899 l 1048 852 q 1013 833 1025 844 q 991 768 1001 822 l 978 692 l 964 627 l 968 589 l 1049 604 l 1069 605 l 1107 631 q 1117 627 1112 631 q 1138 594 1122 623 q 1153 554 1153 564 q 1140 535 1152 544 l 1074 534 l 1010 528 q 958 519 961 524 l 953 471 l 918 336 l 905 304 l 909 288 l 869 189 l 876 180 l 832 171 q 801 195 830 170 l 778 208 l 739 248 l 714 264 l 706 280 l 661 312 l 644 343 l 754 288 l 789 271 l 810 274 l 840 273 l 843 298 l 856 380 l 850 406 l 878 511 q 858 507 864 507 l 808 509 q 804 507 806 508 l 772 479 l 767 490 q 752 496 762 494 q 718 493 747 496 q 650 477 688 490 q 580 473 612 465 l 566 460 q 546 468 553 468 q 530 459 538 467 q 522 444 522 450 l 534 302 l 561 79 l 597 71 q 644 79 613 67 l 757 119 q 832 135 819 126 q 848 145 845 144 l 875 138 l 927 149 l 963 140 q 981 135 978 136 l 994 123 l 1063 64 q 1066 56 1066 60 q 1063 47 1067 51 l 1036 25 l 1028 0 q 1006 -17 1007 -23 l 1007 -24 q 962 -16 987 -17 q 883 -54 937 -15 q 863 -45 869 -54 l 907 8 l 918 44 l 931 71 l 808 58 q 792 46 796 45 q 774 50 788 46 q 736 46 761 54 l 612 3 l 537 -4 q 532 30 536 24 l 516 52 q 498 71 504 45 l 475 178 l 468 250 l 456 366 l 456 448 l 316 417 l 202 406 l 128 436 z "},"":{"ha":1389,"x_min":199,"x_max":1072,"o":"m 612 473 l 600 562 l 589 628 l 593 692 q 588 708 592 702 q 576 715 583 715 q 566 708 570 715 l 562 679 q 544 656 560 671 l 498 604 l 446 566 q 417 604 425 590 l 389 665 q 385 674 386 671 l 404 720 l 412 758 q 430 755 420 764 q 440 727 432 752 q 459 708 448 702 l 547 750 l 578 762 l 572 863 q 584 879 570 875 l 610 864 l 629 853 q 627 832 627 841 q 632 817 627 823 l 647 799 l 642 693 l 649 654 l 648 637 l 662 587 l 655 551 l 673 510 l 688 524 l 730 627 l 765 741 l 785 882 q 785 889 785 885 q 782 923 785 894 q 779 964 778 953 q 803 1014 779 1013 q 844 1000 827 1015 q 862 955 861 985 q 861 919 862 925 l 825 764 l 940 827 l 1010 790 l 863 640 q 784 571 825 601 q 745 530 743 542 q 789 532 747 517 q 831 548 831 547 l 943 564 q 1025 576 1025 576 l 1072 513 l 1006 507 l 971 515 l 945 513 l 901 513 l 862 499 l 819 503 l 808 494 q 845 465 838 477 q 853 439 853 453 q 840 412 854 425 l 782 356 l 744 321 l 739 302 l 821 325 q 846 315 830 319 q 863 310 861 312 q 866 303 865 308 q 862 292 866 298 q 850 284 858 286 l 753 254 l 715 229 l 611 208 l 566 203 l 554 195 q 548 193 551 193 q 524 201 543 192 q 507 222 506 211 q 510 233 507 224 q 519 244 513 241 l 548 247 l 629 271 l 660 294 l 743 391 q 781 464 788 444 l 772 498 l 662 460 l 616 455 l 461 385 l 420 389 l 414 375 l 321 309 l 293 317 l 209 398 q 217 421 199 408 l 279 399 l 313 408 l 456 443 l 549 467 l 612 473 m 772 584 l 859 682 l 881 720 q 894 739 895 737 l 885 753 q 827 737 838 748 q 814 716 817 726 l 772 584 m 547 103 l 684 136 q 717 178 701 139 q 740 215 733 217 q 748 209 744 213 l 766 173 l 815 170 q 837 144 836 163 q 800 99 837 134 q 748 93 763 64 l 760 60 l 766 -94 q 761 -110 766 -104 l 741 -121 q 723 -131 725 -130 q 707 -131 721 -132 q 696 -117 694 -130 l 715 -9 l 717 100 l 614 71 q 548 64 559 56 q 536 80 537 73 q 538 90 535 87 l 547 103 m 549 -71 l 547 -68 l 547 -64 l 549 -61 l 551 -57 l 551 -54 l 551 -48 l 554 -41 l 554 -35 l 565 -35 l 577 -39 l 585 -39 l 588 -38 l 598 -33 l 601 -31 l 603 -28 l 607 -28 l 611 -25 l 615 -25 l 620 -30 l 620 -36 l 621 -39 l 622 -40 l 622 -41 l 620 -45 l 619 -47 l 618 -50 l 618 -56 l 613 -61 l 611 -65 l 610 -66 l 610 -68 l 611 -69 l 612 -72 l 612 -74 l 610 -76 l 606 -82 l 603 -85 l 599 -85 l 597 -87 l 594 -93 l 591 -96 l 588 -100 l 587 -102 l 586 -103 l 583 -105 l 581 -105 l 580 -104 l 577 -103 l 567 -103 l 551 -88 l 551 -80 l 549 -71 m 572 336 l 576 366 q 605 359 595 360 q 631 372 616 358 l 645 387 l 667 393 q 648 320 664 323 l 601 302 l 572 336 m 846 36 q 865 62 857 58 l 935 25 q 950 18 948 20 q 962 4 952 17 l 987 -28 q 994 -55 994 -39 q 981 -69 994 -71 l 885 -57 l 873 -45 q 885 -24 885 -31 q 877 -7 884 -18 l 846 36 l 846 36 z "},"":{"ha":1389,"x_min":269,"x_max":1113,"o":"m 269 -45 l 427 83 l 441 103 l 521 164 q 554 209 578 208 l 576 212 q 619 261 614 248 l 633 292 q 586 284 609 290 q 562 279 563 278 l 526 298 l 614 321 l 640 328 q 642 372 642 330 l 642 410 l 574 406 l 542 411 l 637 469 l 640 561 l 505 517 l 439 535 l 647 593 q 640 633 640 624 q 641 652 640 642 q 642 670 642 662 q 637 687 641 682 l 626 697 l 622 709 l 539 701 q 511 711 524 701 q 498 726 498 722 q 558 759 498 733 q 618 783 618 785 q 620 783 619 781 l 645 856 q 651 891 651 874 q 648 913 650 907 l 638 933 q 627 925 630 924 l 614 937 l 602 945 l 596 961 q 624 965 616 961 q 646 1000 631 970 l 666 1044 l 686 1023 q 706 1010 703 1015 q 717 978 709 1006 l 726 949 q 722 917 726 939 q 716 875 718 895 q 716 833 714 854 q 725 804 718 812 l 774 770 l 778 750 q 753 732 763 734 l 724 724 q 711 701 713 717 l 698 600 l 844 654 l 888 652 l 979 677 q 1000 662 984 679 l 1042 623 l 1048 597 q 1024 571 1029 581 l 1018 556 q 995 538 1016 553 l 961 501 l 829 370 q 876 361 869 372 q 882 346 882 350 q 867 332 881 336 l 767 308 l 732 277 q 709 258 711 262 l 707 236 l 700 212 l 702 201 l 712 28 l 721 -116 l 694 -182 q 663 -157 669 -172 q 654 -140 656 -141 l 569 -103 l 553 -85 l 530 -68 l 521 -50 l 507 -35 q 514 -26 507 -28 l 532 -35 l 548 -35 l 561 -48 q 570 -39 566 -41 l 629 -45 q 638 -30 637 -39 l 641 146 l 635 180 l 457 41 l 374 -5 l 269 -45 m 751 353 l 754 369 q 772 376 767 372 q 787 392 778 380 q 816 427 796 404 q 847 471 836 449 l 865 515 l 881 542 q 896 585 895 567 l 896 587 q 896 589 896 588 l 892 605 l 833 604 l 696 570 q 697 518 696 541 q 705 492 699 496 l 764 500 q 771 471 780 489 q 760 462 768 466 l 703 436 l 697 405 l 690 373 q 700 351 690 359 q 751 353 715 336 m 353 442 q 437 433 407 456 q 475 388 467 410 l 509 296 q 437 304 459 296 q 409 332 416 313 l 370 427 l 353 442 m 775 147 l 881 144 l 1012 106 l 1084 92 q 1078 80 1078 85 q 1095 58 1077 75 q 1112 16 1113 41 q 1101 -7 1110 -9 q 1084 -3 1093 -6 q 1067 -1 1075 0 l 954 -26 l 941 -32 q 932 -20 933 -24 l 986 30 q 990 42 989 35 q 975 58 991 50 l 775 147 z "},"":{"ha":1389,"x_min":372,"x_max":992,"o":"m 414 406 l 512 504 l 643 604 l 655 803 q 656 830 656 829 l 628 880 q 672 905 632 889 l 695 884 q 725 876 719 883 l 734 858 l 753 845 l 755 822 l 768 794 l 756 694 l 759 672 l 847 700 q 914 715 903 717 q 942 699 925 714 q 964 682 959 684 l 980 675 q 988 624 992 667 q 983 597 985 604 l 949 555 q 933 526 935 526 l 916 514 l 910 503 l 895 503 l 891 494 l 814 431 q 793 425 794 427 l 770 397 l 779 395 q 794 406 788 405 l 808 404 q 811 404 809 403 q 838 415 829 404 l 850 442 q 889 441 852 444 l 929 439 l 953 422 l 966 419 q 975 406 974 415 q 969 378 977 396 q 958 358 962 359 q 926 357 954 356 l 843 359 l 794 344 l 796 335 q 730 326 743 339 q 717 305 718 313 l 705 212 l 709 120 l 697 27 l 697 -29 l 684 -47 l 681 -80 l 659 -77 l 637 52 l 638 191 q 634 244 638 241 l 627 248 l 637 253 q 631 273 634 269 l 572 261 q 568 273 567 266 l 570 281 l 552 300 q 550 309 550 303 q 557 322 549 315 q 590 330 559 325 q 628 345 621 336 q 637 362 636 355 l 646 563 l 578 528 l 564 524 q 551 514 553 519 l 545 497 l 454 418 q 426 388 430 397 q 421 367 422 379 q 439 330 419 355 l 494 253 q 497 240 498 248 q 485 228 497 232 q 443 256 473 223 l 378 326 q 377 331 376 327 q 375 346 377 335 q 374 393 372 356 q 377 426 374 400 q 392 433 381 452 l 414 406 l 414 406 m 726 456 l 733 439 l 818 508 q 861 576 852 536 l 874 633 l 739 597 l 726 456 z "},"":{"ha":1389,"x_min":240,"x_max":1153,"o":"m 503 326 q 456 318 469 318 q 418 326 443 319 q 398 344 394 333 q 416 356 401 355 q 439 347 424 357 q 485 355 457 353 q 516 363 512 358 l 523 372 q 574 395 526 376 l 680 435 l 780 467 q 802 498 837 486 l 783 491 l 705 465 l 684 459 q 678 467 678 464 q 690 476 677 471 l 727 488 q 749 505 747 496 q 749 517 751 513 l 711 513 q 695 522 709 513 q 680 557 682 530 q 671 591 679 583 q 658 592 664 600 l 593 512 l 562 492 l 507 463 q 468 452 473 444 l 461 480 l 434 498 q 431 503 429 502 l 442 506 l 439 513 q 497 503 463 499 q 511 526 531 507 l 481 571 q 517 569 510 574 q 533 541 518 568 q 584 557 548 513 q 618 617 606 583 l 631 657 q 635 682 636 673 q 625 699 634 691 q 596 698 616 706 l 513 664 l 426 580 l 409 503 q 398 492 406 492 q 387 495 391 492 l 369 525 l 359 536 l 354 558 q 360 560 358 559 l 363 591 l 419 713 l 472 814 l 499 867 q 461 859 466 856 l 408 877 q 429 882 422 881 l 472 886 q 485 892 481 887 l 489 903 q 541 915 495 920 q 593 904 586 909 l 612 889 l 543 832 l 471 734 l 443 655 l 452 640 l 548 707 q 611 731 584 732 q 654 718 637 730 q 672 691 671 706 q 673 675 673 677 l 665 612 l 673 598 l 688 635 l 707 697 l 728 720 l 722 725 l 762 806 l 829 882 q 798 887 800 888 l 726 873 l 726 878 l 843 919 q 858 932 850 921 q 869 945 866 943 l 926 922 l 964 922 q 975 908 975 917 q 967 897 975 899 l 880 870 q 880 862 880 865 q 878 857 880 859 l 863 850 l 811 791 l 786 754 l 728 646 l 720 602 q 739 604 734 600 l 747 620 l 788 687 l 819 724 l 897 772 l 958 788 l 971 798 q 1004 784 996 791 q 1017 768 1013 776 l 1027 744 q 1036 729 1035 731 l 1031 709 l 1036 701 l 1040 633 l 1010 579 q 1002 569 1006 572 q 993 564 998 566 l 973 559 l 930 526 q 880 509 922 519 q 848 498 838 498 l 864 499 q 890 483 878 498 q 905 468 902 467 l 909 469 q 892 457 899 458 l 871 457 l 860 441 q 828 437 858 439 l 794 425 q 781 418 784 420 q 777 400 779 415 q 785 384 775 386 q 795 382 794 382 l 793 369 l 807 363 l 814 355 q 840 360 836 357 l 863 378 q 927 363 911 377 q 944 346 943 350 q 910 328 945 341 l 889 315 l 827 278 q 795 256 799 262 q 793 244 791 250 l 797 214 q 808 210 804 210 l 846 223 l 868 228 q 866 243 865 234 q 877 253 867 252 q 884 251 878 253 q 916 248 889 248 q 962 231 943 248 q 937 207 981 214 l 823 189 l 685 143 l 566 110 l 530 74 q 539 35 539 47 l 538 14 q 556 -7 540 -3 l 581 -11 q 575 -44 581 -12 q 565 -78 568 -75 q 558 -80 562 -81 q 553 -79 555 -80 l 524 -62 q 496 -46 500 -51 q 485 -20 492 -41 q 478 13 479 1 q 492 50 477 24 l 542 136 l 600 165 l 598 185 q 594 195 597 191 q 583 193 591 200 l 578 188 l 548 170 l 517 136 l 455 117 q 443 94 444 93 l 426 98 q 422 89 425 97 l 378 -24 l 367 -43 l 334 -113 l 310 -143 q 321 -148 321 -140 q 309 -161 321 -156 q 271 -142 291 -151 q 245 -130 250 -134 q 240 -120 240 -125 q 243 -112 240 -115 l 283 -78 l 319 9 l 363 83 l 370 94 l 431 200 l 473 272 l 492 282 l 509 305 l 527 323 q 529 333 533 335 l 503 326 l 503 326 m 524 240 l 481 165 q 486 159 479 162 q 530 189 492 156 l 574 211 q 581 220 580 216 q 574 238 582 225 q 547 265 556 264 q 524 240 538 267 m 624 247 l 731 302 l 755 320 l 757 403 q 705 395 720 401 l 683 382 l 634 356 l 576 307 q 575 306 576 307 q 575 303 575 304 q 575 300 576 302 q 576 298 575 298 q 585 286 576 291 l 602 276 l 624 247 l 624 247 m 641 217 l 650 211 l 657 208 l 661 206 l 663 208 l 665 208 l 671 211 l 673 212 l 687 223 l 690 228 l 692 230 l 696 232 l 698 233 l 703 233 l 703 235 l 708 242 l 711 244 l 714 246 l 715 247 l 719 248 l 722 250 l 729 253 l 735 256 l 737 257 l 740 259 l 743 261 l 745 261 l 751 266 l 751 268 l 755 269 l 755 279 l 751 279 l 743 282 l 742 283 l 740 283 l 739 282 l 737 282 l 731 279 l 729 278 l 724 274 l 722 273 l 715 273 l 709 271 l 707 271 l 701 267 l 692 253 l 692 252 l 690 250 l 687 250 l 684 250 l 681 248 l 675 244 l 673 243 l 671 243 l 670 240 l 669 238 l 667 236 l 663 233 l 657 231 l 654 230 l 650 230 l 647 230 l 644 229 l 644 227 l 642 225 l 642 223 l 641 221 l 641 217 m 694 190 l 698 189 l 701 189 l 707 189 l 713 190 l 719 190 l 722 189 l 722 189 l 724 189 l 726 189 l 728 190 l 733 193 l 735 194 l 741 196 l 745 197 l 747 198 l 747 201 l 748 203 l 748 204 l 749 205 l 751 212 l 753 216 l 755 216 l 755 218 l 751 221 l 751 222 l 751 225 l 753 225 l 753 228 l 748 228 l 742 223 l 734 223 l 731 222 l 728 221 l 724 220 l 724 219 l 722 216 l 719 214 l 718 212 l 715 211 l 709 205 l 700 200 l 698 199 l 694 197 l 694 190 m 747 572 l 754 532 q 789 535 779 527 q 798 569 799 544 l 795 604 q 838 620 816 620 q 877 606 860 619 q 890 583 893 592 l 887 564 q 900 559 896 559 l 935 597 q 947 610 947 609 l 954 633 l 970 644 l 973 662 l 982 680 q 979 703 982 682 l 975 734 q 924 747 962 766 l 856 711 l 781 631 l 747 572 m 685 130 q 696 126 694 128 l 703 107 l 740 29 l 760 7 l 831 54 l 870 65 l 895 80 q 911 83 899 81 l 1002 113 q 1087 100 1044 125 l 1153 62 l 1147 33 l 1067 0 l 1059 -9 q 1053 -12 1058 -10 q 1027 -25 1047 -13 l 1009 -34 l 975 -58 l 956 -64 l 909 -84 l 883 -88 l 859 -96 q 774 -82 818 -107 q 729 -51 741 -63 l 711 -30 l 701 -20 q 686 46 691 -10 q 682 109 680 102 l 685 130 m 825 -89 l 876 -54 l 912 -25 q 934 -16 932 -18 l 943 2 l 1027 67 l 1001 71 l 909 39 l 875 5 l 859 -1 q 841 -24 857 -3 l 806 -61 q 803 -69 802 -69 l 825 -89 l 825 -89 z "},"":{"ha":1389,"x_min":208,"x_max":1249,"o":"m 208 353 l 224 357 l 316 354 l 353 374 l 479 401 l 458 450 l 445 553 l 449 576 l 433 665 l 411 721 q 477 708 452 716 q 514 682 502 699 q 526 648 526 665 l 522 610 l 519 498 l 506 416 q 509 410 507 412 l 573 433 l 681 448 l 646 481 l 667 589 l 733 695 l 722 754 q 702 744 713 751 q 671 693 690 737 l 637 616 l 622 543 l 615 513 l 625 486 l 617 475 l 601 453 q 587 461 595 452 q 573 480 583 465 q 564 505 564 496 l 560 664 l 565 690 l 562 771 l 568 827 q 567 838 566 836 q 582 854 568 856 l 609 835 l 612 842 q 617 838 616 840 q 618 821 619 837 l 631 781 l 619 724 l 623 705 l 694 795 l 726 815 l 738 903 q 742 939 742 938 l 719 966 q 715 973 714 972 l 775 1019 l 780 1015 q 823 1019 817 1027 l 823 999 l 834 985 l 823 958 l 791 884 l 789 853 q 824 838 821 848 q 797 824 827 829 q 765 808 767 819 l 768 785 l 762 748 l 766 730 l 844 781 q 935 833 929 837 l 975 814 q 988 793 988 800 q 974 773 987 787 q 956 749 960 759 l 929 686 l 890 497 l 999 530 l 1031 530 q 1071 488 1074 506 q 1015 463 1069 469 l 892 449 q 893 420 894 432 q 882 393 893 408 q 871 377 870 377 l 887 364 l 880 343 l 996 290 l 1015 278 l 1067 262 l 1082 252 l 1111 246 q 1139 232 1135 232 l 1156 232 l 1169 220 l 1196 214 q 1230 183 1212 209 q 1227 144 1249 157 l 1170 161 l 1149 162 l 1113 183 l 1039 216 l 1027 225 l 982 241 l 976 252 l 959 255 l 948 262 l 919 270 l 889 300 l 743 408 q 730 401 731 404 l 751 369 l 748 350 l 749 332 q 742 318 747 327 q 738 305 737 309 q 743 294 738 298 l 787 289 q 797 281 788 288 l 811 270 q 814 260 814 265 q 810 252 814 255 l 755 208 q 735 184 730 188 l 745 172 q 777 189 774 177 l 780 207 q 822 201 786 214 q 859 181 857 187 l 861 170 l 874 176 q 879 166 878 172 q 857 153 880 161 q 829 144 835 145 l 747 133 l 727 121 l 745 7 q 739 -18 745 6 l 741 -77 l 728 -117 l 731 -130 q 722 -146 730 -134 q 709 -173 714 -158 q 695 -193 704 -187 q 682 -195 686 -199 l 688 -173 q 677 -160 688 -172 q 667 -117 665 -148 l 667 -63 l 679 -9 l 673 52 l 681 85 l 684 106 l 587 74 q 563 85 570 68 l 563 109 l 557 123 l 635 169 l 671 199 q 688 209 684 206 q 691 218 691 212 q 665 227 689 237 l 637 261 q 665 274 659 277 l 684 268 l 688 273 l 682 388 l 673 393 l 661 372 l 600 294 l 564 256 q 513 188 519 189 q 505 184 506 186 l 436 116 l 412 88 l 355 43 l 349 31 q 339 25 342 26 l 311 28 l 302 12 q 294 15 298 14 q 267 1 290 16 q 234 -14 245 -15 q 224 -5 224 -14 l 224 3 l 276 50 l 318 83 q 343 117 332 97 q 359 140 354 136 l 425 191 l 447 216 l 577 353 l 595 386 l 513 354 l 460 345 l 433 329 l 355 299 l 315 298 l 224 333 l 208 353 m 753 652 l 733 642 l 697 564 l 687 556 l 690 527 l 680 497 l 686 490 l 695 467 q 702 461 698 463 q 730 483 705 460 l 751 500 q 754 538 751 500 l 761 615 l 753 652 m 784 680 l 797 608 l 790 568 l 798 538 l 785 496 l 789 479 l 819 506 l 820 530 l 829 538 q 832 565 829 538 l 840 588 l 841 637 l 861 649 q 871 665 869 654 l 871 693 q 872 711 873 709 l 870 717 l 878 734 l 878 740 l 854 734 l 784 680 m 795 417 l 804 410 l 810 407 l 812 407 l 813 406 l 813 404 l 815 401 l 816 401 l 819 401 l 821 399 l 823 399 l 826 397 l 830 393 l 836 393 l 839 392 l 839 393 l 840 396 l 840 397 l 840 398 l 840 399 l 839 401 l 839 408 l 834 408 l 834 413 l 833 414 l 831 417 l 826 425 l 825 427 l 825 431 l 821 431 l 819 432 l 803 432 l 795 425 l 795 418 l 795 417 z "},"":{"ha":1389,"x_min":248,"x_max":1025,"o":"m 370 154 q 416 223 399 201 q 488 304 433 245 l 545 412 l 561 425 l 608 490 q 643 547 622 509 q 670 605 663 585 l 688 658 q 624 618 654 635 q 590 599 593 601 l 547 564 q 505 543 522 545 q 443 563 488 541 q 402 599 398 586 q 412 618 406 612 l 478 633 l 553 668 l 614 698 l 697 760 l 784 812 q 837 830 814 829 q 890 818 859 830 l 876 804 q 903 798 900 801 l 922 772 q 913 767 918 775 l 876 668 l 854 604 l 822 553 l 825 512 l 816 491 q 831 475 829 481 l 837 448 l 852 438 l 852 425 q 817 441 831 436 q 800 451 803 447 l 783 490 q 768 522 768 519 l 777 545 l 774 654 l 722 552 l 675 484 l 667 450 l 644 427 l 636 408 l 585 328 l 522 234 l 473 168 q 376 51 387 71 l 298 -82 l 292 -88 q 277 -77 281 -82 l 264 -53 q 248 -26 248 -31 q 260 -9 248 -22 q 295 31 291 22 l 305 62 l 334 92 l 370 154 m 707 -82 q 718 -61 713 -67 l 750 -35 l 816 26 l 833 48 l 892 152 l 924 286 l 921 309 l 921 342 q 911 355 920 345 l 875 411 q 860 439 858 431 q 866 448 863 447 q 885 442 869 449 l 929 441 q 946 432 930 440 l 981 415 q 994 397 991 407 l 996 389 l 1006 378 q 1013 351 1006 377 l 1025 313 l 1018 277 l 1024 256 l 996 138 q 978 106 995 133 l 949 46 l 907 5 q 888 -9 894 -7 l 804 -37 l 738 -77 l 707 -82 l 707 -82 z "},"":{"ha":1389,"x_min":323,"x_max":1230,"o":"m 365 157 l 368 159 l 545 388 l 644 522 l 707 603 q 734 653 738 644 q 715 666 730 663 q 696 662 707 667 l 631 629 q 594 610 596 613 l 578 589 q 557 569 561 564 l 543 581 l 529 637 l 606 797 q 632 824 614 813 q 668 819 650 835 q 679 801 669 817 q 690 783 689 785 l 657 748 l 638 715 l 620 706 q 616 693 614 700 l 617 677 l 631 672 l 716 707 l 738 711 l 780 724 q 786 724 783 724 q 805 719 801 723 q 821 701 810 715 l 836 682 q 840 664 839 676 q 819 626 840 652 l 777 575 q 756 551 758 551 l 746 549 l 733 536 l 723 540 q 694 505 722 540 l 614 408 l 589 377 q 606 355 588 359 l 692 330 l 767 312 q 830 286 829 286 q 850 284 850 284 l 865 271 l 1010 241 l 1030 245 l 1157 227 l 1214 229 l 1230 220 l 1210 196 l 1126 139 l 1080 121 l 1049 104 q 935 123 1002 86 l 772 214 l 739 248 l 703 269 q 672 286 678 284 q 642 285 666 288 q 646 292 645 289 q 631 307 646 295 l 606 333 l 568 351 l 562 335 l 504 252 l 385 131 q 343 112 363 109 q 324 139 323 115 q 345 163 325 174 l 365 157 l 365 157 z "},"":{"ha":1389,"x_min":404,"x_max":1033,"o":"m 404 65 l 493 159 l 523 186 l 528 222 l 550 320 l 559 320 l 591 397 l 562 377 l 461 309 q 440 312 452 302 q 429 333 429 321 q 437 351 429 345 l 534 439 q 573 481 572 474 l 531 528 q 524 547 524 537 q 536 569 524 558 l 606 623 q 612 637 610 635 l 621 644 q 623 665 623 648 l 623 674 q 604 708 621 709 l 517 698 q 498 706 510 696 q 485 727 486 715 q 489 743 484 739 l 522 737 l 615 760 l 633 768 l 699 871 l 717 895 l 731 939 l 745 967 q 781 1038 777 1041 l 803 1023 q 830 980 827 1002 q 805 925 833 958 q 772 880 776 891 l 767 865 l 743 843 l 705 799 q 727 793 720 794 l 772 789 q 787 771 787 781 q 783 753 788 761 q 766 734 781 749 l 740 704 l 699 667 q 692 649 691 657 q 720 636 695 619 l 749 611 q 714 535 710 562 q 749 502 719 508 q 781 494 780 496 l 790 467 q 757 457 763 465 q 749 444 751 450 q 758 404 748 437 l 804 231 l 821 162 l 836 142 q 840 121 834 125 q 853 121 846 117 q 867 134 861 125 l 916 212 l 964 313 q 992 296 996 304 l 991 292 q 1027 281 1022 290 q 1033 260 1033 271 q 1026 241 1032 249 l 940 139 l 857 73 l 903 -33 q 918 -16 917 -18 l 936 50 l 983 -145 l 1025 -237 q 1021 -253 1031 -250 l 1012 -251 l 998 -253 l 981 -237 l 954 -224 q 938 -204 945 -219 l 898 -126 l 901 -119 l 865 -43 l 850 -24 l 833 36 q 814 46 825 44 q 773 22 800 47 q 738 2 747 -3 l 722 9 q 780 56 749 31 q 811 102 812 81 q 799 130 810 108 q 785 161 788 151 l 762 245 l 718 438 q 677 432 694 437 q 623 379 661 427 q 583 310 585 332 l 572 239 l 637 289 l 636 258 l 572 175 l 577 91 q 578 50 578 69 q 572 17 578 31 q 550 4 566 3 q 535 33 533 4 q 540 59 535 34 q 541 94 545 85 l 530 126 q 499 111 502 121 l 496 98 q 474 94 494 96 q 450 75 454 92 l 448 65 l 418 36 l 404 65 m 661 484 l 663 481 l 663 474 l 669 469 l 672 469 l 675 471 l 678 473 l 681 474 l 692 484 l 694 486 l 697 490 l 699 491 l 699 500 l 698 503 l 698 504 l 697 506 l 694 509 l 694 514 l 689 515 l 685 516 l 683 516 l 678 515 l 673 514 l 673 511 l 669 510 l 665 506 l 665 503 l 660 498 l 663 496 l 663 494 l 660 487 l 661 484 m 568 916 l 624 845 q 628 833 628 839 q 623 823 629 828 q 594 814 617 817 q 567 814 571 811 q 554 828 566 814 q 542 845 542 842 l 532 926 q 531 947 531 937 q 534 960 530 956 q 542 960 537 964 l 568 916 l 568 916 z "},"":{"ha":1389,"x_min":578,"x_max":880,"o":"m 751 731 q 695 747 726 744 q 662 753 665 749 l 648 768 l 629 769 q 598 796 617 770 q 579 826 580 822 q 581 839 579 831 q 583 850 582 846 l 578 888 q 579 906 578 891 q 591 922 579 922 q 602 909 600 921 l 600 884 q 600 878 600 881 q 622 832 601 838 l 715 802 q 738 787 737 795 l 751 731 l 751 731 m 653 460 q 652 453 652 453 l 669 414 l 681 419 l 686 410 l 708 415 q 727 377 719 385 q 764 355 736 370 q 793 320 792 340 q 790 307 793 313 l 772 276 l 777 258 q 775 250 777 254 q 764 238 772 243 l 749 229 l 727 190 l 713 165 q 720 150 715 153 l 734 138 q 734 130 734 135 l 752 123 l 788 111 l 809 96 l 842 83 l 876 50 q 874 26 874 33 q 877 11 875 20 q 880 2 880 3 q 859 -15 879 -6 q 835 -24 839 -24 q 800 -5 828 -24 q 788 15 772 14 l 772 14 l 761 25 l 739 34 q 718 56 736 35 l 691 82 l 677 111 l 659 134 q 656 148 656 139 q 663 175 655 157 l 696 257 q 709 302 710 290 q 704 321 708 314 q 679 342 701 328 q 653 364 657 356 q 648 378 649 372 l 642 429 q 635 450 631 447 l 653 460 z "},"":{"ha":1389,"x_min":404,"x_max":909,"o":"m 404 494 l 472 611 l 489 643 l 503 737 l 498 783 q 493 815 497 814 q 472 804 492 815 q 440 806 452 793 q 430 821 427 819 l 449 847 q 468 847 463 845 q 484 863 473 849 l 515 905 q 524 896 521 897 l 549 905 q 565 903 550 905 l 588 900 l 610 878 l 625 865 q 628 860 627 862 q 623 838 629 859 l 612 803 l 600 798 l 603 780 l 590 762 l 587 734 l 576 719 l 531 597 q 502 553 527 587 q 461 502 477 519 q 427 490 445 484 l 404 494 l 404 494 m 907 723 q 897 715 898 719 l 896 701 l 867 705 l 770 670 l 653 654 l 642 630 l 633 528 l 645 464 l 647 303 l 658 188 l 664 163 l 652 56 q 657 44 656 45 l 635 23 l 629 5 q 573 48 588 28 q 557 81 557 68 q 557 96 556 95 l 567 370 l 588 553 l 603 595 l 609 623 l 617 635 l 623 654 l 638 660 l 600 698 q 606 708 600 706 l 718 732 l 797 760 l 818 757 l 850 757 l 907 723 l 907 723 m 717 173 l 740 190 q 769 175 761 172 l 781 178 q 810 152 797 153 l 847 154 l 860 138 l 884 131 q 883 115 884 130 l 883 74 q 874 79 878 64 q 869 52 875 62 q 842 41 864 42 q 785 80 819 41 l 722 150 l 717 173 m 734 317 l 782 418 l 800 469 q 833 456 826 466 q 842 447 840 447 l 852 447 q 866 425 856 446 l 888 399 l 909 355 l 859 340 q 768 313 791 309 l 734 317 l 734 317 z "},"":{"ha":1389,"x_min":422,"x_max":933,"o":"m 422 299 l 448 334 l 580 432 l 593 440 l 653 511 l 681 543 q 681 553 682 545 q 669 574 681 560 q 650 582 656 587 l 565 516 l 488 453 q 459 461 475 442 q 462 482 444 481 l 451 567 q 451 582 450 569 q 458 597 452 595 l 477 607 q 486 575 479 590 q 504 563 492 559 l 599 592 l 732 647 l 836 676 q 870 684 866 685 q 894 666 875 684 q 915 641 913 648 l 920 618 l 876 608 l 782 544 q 742 512 746 519 q 739 492 739 505 q 746 460 739 483 q 752 431 752 438 l 749 390 q 808 390 764 361 q 815 416 808 409 q 844 424 821 424 q 865 421 849 423 q 900 418 881 419 q 926 408 918 418 q 930 390 933 399 l 886 382 l 798 357 l 754 338 l 757 100 q 753 32 757 60 q 736 -25 749 4 q 716 -64 723 -55 q 684 -92 709 -73 q 604 -120 660 -111 q 542 -129 549 -130 l 521 -127 l 491 -126 q 480 -121 484 -125 q 476 -106 476 -117 q 488 -94 475 -96 l 572 -75 q 623 -56 607 -68 q 663 -9 638 -44 q 690 51 688 26 l 696 102 l 699 306 l 696 328 l 580 306 l 562 297 l 471 229 l 448 245 q 447 258 448 252 q 446 267 447 265 l 434 279 l 422 299 m 481 311 l 668 351 l 697 370 l 686 469 l 581 387 l 490 330 l 481 311 l 481 311 m 720 595 l 722 592 l 726 590 l 728 589 l 731 589 l 731 581 l 734 578 l 736 576 l 739 574 l 745 581 l 759 581 l 760 583 l 764 585 l 766 585 l 766 587 l 768 590 l 777 599 l 783 603 l 785 605 l 790 605 l 790 607 l 791 610 l 799 616 l 800 619 l 802 622 l 807 627 l 810 629 l 816 632 l 819 633 l 823 633 l 826 636 l 826 647 l 828 649 l 830 649 l 832 650 l 836 653 l 836 655 l 827 655 l 821 653 l 819 653 l 813 651 l 811 651 l 799 647 l 797 647 l 794 646 l 790 644 l 781 641 l 773 641 l 765 633 l 764 631 l 764 629 l 762 627 l 757 627 l 751 625 l 747 625 l 744 626 l 743 627 l 741 627 l 739 626 l 730 623 l 728 623 l 726 622 l 722 620 l 718 619 l 718 614 l 718 612 l 718 609 l 724 604 l 718 598 l 720 595 m 511 657 l 581 740 q 628 779 586 746 q 672 828 669 812 l 686 880 q 730 869 718 878 l 755 843 l 778 827 q 782 811 780 809 l 511 657 z "},"":{"ha":1389,"x_min":300,"x_max":1074,"o":"m 300 88 l 441 153 l 538 203 l 576 212 l 673 244 l 673 292 l 578 252 l 534 233 l 653 322 l 669 374 q 608 340 608 354 l 596 286 q 585 291 586 292 l 571 281 q 540 288 547 278 l 528 303 l 515 299 l 431 274 q 408 259 428 273 q 375 247 388 245 q 347 262 363 248 q 328 268 331 264 q 323 288 324 273 q 345 328 322 302 l 398 389 q 437 429 431 427 l 452 437 l 559 524 q 629 564 595 551 q 672 588 664 576 q 677 615 680 600 l 674 656 l 581 614 q 541 609 572 610 l 491 605 q 458 618 463 604 q 460 634 454 633 l 472 631 l 580 667 l 673 698 l 677 724 l 661 817 l 660 823 l 581 770 l 543 739 l 450 674 q 416 650 424 644 l 393 660 l 382 652 l 461 721 l 600 850 l 671 938 l 665 985 q 691 995 684 995 q 720 986 698 994 q 744 973 741 979 l 749 958 l 767 951 q 781 926 781 945 q 772 900 781 906 l 672 836 l 741 789 l 741 737 q 773 742 763 737 l 823 777 q 855 777 830 779 q 861 766 859 769 l 909 745 q 918 729 915 741 q 892 713 920 718 l 872 711 l 858 697 l 827 705 l 787 676 l 745 667 l 763 628 q 764 621 764 625 q 752 576 766 601 q 739 544 737 551 l 753 450 l 760 448 q 779 485 768 469 q 796 511 791 500 q 802 524 801 523 l 815 528 l 815 548 l 859 659 l 954 646 l 978 629 l 999 625 q 1007 616 1004 621 q 1009 609 1009 611 q 1006 602 1008 605 l 995 595 l 908 496 l 880 463 q 1019 452 1023 493 q 987 426 1017 439 l 941 404 l 886 409 q 820 381 869 408 q 760 341 771 353 q 747 322 748 328 l 747 297 l 744 271 q 747 267 745 268 l 771 279 l 791 281 l 820 301 l 838 300 l 883 309 l 916 300 l 985 286 l 1015 267 q 1019 269 1018 269 l 1025 260 l 1021 264 l 1023 250 q 1034 254 1033 255 l 1061 236 l 1066 236 l 1074 230 l 1074 220 l 1067 223 l 1053 201 l 973 210 l 927 210 l 871 224 l 744 213 l 749 98 l 760 60 l 734 -66 l 730 -114 l 699 -134 q 678 -109 684 -119 q 670 -97 672 -99 l 654 -91 l 623 -62 q 598 -41 596 -46 q 605 -37 600 -37 l 616 -38 l 656 -41 l 664 -12 l 669 109 l 680 193 l 519 125 l 425 74 q 366 57 393 56 q 300 88 338 57 m 359 303 l 511 351 l 490 406 l 638 475 q 680 497 672 490 q 686 507 688 505 l 674 520 q 689 541 682 528 q 672 561 696 554 q 599 533 648 568 l 484 450 l 385 342 q 363 328 363 319 l 359 303 l 359 303 m 616 403 l 617 399 l 619 395 l 619 389 l 641 389 l 652 391 l 656 391 l 661 393 l 668 394 l 668 397 l 671 401 l 676 405 l 678 408 l 678 429 l 675 437 l 675 444 l 680 444 l 681 445 l 685 449 l 687 452 l 688 456 l 688 466 l 680 466 l 664 454 l 663 450 l 659 449 l 654 445 l 653 441 l 650 441 l 640 437 l 635 433 l 633 430 l 633 427 l 629 425 l 623 425 l 623 419 l 612 419 l 612 412 l 613 409 l 613 406 l 616 403 m 428 5 l 479 -21 l 570 66 q 573 50 573 56 q 562 20 574 43 l 545 -16 l 503 -61 q 516 -73 515 -69 q 495 -94 517 -77 l 473 -114 q 446 -114 457 -125 q 437 -98 439 -109 l 432 -68 q 424 -35 423 -36 l 428 5 m 860 139 l 903 123 l 987 111 q 1026 92 987 111 q 1061 68 1064 73 l 1053 54 q 1063 42 1061 46 l 1034 -20 l 1040 -33 q 1031 -47 1040 -38 q 1019 -58 1023 -56 l 966 -7 l 949 2 l 941 31 l 917 47 q 906 62 915 49 q 870 93 897 76 q 843 123 843 110 q 860 139 842 133 z "},"":{"ha":1389,"x_min":277,"x_max":1153,"o":"m 277 60 l 414 256 l 454 328 l 496 417 l 529 536 q 458 510 511 532 q 404 489 404 488 l 351 538 l 532 606 q 552 620 547 610 l 558 638 l 568 662 l 571 693 l 576 731 l 550 786 q 549 797 549 791 l 550 817 q 571 809 563 810 l 623 801 l 630 783 l 656 756 q 662 727 656 755 l 670 697 l 669 639 l 716 665 l 810 718 l 806 706 q 826 712 817 711 q 859 693 835 713 q 879 672 875 680 q 884 651 884 664 q 876 621 885 638 l 851 577 q 834 465 838 551 l 829 358 l 867 342 l 910 362 l 1029 354 l 1103 351 q 1119 338 1115 345 q 1126 309 1124 331 q 1140 256 1128 288 q 1151 219 1153 224 q 1107 196 1148 213 l 958 133 l 860 105 l 794 75 l 777 83 q 808 111 795 96 q 826 129 822 126 l 868 140 l 940 182 l 975 222 q 987 233 981 229 l 1022 245 q 1031 260 1027 249 q 994 271 1034 271 q 970 260 982 270 q 958 250 959 250 l 930 264 q 911 266 926 266 l 846 274 q 805 277 817 274 q 779 318 794 280 q 762 370 763 355 q 762 386 762 384 l 774 564 l 766 585 l 775 583 q 774 637 783 633 l 720 612 l 637 581 l 621 560 l 611 549 l 615 520 l 608 503 l 578 416 l 515 304 l 387 137 l 309 57 l 297 52 l 277 60 z "},"":{"ha":1389,"x_min":215,"x_max":1333,"o":"m 388 635 q 431 572 437 591 l 425 550 q 433 545 430 545 l 472 562 l 502 568 l 516 588 l 539 582 l 547 591 l 585 602 q 608 657 601 608 l 621 756 l 627 862 l 647 858 q 662 829 656 856 q 682 790 667 803 q 697 774 696 777 l 680 734 l 675 694 l 668 650 q 677 633 670 638 l 749 664 q 775 665 750 664 l 927 701 l 946 687 l 974 675 q 979 663 979 670 q 977 654 979 656 l 899 562 l 795 438 l 781 420 l 749 401 l 736 377 q 717 359 730 368 q 693 353 704 351 q 671 368 666 355 l 673 376 l 696 380 l 754 467 l 840 594 q 847 624 847 605 q 829 644 846 643 q 815 641 822 644 l 795 629 l 765 637 q 744 623 762 636 q 694 601 726 609 q 651 581 662 592 q 637 548 641 569 l 619 462 l 576 367 l 551 361 l 553 411 l 589 528 l 580 534 q 592 548 591 541 q 583 560 592 554 l 524 525 l 502 527 l 452 499 l 427 487 l 444 357 q 469 240 458 252 q 494 225 480 229 l 624 192 l 726 180 l 853 174 l 1120 193 l 1193 211 l 1234 212 q 1257 215 1242 212 q 1281 218 1273 219 q 1320 191 1333 213 l 1310 169 q 1303 173 1305 172 l 1273 155 l 1235 152 l 1192 123 l 964 104 l 805 115 l 694 121 l 677 121 l 670 130 l 629 128 l 559 151 l 469 172 q 435 198 457 178 q 402 238 414 218 q 389 292 390 258 l 387 355 l 389 427 q 370 445 384 437 q 329 428 357 454 q 323 432 325 431 l 301 429 l 275 456 l 215 486 l 215 493 l 361 524 q 389 543 381 528 l 388 593 l 392 619 l 388 635 l 388 635 z "},"":{"ha":1389,"x_min":259,"x_max":1066,"o":"m 477 764 q 501 766 498 763 l 524 789 l 490 800 l 394 804 q 340 821 354 805 l 309 850 q 319 856 315 854 l 357 849 l 370 853 l 411 845 l 450 854 q 455 845 452 851 q 461 838 458 838 l 565 831 l 573 804 l 749 873 l 766 867 l 801 886 q 819 885 805 888 l 905 887 l 962 870 l 979 872 q 994 851 987 857 l 1027 830 q 1044 807 1040 821 l 1066 701 l 1053 662 l 999 571 l 950 524 l 869 473 l 804 465 l 802 450 l 781 350 q 776 327 775 327 l 797 300 q 823 311 814 309 l 907 294 q 935 287 928 290 q 960 262 943 283 q 977 221 978 241 l 971 124 l 963 98 l 906 11 l 882 -9 l 790 -61 l 749 -71 l 728 -100 q 685 -127 629 -229 l 708 -61 q 652 -35 657 -45 l 624 10 l 639 14 l 640 -10 q 647 -6 645 -7 q 671 -24 648 -5 q 710 -28 694 -43 q 728 9 726 -13 q 700 66 729 32 q 637 96 671 100 q 623 92 629 95 l 571 50 q 541 49 552 38 q 529 71 530 60 q 532 88 529 81 l 541 103 l 544 144 q 557 171 546 157 q 583 192 568 184 l 673 238 l 701 254 l 713 289 q 722 298 713 289 q 740 348 730 308 l 759 408 l 764 454 q 693 456 720 451 q 640 488 665 460 q 614 532 614 515 q 627 587 613 549 q 635 600 631 599 l 647 600 l 656 615 q 670 616 657 616 l 726 640 l 741 634 l 793 625 q 806 568 804 585 q 808 530 808 551 l 808 509 l 841 512 l 943 581 l 971 613 q 982 637 974 616 l 1006 700 l 1004 738 l 1008 758 l 998 775 l 989 798 q 933 847 983 813 q 839 869 884 880 l 733 840 l 710 829 l 627 793 q 588 769 588 777 l 588 752 l 583 747 l 591 747 l 589 692 l 560 583 l 501 494 l 481 473 l 448 454 l 400 425 q 389 423 396 423 q 312 427 326 418 q 294 441 298 436 l 273 467 q 259 490 259 482 l 259 534 l 329 635 l 412 709 l 467 745 l 477 764 l 477 764 m 464 509 l 490 544 q 507 570 503 560 l 519 610 l 535 634 l 536 652 l 546 680 q 541 694 545 680 l 530 747 q 500 728 523 747 l 397 641 l 355 588 q 335 568 336 570 l 321 543 l 304 530 q 302 516 304 529 l 294 491 q 311 462 294 481 q 351 443 328 442 q 386 452 374 443 l 464 509 m 591 132 l 593 127 l 600 127 l 602 130 l 605 132 l 607 132 l 616 142 l 617 144 l 619 146 l 623 150 l 625 150 l 626 153 l 627 157 l 627 159 l 631 163 l 631 165 l 633 165 l 635 167 l 638 168 l 645 168 l 645 170 l 647 173 l 649 175 l 649 184 l 651 186 l 653 190 l 655 194 l 657 197 l 663 203 l 663 208 l 660 208 l 654 205 l 648 205 l 644 202 l 642 202 l 639 201 l 637 200 l 633 197 l 633 196 l 633 194 l 631 192 l 629 192 l 623 189 l 616 182 l 611 172 l 610 170 l 608 170 l 604 165 l 603 163 l 601 161 l 597 157 l 597 155 l 595 153 l 593 151 l 593 146 l 591 140 l 591 134 l 591 132 m 761 492 q 767 506 766 501 l 758 557 l 757 576 q 718 601 750 601 q 665 580 686 602 q 646 536 645 559 q 709 492 646 489 l 732 492 l 761 492 l 761 492 m 653 113 q 721 102 711 112 l 785 30 l 785 -5 l 841 9 l 920 112 l 928 193 q 929 229 929 199 q 887 267 928 258 l 862 270 q 833 272 838 273 l 726 242 l 673 152 l 653 113 z "},"":{"ha":1389,"x_min":205,"x_max":1099,"o":"m 205 607 l 222 616 l 323 644 q 328 640 326 641 l 349 661 l 378 652 l 397 678 q 407 673 403 673 l 459 682 l 475 675 l 526 700 l 551 688 l 567 696 l 671 705 l 666 810 l 648 809 l 543 817 l 532 836 l 663 837 l 660 947 l 661 979 l 633 995 q 656 1030 646 1031 l 684 1015 l 728 1015 q 735 1004 733 1010 q 730 976 736 997 q 724 947 723 954 l 726 916 l 716 921 l 718 837 l 856 835 l 924 821 l 950 827 q 972 800 952 826 l 985 784 l 991 766 l 1003 749 l 1010 729 l 1061 732 q 1087 722 1075 732 q 1098 704 1099 711 q 1078 692 1098 696 l 974 665 l 920 669 q 903 661 907 668 l 901 652 l 880 633 l 869 616 l 905 597 l 882 580 l 791 528 q 779 529 789 526 q 741 526 768 533 q 708 515 713 518 q 703 498 704 511 q 705 486 703 492 l 711 465 l 704 448 q 720 436 715 435 q 757 453 724 436 q 791 469 790 470 l 829 443 l 751 404 q 711 371 705 380 l 718 359 q 709 333 706 337 l 716 308 l 734 302 l 834 351 q 827 348 830 347 q 824 350 824 348 q 827 357 823 353 q 841 362 830 361 q 897 349 857 363 q 933 325 936 334 q 918 311 930 317 l 895 305 l 823 286 l 755 256 q 720 244 720 246 l 710 204 q 686 221 681 213 l 688 227 q 604 209 624 235 l 549 136 l 539 121 q 533 130 534 127 l 559 168 l 571 201 l 579 209 l 430 168 l 401 160 l 384 168 q 374 163 374 162 l 355 189 l 456 207 l 469 222 l 574 248 q 667 281 660 269 q 671 309 674 292 l 666 359 l 515 307 l 412 289 q 379 298 370 281 l 398 307 q 399 311 399 308 l 399 317 l 404 317 l 509 348 l 620 391 q 672 420 673 411 q 667 443 671 430 q 664 471 663 456 l 665 496 l 536 457 q 497 469 528 454 q 467 489 467 484 l 462 503 q 519 511 511 507 l 572 535 l 576 519 q 602 539 591 535 l 666 553 q 672 567 671 559 q 667 583 672 574 q 659 599 659 596 l 667 651 q 645 668 660 671 l 519 643 l 471 621 l 463 625 l 296 595 l 205 607 m 703 592 l 708 574 l 724 574 l 774 600 l 821 616 q 832 629 828 622 l 837 667 l 847 687 l 811 686 l 710 680 l 703 592 m 704 719 q 741 729 720 715 q 755 719 752 716 l 770 727 q 782 734 777 732 l 824 728 l 832 735 q 885 745 884 725 q 876 768 885 765 l 783 795 l 737 800 l 727 806 l 717 797 q 705 798 710 806 l 715 737 l 704 719 l 704 719 m 488 -53 q 493 -43 492 -47 l 489 37 l 516 81 q 521 62 518 62 l 551 51 l 623 122 l 821 186 l 902 217 q 912 219 908 219 q 950 210 917 220 q 986 199 983 201 q 994 190 989 197 q 1001 174 999 184 l 1006 140 l 1012 131 q 1016 112 1015 123 q 1008 90 1016 101 l 947 2 l 911 -44 l 819 -124 l 789 -140 l 788 -167 l 784 -178 l 779 -209 q 758 -216 769 -229 q 752 -195 750 -207 l 753 -182 l 746 -182 l 737 -144 q 675 -141 679 -150 l 642 -95 l 656 -83 q 653 -90 653 -87 q 666 -95 652 -94 l 687 -95 q 704 -99 689 -96 q 727 -102 719 -102 q 740 -94 734 -102 l 736 -56 q 734 -38 734 -39 l 730 -28 l 739 -18 l 725 38 l 737 48 l 747 58 q 760 55 753 61 l 769 41 l 785 26 q 793 -2 792 18 q 791 -30 793 -15 l 788 -66 q 806 -71 795 -69 q 854 -27 817 -73 l 909 39 l 954 130 q 959 146 959 140 q 956 158 958 152 q 951 167 954 164 l 919 153 l 899 151 l 666 111 q 633 94 662 110 q 602 71 604 77 l 598 51 l 587 35 l 592 23 l 584 12 q 582 -18 582 -3 q 589 -37 583 -33 l 597 -43 l 587 -84 q 600 -127 600 -117 q 591 -139 599 -139 q 576 -134 587 -140 q 568 -125 564 -129 l 571 -119 l 532 -106 l 535 -92 l 488 -53 z "},"":{"ha":1389,"x_min":224,"x_max":1212,"o":"m 418 558 q 408 504 416 517 q 400 489 400 490 l 405 452 q 408 426 406 427 l 420 411 q 411 397 420 399 q 393 404 401 395 q 364 453 374 421 q 354 512 355 486 q 369 571 354 538 l 434 680 l 460 749 q 384 740 414 746 q 339 736 355 734 q 317 747 323 738 q 311 767 311 757 q 328 781 312 777 q 358 773 332 781 q 466 798 383 766 l 440 926 q 489 921 471 920 q 511 917 506 921 q 520 901 517 913 l 521 832 q 528 814 522 819 l 616 837 q 627 807 631 827 q 622 798 625 802 l 526 772 l 509 724 l 425 592 l 458 610 l 568 654 q 583 637 576 641 l 604 629 q 589 575 606 627 l 580 536 l 532 481 l 537 440 l 532 418 l 551 372 q 574 385 571 389 l 605 354 q 594 346 596 349 l 586 319 l 550 302 q 534 266 534 294 l 522 -14 q 513 -20 514 -18 l 511 -47 l 467 -77 l 431 -17 l 448 69 l 456 184 l 467 255 q 446 245 458 256 l 425 219 q 420 216 422 218 l 383 199 l 357 174 q 295 138 296 134 l 296 134 q 277 114 281 123 q 272 106 274 106 l 264 106 q 259 93 262 105 q 240 106 256 81 q 224 134 224 131 q 228 143 224 138 l 255 166 l 370 286 q 448 370 448 367 l 427 442 l 477 447 q 507 487 479 448 q 538 545 534 525 q 546 572 543 566 q 550 587 549 579 q 513 597 550 595 q 494 594 503 597 l 428 551 l 418 558 l 418 558 m 364 250 l 481 300 q 491 310 484 301 q 498 336 498 319 q 488 365 497 357 q 474 374 479 372 q 449 351 469 375 l 364 250 m 796 -5 l 798 -34 l 833 -43 l 1021 -15 l 1126 16 q 1147 25 1142 20 q 1152 48 1153 31 q 1151 71 1152 66 q 1153 84 1151 75 l 1171 185 l 1199 67 l 1198 10 l 1212 -30 l 1000 -64 l 824 -81 l 800 -83 q 774 -56 791 -82 q 755 -21 756 -30 q 772 34 754 -13 l 842 220 l 865 281 q 847 310 861 318 l 755 259 q 748 255 749 255 q 727 256 747 254 l 687 256 l 676 281 q 671 298 668 295 l 689 319 l 889 366 q 923 357 909 370 q 938 328 937 343 q 925 295 939 312 q 910 273 911 277 l 802 17 l 796 -5 m 869 977 q 910 966 904 972 q 924 924 916 960 q 934 888 933 889 l 916 830 l 911 804 l 895 783 l 889 760 l 854 692 q 920 705 891 697 q 981 711 948 713 q 1013 692 1013 709 q 996 656 1013 674 l 896 554 l 823 475 l 801 467 l 869 557 l 916 643 q 928 661 928 654 q 916 675 929 667 q 848 637 903 683 q 813 620 827 621 l 766 614 q 756 633 762 629 l 746 637 q 739 647 740 640 q 747 665 737 654 l 795 711 l 806 737 l 842 783 l 854 827 l 890 943 l 869 977 l 869 977 z "},"":{"ha":1389,"x_min":371,"x_max":1076,"o":"m 371 227 l 418 222 l 519 241 l 618 252 l 644 267 l 745 286 q 759 286 754 284 l 785 300 l 893 313 l 979 330 q 1012 323 989 329 q 1043 317 1034 317 q 1044 317 1044 317 l 1060 319 q 1076 288 1076 317 q 1067 265 1076 274 q 1048 254 1059 256 l 937 238 l 761 209 l 703 199 l 573 171 q 553 175 572 170 l 486 151 q 431 155 448 140 l 416 168 l 396 172 l 386 193 l 371 227 l 371 227 m 896 620 q 884 608 882 610 l 892 595 l 755 574 l 722 553 l 618 519 l 616 507 q 599 503 600 505 l 585 486 q 566 498 572 496 l 503 488 l 483 505 q 473 526 479 521 l 451 536 l 448 548 l 437 563 q 446 572 437 568 q 487 566 446 572 l 550 588 l 682 624 l 774 644 l 896 620 z "},"":{"ha":1389,"x_min":469,"x_max":868,"o":"m 757 485 q 785 493 777 488 l 810 513 l 820 514 l 868 492 l 864 469 l 764 444 l 774 374 l 772 260 l 768 96 l 761 2 l 758 -45 l 734 -75 l 695 -79 l 595 -75 l 511 -58 l 644 -32 q 695 -12 687 -24 q 707 20 704 -1 q 712 51 711 41 l 723 166 l 723 298 l 729 317 l 731 430 l 604 377 l 547 351 q 532 350 540 350 q 506 355 513 349 q 494 367 498 361 l 482 385 q 469 406 469 402 q 473 414 469 410 l 537 389 q 568 400 538 388 l 664 437 l 726 469 l 713 569 q 690 617 708 608 q 670 631 671 627 q 675 642 669 635 l 721 630 l 754 627 l 755 612 l 762 595 l 757 485 m 561 741 l 578 745 l 661 777 l 724 791 q 751 801 749 800 l 779 801 l 808 810 q 831 764 835 807 q 820 744 830 749 l 759 732 l 753 722 l 736 724 l 648 705 q 582 719 604 696 q 559 733 561 741 l 561 741 z "},"":{"ha":1389,"x_min":315,"x_max":1087,"o":"m 553 831 l 553 819 l 502 696 l 399 532 l 509 603 l 568 638 l 665 670 q 682 695 684 676 q 670 760 680 715 q 722 752 722 762 l 728 700 l 867 728 l 967 728 l 1038 709 q 1056 703 1052 705 l 1073 677 q 1087 652 1086 659 q 1074 640 1087 645 l 961 595 l 848 575 l 727 609 q 720 538 718 551 l 724 479 l 823 506 q 836 494 830 497 l 864 480 q 874 456 869 475 q 880 431 880 437 q 868 399 881 425 q 838 366 854 373 l 755 325 l 736 328 q 762 354 752 347 l 788 369 q 819 399 803 378 q 832 442 834 419 q 787 467 830 465 q 759 465 784 467 q 727 456 734 462 q 717 442 720 451 l 709 378 q 680 386 680 367 l 671 416 q 683 433 685 429 l 678 444 l 657 435 l 575 372 l 557 410 l 678 467 l 683 598 q 673 653 684 654 q 640 637 663 652 l 566 589 l 545 584 l 451 516 l 411 473 l 394 458 q 378 391 382 446 q 355 339 373 336 q 336 352 347 340 q 324 372 326 363 l 319 406 q 315 422 315 420 l 322 464 l 366 572 l 482 714 l 553 831 m 979 692 l 862 693 l 838 688 l 732 664 q 717 640 723 661 q 776 617 711 618 q 804 622 787 616 q 826 627 822 627 l 882 631 l 905 643 l 935 650 q 970 670 966 656 l 979 692 l 979 692 m 499 12 l 587 52 l 608 66 l 667 80 l 743 131 l 753 151 l 774 134 l 789 136 l 804 127 l 840 112 q 825 90 831 86 l 818 94 l 814 81 q 809 85 810 85 q 795 75 808 85 l 776 54 l 743 26 l 670 -83 l 806 -61 q 859 -77 866 -52 l 857 -83 q 845 -121 852 -113 q 810 -138 838 -128 l 766 -155 q 760 -157 762 -157 q 749 -153 753 -157 l 766 -127 q 767 -117 768 -123 q 748 -98 767 -110 l 736 -105 q 724 -105 734 -106 q 686 -117 714 -104 l 626 -132 l 606 -142 q 593 -104 587 -111 l 633 -94 q 655 -65 648 -87 q 665 -38 661 -43 l 713 47 q 726 79 727 73 q 720 89 725 84 l 639 38 l 565 5 l 499 12 m 532 980 l 626 994 q 659 1000 652 997 l 690 1017 l 732 1026 q 739 1004 733 1008 l 771 998 l 784 990 l 779 962 l 631 936 l 575 941 q 572 949 574 947 l 534 970 l 532 980 l 532 980 m 550 189 q 559 212 553 207 l 614 222 l 689 258 q 713 262 690 258 q 743 271 735 267 l 779 297 q 790 300 785 300 q 802 296 795 300 q 812 292 810 292 l 827 289 q 834 276 834 285 q 826 264 835 268 l 681 203 q 576 179 614 174 l 550 189 z "},"":{"ha":1389,"x_min":233,"x_max":1137,"o":"m 233 79 q 334 130 304 138 l 363 123 l 414 145 l 415 186 l 524 387 q 486 412 497 401 q 470 437 475 422 q 465 460 464 451 q 467 471 465 465 q 475 478 469 477 q 486 470 475 478 q 503 462 496 461 q 514 464 506 462 q 523 467 522 466 l 554 463 q 588 483 575 463 l 715 678 l 736 718 l 768 752 q 767 760 768 753 q 755 770 766 767 q 736 764 750 770 q 709 751 723 757 l 626 726 q 574 715 589 713 q 552 724 561 716 q 544 745 543 732 q 553 763 544 760 l 567 764 l 762 833 l 779 838 q 802 831 783 838 l 859 825 q 893 797 894 816 q 880 777 892 786 l 838 762 q 814 741 824 755 l 759 656 l 644 497 l 754 528 l 772 543 q 792 547 777 546 q 829 553 807 548 q 858 557 850 557 q 878 552 869 557 q 903 529 887 548 q 922 502 919 510 q 919 468 924 493 q 910 437 913 443 l 872 361 l 798 258 l 1034 281 l 1074 290 q 1107 262 1084 288 q 1133 230 1130 237 q 1136 204 1135 222 q 1097 175 1137 185 l 1019 155 l 1004 146 l 914 90 l 823 74 l 977 186 l 991 224 l 833 205 l 812 203 l 812 191 l 683 161 q 578 127 589 138 q 567 118 568 115 l 555 127 l 371 54 q 300 37 323 35 q 233 79 276 39 m 846 488 l 730 467 l 709 448 l 597 408 l 503 229 l 487 208 q 485 194 486 204 q 497 180 484 183 q 541 184 511 176 l 683 218 l 739 241 l 784 334 q 825 412 797 361 q 850 471 853 464 l 846 488 l 846 488 z "},"":{"ha":1389,"x_min":336,"x_max":1096,"o":"m 336 90 l 352 99 l 484 80 l 513 91 l 605 154 l 682 226 l 531 288 q 596 281 574 286 l 674 256 q 709 264 699 249 l 775 366 l 834 470 q 818 494 840 481 l 760 502 q 743 510 743 505 q 766 517 743 515 l 852 524 l 845 519 q 885 506 878 516 q 891 492 891 496 q 889 486 890 489 l 870 468 l 863 449 l 818 366 l 724 235 l 923 197 q 957 186 954 184 l 1046 252 l 1051 208 q 1061 190 1057 195 l 1085 172 l 1096 153 q 1059 146 1071 150 l 1024 130 q 972 131 1002 122 l 848 167 l 763 189 l 723 205 q 706 201 716 205 q 665 151 696 197 q 620 97 635 106 q 602 83 604 88 l 597 67 l 581 58 l 579 51 l 486 10 q 457 7 481 8 q 419 21 433 6 q 404 37 406 37 l 388 35 l 360 74 l 336 90 l 336 90 m 374 228 l 373 243 l 469 330 l 480 348 l 587 493 q 619 548 587 494 l 644 587 q 647 597 647 593 q 644 602 646 597 q 642 608 642 606 l 606 591 l 590 591 q 569 583 585 590 q 539 576 553 576 q 481 597 495 576 q 469 622 467 619 l 480 623 l 495 628 l 522 618 l 647 642 q 669 656 651 642 l 727 687 l 758 718 q 782 715 771 724 l 789 705 l 799 696 q 805 681 805 688 q 798 669 804 672 l 781 665 l 751 640 l 712 623 q 678 592 692 614 l 623 484 q 593 431 589 456 l 583 423 l 515 332 l 492 295 l 408 198 l 374 228 m 593 897 q 667 860 656 879 q 675 836 677 840 l 669 806 q 618 838 628 823 l 601 867 q 587 891 583 887 l 593 897 z "},"":{"ha":1389,"x_min":284,"x_max":1106,"o":"m 615 266 l 650 264 l 749 281 l 851 274 l 975 294 q 1030 279 987 296 q 1078 257 1074 262 q 1094 225 1082 252 q 1105 191 1106 197 l 1086 164 q 1080 157 1081 157 q 1057 168 1079 156 l 1009 164 l 988 171 l 964 175 q 949 192 949 181 q 977 217 949 203 q 1007 245 1006 231 q 1000 256 1009 258 l 880 232 l 886 222 q 854 222 859 222 l 818 212 q 810 211 813 211 q 797 214 803 210 q 787 224 791 217 l 782 233 q 728 245 768 256 l 530 186 l 421 136 q 367 113 374 114 q 321 140 359 113 q 288 175 284 168 l 294 186 l 406 205 l 591 250 l 615 266 m 550 581 l 566 735 l 577 849 l 550 907 q 555 913 553 911 l 577 895 l 597 890 q 608 874 601 888 q 616 856 616 860 l 627 741 l 625 722 l 589 579 l 605 571 l 714 600 l 822 634 q 900 647 866 648 q 937 631 934 645 l 936 613 q 954 592 937 608 q 965 571 970 577 l 954 553 l 877 568 l 763 530 l 638 490 l 550 581 z "},"":{"ha":1389,"x_min":356,"x_max":928,"o":"m 356 204 q 367 222 362 217 l 403 248 q 421 266 414 269 q 422 261 428 264 l 406 243 q 404 224 402 236 q 420 223 405 212 l 511 284 l 625 357 q 682 386 639 366 q 741 418 726 406 q 762 432 756 430 l 807 437 l 838 456 q 882 447 870 465 l 887 431 l 899 414 q 900 406 899 410 q 896 396 900 402 l 871 370 l 854 340 l 766 247 l 701 193 q 690 173 690 181 q 693 163 690 168 q 703 153 696 158 l 742 130 q 760 106 758 119 l 762 90 l 772 74 l 792 -23 l 792 -39 q 784 -83 792 -44 l 774 -151 q 757 -191 768 -176 q 726 -218 745 -205 l 628 -203 q 584 -188 603 -199 q 545 -144 564 -176 q 551 -133 549 -134 l 566 -147 q 596 -156 570 -153 q 636 -159 622 -159 q 679 -149 669 -158 l 718 -119 l 712 -111 q 732 -90 730 -100 l 739 -62 q 745 -57 745 -58 l 744 -52 q 744 -47 743 -51 l 732 26 q 718 87 728 81 l 708 92 l 682 140 q 648 172 648 172 q 665 189 648 171 l 742 276 l 812 359 l 849 425 l 813 420 l 718 377 l 659 340 q 644 334 646 336 l 633 318 l 479 201 l 427 158 l 401 168 l 397 176 q 356 204 378 170 m 787 757 l 789 750 l 782 553 l 767 456 l 748 446 q 723 462 726 454 l 730 515 l 724 529 l 629 496 q 620 475 629 495 l 613 464 l 619 419 l 607 403 l 608 373 q 589 370 602 359 q 568 422 567 388 l 568 446 q 581 453 576 448 q 585 471 587 458 l 581 503 q 563 524 571 522 l 536 522 l 528 544 q 568 548 547 547 q 591 550 589 548 l 591 596 q 588 629 592 627 l 578 631 l 596 675 l 597 768 l 616 787 q 604 796 606 795 q 574 782 601 797 q 540 766 547 767 q 509 771 535 766 q 479 780 483 777 l 459 804 q 449 821 446 817 l 458 833 l 564 842 l 623 854 q 693 866 690 864 l 730 899 q 743 903 737 903 q 753 902 747 903 l 779 895 l 907 925 q 922 910 916 920 q 928 885 928 901 q 909 867 927 869 l 830 854 q 802 843 807 850 l 806 778 l 787 757 l 787 757 m 724 615 l 735 627 q 744 668 741 632 l 751 724 l 743 761 l 753 801 l 743 830 l 645 807 l 632 728 q 715 677 719 696 q 692 661 711 659 q 636 685 674 663 l 628 606 l 625 582 l 631 566 l 624 545 q 643 540 625 540 q 705 558 667 539 q 732 595 743 578 l 724 615 l 724 615 m 625 1042 q 644 1053 625 1050 q 688 1049 663 1055 q 720 1035 713 1044 q 727 1001 727 1027 q 705 972 728 975 q 657 994 682 970 q 650 1001 652 998 l 644 1021 l 625 1042 l 625 1042 z "},"":{"ha":1389,"x_min":216,"x_max":1166,"o":"m 966 747 q 959 735 962 736 l 938 741 l 902 720 l 877 725 l 842 715 l 808 713 l 826 732 l 880 747 q 898 758 882 747 q 954 780 913 768 q 995 808 994 793 l 997 827 q 985 817 989 819 l 945 825 l 852 796 l 750 778 q 687 762 690 767 l 676 750 l 664 755 l 529 720 l 498 702 l 380 643 l 346 641 l 247 682 l 237 688 l 234 688 q 245 709 216 695 l 277 700 q 294 709 281 700 q 327 722 307 718 q 351 732 346 726 l 359 743 l 398 736 l 534 770 l 554 772 l 663 796 l 692 810 l 842 830 l 964 856 l 1055 853 q 1073 858 1072 857 l 1117 841 q 1126 840 1124 840 l 1134 831 l 1158 821 l 1158 810 l 1166 785 q 1154 776 1163 777 l 1068 761 l 1040 744 l 983 749 l 966 747 l 966 747 m 368 11 q 378 41 371 37 l 420 37 q 423 37 421 37 q 463 50 448 38 q 481 62 477 61 l 504 60 l 534 72 l 545 69 q 532 44 538 51 l 481 6 q 425 -41 426 -42 l 403 -37 l 368 11 m 572 591 l 583 567 l 568 454 l 571 348 l 584 318 l 593 292 q 616 276 600 279 q 647 280 620 275 q 678 287 675 285 l 705 334 q 777 323 728 360 l 793 462 l 794 491 l 802 573 l 802 591 q 799 607 802 604 q 791 610 796 610 q 776 608 787 610 l 745 605 l 631 581 q 641 595 636 592 l 665 602 l 689 621 q 722 635 689 621 l 768 663 q 817 684 808 685 q 838 672 821 684 q 863 653 855 661 q 874 644 871 646 l 863 616 l 843 526 l 824 412 l 827 389 l 819 359 l 819 333 l 808 310 q 821 283 818 292 q 824 262 823 274 q 818 240 824 250 q 808 227 811 229 l 758 261 q 734 255 753 262 q 711 243 716 249 q 707 226 707 237 l 707 -43 l 716 -90 l 701 -131 l 578 -21 l 578 -3 q 626 -18 605 -5 q 651 -30 648 -31 q 668 -23 654 -29 q 679 -14 682 -17 l 672 -4 q 682 45 684 36 l 672 87 l 684 247 q 655 251 667 246 q 635 253 642 255 q 633 245 629 250 l 640 229 q 615 210 617 215 l 602 187 q 581 214 593 198 q 567 259 569 230 q 564 290 565 288 q 546 313 563 292 q 529 345 528 333 q 530 362 529 357 l 538 392 l 543 479 q 558 558 546 531 l 572 591 l 572 591 m 709 305 l 711 299 l 713 296 l 714 292 l 723 292 l 726 290 l 728 289 l 729 289 l 730 290 l 739 294 l 745 294 l 751 296 l 762 296 l 764 294 l 767 296 l 762 302 l 759 302 l 759 304 l 754 309 l 752 312 l 751 313 l 749 315 l 747 315 l 745 315 l 742 318 l 741 319 l 737 321 l 734 325 l 730 326 l 724 328 l 723 330 l 721 330 l 718 326 l 716 323 l 714 320 l 711 317 l 709 313 l 708 310 l 708 309 l 709 305 m 614 1002 l 709 1001 q 740 974 722 1000 q 734 937 758 947 l 699 944 l 669 947 l 654 958 l 589 973 q 566 991 568 980 q 570 1009 564 1003 l 614 1002 l 614 1002 m 610 473 l 706 509 q 732 503 720 514 q 744 479 744 492 q 739 463 743 466 l 648 408 l 672 455 q 622 457 627 446 l 610 473 l 610 473 m 892 95 l 995 75 q 1082 48 1073 60 q 1093 26 1092 37 q 1082 -1 1095 14 q 1078 -5 1079 -5 l 1051 2 l 1043 0 l 1029 15 l 1019 18 l 903 60 l 892 95 z "},"":{"ha":1389,"x_min":303,"x_max":1332,"o":"m 458 473 l 490 478 l 577 581 l 647 665 l 682 715 q 722 781 708 749 q 742 812 736 813 q 754 802 747 810 q 761 789 761 794 q 757 770 762 784 l 739 715 l 682 629 l 568 486 q 539 450 539 450 q 547 449 540 449 l 650 445 l 683 430 l 704 427 l 726 410 l 736 413 l 793 392 l 886 338 l 932 317 l 941 302 l 956 299 l 1089 250 l 1226 205 q 1322 146 1332 170 l 1289 144 l 1213 126 l 1165 132 l 1065 134 l 1038 146 l 937 216 l 862 279 l 734 351 l 637 399 l 608 403 l 511 418 q 493 404 500 420 l 486 385 l 454 366 l 441 348 l 382 289 l 375 290 q 334 253 359 268 l 317 229 q 306 227 309 223 q 303 236 303 231 q 305 243 303 239 l 324 264 l 345 302 l 366 321 l 419 401 l 417 425 l 439 431 q 455 445 442 431 q 466 460 467 458 l 458 473 l 458 473 z "},"":{"ha":1389,"x_min":235,"x_max":1119,"o":"m 274 526 q 291 531 288 528 q 304 565 294 533 l 330 606 l 378 685 l 416 785 l 460 799 q 477 736 477 751 q 477 706 478 721 q 456 661 476 692 l 350 500 l 337 477 l 248 387 l 242 378 q 235 385 236 376 q 235 397 235 394 l 269 490 l 279 514 l 274 526 l 274 526 m 308 190 q 328 230 317 210 q 342 258 339 250 q 349 295 346 266 l 360 449 q 370 439 368 442 l 373 419 l 397 397 q 406 366 401 391 l 420 300 l 409 216 l 406 157 q 391 118 402 143 q 371 94 380 94 q 344 113 368 93 l 337 108 l 340 138 q 324 150 324 147 l 308 190 l 308 190 m 478 454 l 518 454 l 700 499 q 753 524 744 510 q 758 583 763 537 l 745 701 l 736 760 q 728 809 729 808 l 704 840 q 715 861 701 864 l 790 845 l 793 825 q 827 810 821 819 l 837 777 q 842 762 842 764 l 831 542 q 838 532 836 532 l 852 523 l 964 546 q 984 550 983 549 l 999 566 q 1023 568 1006 570 q 1035 550 1029 552 l 1053 547 q 1064 538 1054 547 l 1090 515 q 1115 478 1119 488 l 1110 464 l 1027 461 l 945 468 q 883 464 932 469 q 831 452 834 459 l 831 429 l 826 408 l 837 33 l 831 -20 q 827 -82 831 -78 q 806 -96 823 -86 q 774 -111 789 -106 q 758 -110 759 -115 q 763 -91 757 -105 q 769 -56 769 -77 l 761 307 l 765 444 l 670 413 l 642 397 l 615 393 l 610 385 q 582 377 592 377 q 555 385 572 376 q 536 393 538 393 l 526 393 l 478 454 z "},"":{"ha":1389,"x_min":340,"x_max":1093,"o":"m 453 761 l 506 798 l 514 760 q 514 746 515 752 q 511 736 514 740 l 497 725 l 431 556 l 384 475 l 391 475 q 382 468 384 471 l 385 444 l 380 437 q 340 466 340 454 q 342 483 340 478 l 383 566 l 408 625 l 450 729 l 453 761 m 410 186 q 433 204 435 172 l 424 308 l 428 342 l 450 328 l 473 214 l 468 104 l 455 87 l 410 186 m 1059 321 q 1084 290 1076 302 q 1092 260 1093 277 q 1079 241 1092 243 l 985 224 l 936 225 l 830 271 l 819 294 l 803 319 q 811 323 806 322 q 817 321 814 323 l 837 305 q 874 294 852 292 q 901 296 876 294 q 972 297 926 298 q 1029 303 1019 296 l 1059 321 l 1059 321 m 865 571 l 871 594 q 913 594 893 595 q 935 594 933 593 q 946 595 942 594 l 980 616 l 1010 610 l 1045 625 q 1050 625 1047 625 q 1065 620 1060 623 l 1075 591 l 1091 568 q 1079 550 1090 564 q 1065 534 1067 535 l 1011 541 l 958 536 q 937 531 938 539 q 939 523 935 523 l 928 521 l 916 551 q 906 545 909 545 l 887 559 l 865 571 l 865 571 z "},"":{"ha":1389,"x_min":115,"x_max":1168,"o":"m 147 394 l 155 410 l 251 620 l 328 774 l 442 960 l 464 991 l 467 966 l 423 860 l 355 750 l 296 640 l 286 620 l 259 571 l 239 508 q 249 478 262 493 q 228 470 248 477 q 197 414 209 464 l 174 324 l 167 294 l 157 298 q 161 292 160 294 l 148 260 q 151 255 150 255 l 135 254 l 146 265 l 121 268 q 127 276 126 273 l 115 322 q 134 342 116 325 q 149 382 151 360 l 147 394 l 147 394 m 294 536 l 280 395 l 278 363 l 261 224 l 258 39 l 257 -51 l 273 -151 l 266 -172 q 248 -168 249 -173 l 248 -151 q 234 -136 248 -147 q 222 -97 220 -124 l 226 27 l 233 152 q 237 201 236 199 l 247 231 l 241 265 q 240 272 241 268 q 247 332 240 275 q 266 450 258 437 q 273 469 273 464 l 269 517 l 294 536 l 294 536 m 738 604 l 713 696 l 708 764 q 672 745 690 753 q 636 711 654 736 q 621 686 618 686 q 601 699 613 686 q 586 729 588 711 q 612 785 585 747 q 623 796 619 794 l 659 783 q 679 788 661 783 q 700 799 696 794 q 705 811 704 804 q 697 871 706 819 q 692 899 692 896 l 677 938 l 688 958 l 723 926 l 741 814 l 873 869 l 888 983 l 891 1002 q 856 1019 852 1008 l 863 1040 l 859 1045 q 878 1036 871 1038 l 937 1021 q 949 1013 947 1017 l 937 993 l 932 967 l 909 875 l 1006 907 l 1107 924 l 1168 876 l 1024 777 l 1008 766 l 919 720 l 897 707 q 896 693 898 694 l 869 701 q 864 686 867 699 q 861 658 861 673 q 866 642 861 644 q 894 643 871 640 q 928 657 916 646 l 952 681 l 1001 682 l 1062 709 l 1101 703 l 1115 705 l 1115 673 l 966 623 q 980 591 975 604 q 985 564 985 578 q 977 537 985 549 l 920 453 l 895 422 l 816 347 l 842 351 l 945 386 l 976 410 q 1000 412 983 413 q 997 405 997 407 l 1010 358 q 975 340 1008 355 l 866 292 q 792 249 795 261 q 789 230 788 237 l 791 208 q 800 203 797 203 l 869 227 l 986 258 q 969 279 967 271 q 980 290 971 288 q 1008 284 989 292 l 1054 263 l 1062 234 l 835 186 q 789 174 792 177 q 787 167 786 170 l 789 159 l 788 151 l 793 9 l 789 -43 l 801 -127 q 800 -134 801 -128 q 793 -149 800 -139 q 784 -160 786 -159 q 768 -153 782 -161 q 754 -144 754 -144 l 695 -76 q 679 -66 686 -66 q 665 -77 672 -66 l 643 -114 l 626 -126 l 627 -134 q 589 -164 605 -165 q 568 -146 572 -163 l 560 -49 q 559 -15 559 -40 q 572 24 559 9 q 597 28 584 39 l 583 -62 l 593 -81 l 682 -28 l 756 25 l 757 123 l 753 165 l 655 149 q 630 157 643 146 q 612 180 605 178 l 651 208 q 671 188 663 191 l 713 191 l 741 192 q 762 218 769 201 l 758 235 q 725 222 732 220 l 709 226 l 809 298 l 764 294 l 648 252 l 617 264 q 619 269 618 267 l 601 301 q 604 312 600 307 l 675 310 l 779 340 l 802 356 l 860 435 l 878 453 l 935 556 q 927 576 939 564 q 899 589 915 588 q 864 581 884 589 q 782 519 843 572 q 743 471 721 465 l 766 476 l 739 370 q 731 361 736 361 q 720 368 725 361 l 702 405 q 690 418 698 411 q 682 427 683 425 l 700 459 l 700 486 l 723 504 l 741 528 l 753 534 l 762 547 l 789 556 l 797 576 l 785 576 l 669 546 q 546 524 569 520 q 510 539 524 527 q 495 563 496 551 q 500 583 494 575 l 566 571 l 599 578 l 690 587 l 738 604 m 703 -48 l 705 -51 l 705 -54 l 711 -59 l 714 -60 l 715 -64 l 716 -64 l 720 -66 l 722 -67 l 728 -67 l 731 -71 l 734 -72 l 734 -75 l 736 -77 l 741 -79 l 744 -79 l 746 -79 l 749 -79 l 753 -77 l 753 -73 l 755 -71 l 751 -66 l 751 -62 l 755 -58 l 755 -46 l 753 -40 l 753 -38 l 751 -33 l 751 -26 l 753 -20 l 753 -17 l 742 -17 l 739 -18 l 736 -19 l 734 -21 l 731 -24 l 728 -24 l 722 -29 l 715 -29 l 709 -31 l 703 -31 l 700 -35 l 700 -37 l 703 -38 l 703 -40 l 701 -41 l 700 -45 l 700 -46 l 703 -48 m 744 788 l 754 675 l 766 670 q 746 633 741 641 l 755 611 q 828 647 842 629 l 811 673 l 768 675 q 793 697 777 684 q 809 716 810 711 q 794 735 808 722 q 782 759 779 749 q 794 772 785 770 l 833 724 q 844 734 842 726 l 868 842 l 744 788 m 884 745 l 998 813 q 1038 840 1033 834 l 1048 855 l 1078 869 l 1095 895 q 1084 902 1088 901 l 1050 891 l 1006 886 l 904 847 l 884 745 m 879 48 q 879 62 878 54 q 899 73 880 69 q 930 81 918 77 q 947 85 943 85 q 988 72 952 85 q 1027 54 1023 59 l 1039 26 l 1099 -20 l 1107 -43 l 1119 -58 l 1127 -92 l 1140 -106 q 1142 -119 1142 -111 q 1139 -142 1141 -126 q 1123 -172 1137 -157 q 1075 -162 1108 -187 q 1049 -146 1057 -149 q 1038 -141 1042 -143 q 1034 -133 1035 -139 q 1048 -110 1033 -127 q 1069 -98 1064 -93 l 1055 -75 l 1059 -55 l 980 33 l 879 48 z "},"":{"ha":1389,"x_min":241,"x_max":1206,"o":"m 473 21 l 594 214 l 630 286 l 669 375 l 699 494 q 640 469 684 490 q 594 450 595 448 l 552 500 l 705 564 q 719 573 716 568 q 727 596 722 578 l 736 620 l 740 651 q 745 690 745 689 l 726 745 q 726 756 725 752 l 727 777 q 744 768 737 770 l 787 758 l 791 740 l 812 712 l 817 682 l 823 652 l 809 591 q 859 618 812 589 l 939 669 l 935 657 q 952 663 945 662 q 979 643 960 663 q 995 621 991 629 q 998 600 998 613 q 991 569 998 586 l 968 526 q 950 413 958 504 l 941 305 l 972 288 l 1010 308 l 1108 296 l 1169 290 q 1182 276 1178 284 q 1187 247 1187 268 q 1197 193 1187 225 q 1204 155 1206 160 q 1167 134 1202 150 l 1041 75 l 959 50 l 903 21 l 889 29 q 916 57 905 42 q 931 74 927 72 l 966 85 l 1028 124 l 1058 165 q 1069 175 1063 172 l 1098 186 q 1106 200 1103 189 q 1087 211 1109 210 q 1046 193 1065 212 l 1023 209 q 1006 210 1019 210 l 953 220 q 918 224 927 221 q 899 266 909 227 q 888 319 889 304 q 888 336 887 334 l 909 519 l 922 589 l 861 566 l 791 535 q 768 504 789 534 l 770 475 l 764 458 l 736 371 l 680 260 l 568 96 l 500 17 l 490 12 l 473 21 m 280 509 q 297 514 294 512 q 310 549 300 517 l 336 590 l 384 669 l 422 769 l 466 783 q 484 720 483 735 q 483 690 484 705 q 462 644 482 675 l 356 484 l 343 460 l 254 370 l 248 362 q 241 369 242 360 q 241 381 241 378 l 275 473 l 286 498 l 280 509 l 280 509 m 314 174 q 334 213 323 193 q 349 241 345 233 q 355 279 352 250 l 366 433 q 376 422 374 426 l 379 403 l 404 380 q 412 350 408 374 l 427 284 l 415 199 l 412 141 q 397 102 408 127 q 377 77 387 77 q 350 96 374 77 l 343 92 l 347 122 q 330 134 330 131 l 314 174 l 314 174 z "},"":{"ha":1389,"x_min":138,"x_max":1278,"o":"m 153 209 q 190 160 178 169 l 206 146 l 339 357 l 454 572 q 514 693 511 679 q 522 713 517 707 l 528 718 l 538 736 q 535 742 536 740 q 557 770 535 744 q 569 793 562 775 q 587 831 575 810 q 601 859 600 852 l 600 899 q 625 916 607 916 q 640 910 633 916 l 652 895 l 671 875 q 674 862 674 869 q 670 844 675 854 l 653 812 l 641 781 l 618 749 l 438 414 l 373 298 l 256 109 q 202 50 215 45 q 187 62 190 56 l 140 179 q 138 191 138 182 q 143 203 138 200 l 153 209 l 153 209 m 624 498 l 627 491 q 640 499 635 498 q 674 483 644 499 q 705 457 705 467 l 705 454 l 705 447 l 692 437 l 627 382 q 600 356 602 361 l 593 330 l 579 307 l 587 291 l 702 313 q 752 315 714 315 q 801 303 790 316 q 811 279 811 290 q 800 268 812 268 l 656 264 l 558 239 q 552 253 553 248 q 549 281 551 258 q 550 313 548 304 q 558 331 551 321 l 581 353 l 617 395 q 652 432 652 426 l 621 491 l 624 498 l 624 498 m 581 -79 q 586 -73 585 -75 l 559 -22 l 578 -2 l 621 94 l 631 178 q 643 211 635 214 q 652 197 652 208 l 656 100 l 657 36 l 621 -66 l 581 -79 m 666 786 l 719 788 l 823 742 l 911 678 l 949 645 l 1124 532 q 1204 490 1183 494 l 1227 486 q 1274 439 1278 455 q 1264 419 1270 423 q 1242 416 1258 416 l 1201 413 q 1177 415 1183 412 l 1069 457 l 960 543 l 875 625 l 861 652 l 822 670 l 812 693 l 666 786 z "},"":{"ha":1389,"x_min":202,"x_max":1129,"o":"m 751 669 q 656 626 692 648 q 608 602 620 604 q 546 622 591 600 q 506 657 502 644 q 516 677 509 671 l 582 692 l 656 726 l 718 757 l 800 818 l 888 870 q 941 888 913 885 q 973 887 968 892 l 996 869 q 1014 848 1002 861 q 1023 832 1026 835 l 1017 825 l 979 726 l 958 663 l 926 612 l 928 571 l 919 549 q 935 534 932 541 l 940 506 l 956 496 l 955 484 q 920 500 934 494 q 903 509 906 505 l 886 548 q 871 580 871 577 l 880 603 l 874 728 l 805 682 l 823 654 q 788 577 790 607 q 785 545 787 548 l 768 517 l 764 498 l 727 410 l 681 307 l 642 230 q 593 145 613 177 q 568 100 573 114 l 516 -43 l 510 -51 q 494 -43 498 -47 l 477 -20 l 457 0 q 466 22 455 6 q 493 67 491 58 l 497 100 l 520 134 l 550 203 q 575 248 568 233 l 603 317 l 623 361 l 673 486 l 686 501 l 722 574 q 743 628 741 612 l 751 669 l 751 669 m 811 -24 q 821 -3 816 -9 l 854 23 l 919 85 l 937 106 l 996 210 l 1028 345 l 1024 367 l 1024 400 q 1015 413 1023 403 l 978 470 q 963 497 961 490 q 968 506 965 505 q 989 500 972 507 l 1033 499 q 1049 490 1034 498 l 1085 473 q 1097 456 1095 465 q 1100 447 1099 447 l 1109 437 q 1116 410 1109 437 l 1129 371 l 1121 335 l 1127 315 l 1099 196 q 1082 165 1098 191 l 1053 104 l 1010 63 q 992 50 998 51 l 907 21 l 841 -18 l 811 -24 l 811 -24 m 241 500 q 258 506 255 503 q 271 540 260 508 l 298 581 l 345 659 l 383 760 l 427 773 q 449 708 448 724 q 449 678 450 692 q 427 631 448 664 l 321 471 l 309 448 l 220 357 q 208 352 214 351 q 202 361 203 353 q 203 372 202 370 l 237 465 l 247 488 l 241 500 l 241 500 m 270 143 q 286 172 279 162 l 304 199 q 316 269 312 215 l 328 423 q 337 413 335 416 l 340 393 l 365 371 q 373 341 370 363 l 385 243 l 374 168 l 376 94 l 357 63 q 334 36 342 36 q 328 38 331 35 l 307 55 l 301 50 l 304 80 q 288 92 288 90 l 270 143 l 270 143 z "},"":{"ha":1389,"x_min":237,"x_max":1277,"o":"m 421 810 q 441 809 439 812 l 453 795 l 466 803 q 477 778 471 784 l 494 764 l 505 734 l 488 688 q 477 677 488 686 l 465 635 l 426 586 l 416 559 l 389 520 q 380 482 389 492 l 360 462 l 372 430 l 393 320 l 389 296 l 400 266 l 422 176 l 426 119 l 439 83 q 440 59 440 76 q 416 42 441 41 q 395 47 400 42 l 385 69 l 370 77 l 340 176 l 330 209 l 350 406 q 321 401 328 407 l 296 348 l 283 346 l 250 336 l 243 353 q 237 371 237 369 l 263 455 l 298 527 l 351 617 l 398 751 l 413 770 l 421 810 l 421 810 m 572 591 q 616 527 624 546 l 610 505 q 619 499 616 500 q 644 503 623 498 q 672 515 665 507 l 680 524 l 753 542 q 777 599 770 553 l 791 698 l 798 805 l 818 801 q 832 772 826 799 q 853 733 838 746 q 870 716 868 720 l 852 676 l 847 635 l 839 591 q 848 573 841 576 l 882 590 q 909 591 886 591 l 1044 617 l 1063 603 l 1093 591 q 1098 578 1097 586 q 1096 569 1098 571 l 1015 476 l 941 359 q 926 340 933 346 l 894 321 l 880 297 q 860 279 873 287 q 836 272 847 271 q 812 288 806 275 l 815 296 l 838 300 l 899 388 l 954 509 q 961 542 960 525 q 942 559 962 558 q 921 552 935 559 q 907 545 907 545 l 876 552 l 866 541 q 848 536 863 539 q 823 522 833 534 q 808 488 812 510 l 789 401 l 744 305 l 718 298 l 721 349 l 757 468 l 749 473 q 761 487 760 481 q 752 500 761 494 l 690 465 l 639 454 l 612 441 l 631 310 q 654 219 642 231 q 681 203 667 206 l 816 168 l 923 156 l 1020 165 l 1055 170 l 1131 187 l 1173 188 q 1197 192 1181 189 q 1222 195 1213 196 q 1263 168 1277 190 l 1253 145 q 1246 150 1248 149 l 1213 131 l 1175 127 l 1131 98 l 1010 95 l 925 98 l 889 97 q 871 98 873 96 l 865 106 l 821 104 l 749 127 l 656 149 q 621 174 641 155 q 588 214 601 192 q 574 269 576 236 l 571 308 l 574 380 q 559 396 569 389 q 549 400 549 403 l 545 389 q 538 393 541 391 l 516 390 l 489 417 q 426 447 427 466 l 427 454 l 545 479 q 573 498 565 483 l 572 548 l 576 574 l 572 591 l 572 591 z "},"":{"ha":1389,"x_min":277,"x_max":1139,"o":"m 550 230 q 589 272 582 269 q 622 277 597 275 l 650 280 q 676 274 662 279 l 766 237 l 783 280 l 807 401 l 816 463 l 701 421 q 609 403 640 399 q 583 437 578 407 q 588 449 583 445 l 624 450 l 633 458 l 785 500 l 814 512 l 821 604 l 824 649 q 810 651 819 651 l 828 701 l 810 830 q 800 845 804 841 l 774 863 q 770 871 770 867 q 777 883 770 876 q 801 890 783 890 q 833 878 819 890 q 853 843 840 870 q 867 806 866 816 l 874 664 l 866 577 q 865 559 865 571 q 873 537 865 547 q 891 528 881 528 q 920 585 922 528 l 1004 559 l 1034 553 q 1044 534 1044 547 q 1036 515 1044 521 l 1008 512 l 914 495 q 868 481 873 488 l 857 446 q 848 425 848 426 l 853 404 l 850 324 l 830 221 l 824 203 l 974 124 l 987 111 l 1101 38 l 1118 14 l 1139 -3 l 1124 -82 l 1126 -96 l 1025 -1 l 942 58 l 840 118 l 811 132 l 783 85 l 677 67 q 702 97 698 85 l 707 119 l 737 165 l 689 167 l 679 176 l 651 183 l 550 230 m 498 807 q 519 803 517 806 l 530 788 l 545 795 q 555 768 548 774 l 564 760 l 572 728 l 552 679 q 539 669 551 677 l 524 624 l 480 576 l 469 547 l 436 508 q 421 461 432 480 q 410 441 410 443 l 420 406 l 435 288 l 428 229 l 437 196 l 454 100 l 454 38 l 464 0 l 465 -16 q 464 -39 467 -35 q 446 -42 460 -43 q 425 -35 429 -42 l 416 -12 l 400 -2 l 376 106 l 369 174 l 396 390 q 366 387 374 391 l 335 332 l 314 330 q 279 322 279 323 l 281 333 l 277 353 l 310 440 l 351 515 l 412 606 l 471 745 l 488 765 l 498 807 l 498 807 z "},"":{"ha":1389,"x_min":263,"x_max":1136,"o":"m 477 828 q 496 825 494 827 l 508 810 l 522 817 q 531 791 524 798 l 543 780 l 551 749 l 532 704 q 520 694 531 703 l 506 652 l 463 607 l 452 581 l 420 544 q 410 507 420 516 l 389 488 l 401 452 l 415 340 l 409 316 l 418 286 l 434 195 l 434 137 l 444 102 q 444 76 445 94 q 418 61 444 59 q 398 68 403 62 l 390 90 l 375 100 l 351 201 l 345 233 l 370 436 q 342 434 349 439 l 312 382 l 299 381 l 273 366 l 268 383 q 263 402 263 400 l 295 484 l 334 553 l 394 640 l 450 770 l 467 788 l 477 828 l 477 828 m 538 496 l 540 498 l 541 498 l 637 532 l 763 581 l 856 604 l 857 718 l 859 800 l 848 858 l 850 886 q 862 893 857 891 q 891 891 867 895 q 921 885 915 888 q 933 876 927 883 l 924 790 l 915 680 l 921 613 l 1037 637 q 1046 644 1043 637 l 1008 671 l 974 715 l 1000 718 q 997 708 1002 718 q 1032 697 993 698 q 1082 675 1058 696 q 1121 643 1106 654 q 1135 620 1136 631 q 1127 608 1134 608 l 1035 600 l 1021 591 q 1013 589 1018 589 l 1000 591 q 989 591 999 591 q 962 584 968 590 l 956 573 l 935 558 l 928 537 q 936 528 935 531 l 919 492 q 924 462 918 490 l 911 387 l 922 180 l 924 123 l 932 93 l 929 71 l 926 -30 l 798 7 l 702 52 q 680 85 695 55 q 666 117 665 115 l 671 142 q 685 133 682 137 l 690 96 q 742 72 695 79 l 848 55 l 865 60 q 865 99 876 64 q 856 167 854 134 q 856 222 859 200 q 849 247 854 245 q 825 219 848 247 q 753 214 803 191 l 726 208 q 717 226 717 212 q 718 234 716 229 l 734 276 l 722 281 q 703 298 701 292 q 711 308 705 305 q 747 311 718 311 l 789 318 q 852 281 823 319 l 858 501 l 847 531 l 848 551 l 672 486 l 581 448 q 566 450 567 448 l 545 476 l 538 496 z "},"":{"ha":1389,"x_min":259,"x_max":1118,"o":"m 443 850 q 463 848 460 851 l 475 835 l 488 843 q 499 817 492 823 l 516 804 l 526 774 l 510 728 q 498 717 509 726 l 487 674 l 448 626 l 438 599 l 410 559 q 402 522 411 532 l 382 502 l 394 470 l 415 360 l 410 335 l 422 305 l 444 216 l 448 159 l 460 123 q 462 104 462 116 q 455 86 463 92 q 429 82 448 80 q 417 87 420 83 l 407 109 l 392 117 l 361 216 l 352 248 l 372 446 q 343 441 349 446 l 317 387 l 304 385 l 271 375 l 265 393 q 259 411 259 409 l 285 494 l 320 567 l 373 657 l 420 791 l 435 810 l 443 850 l 443 850 m 608 313 l 618 460 l 618 497 q 625 503 620 500 l 675 438 q 689 427 689 429 l 689 318 q 696 283 689 282 q 718 304 703 283 q 745 327 733 324 l 766 329 l 810 364 l 857 375 l 899 416 l 941 431 l 972 465 q 986 431 996 476 q 976 411 983 418 l 904 341 l 797 229 l 684 159 l 621 254 l 608 313 m 800 727 q 812 711 806 713 l 850 718 q 860 703 850 717 l 885 660 q 907 627 911 635 l 899 608 l 885 492 l 888 476 l 825 404 q 805 417 823 401 q 786 432 787 432 q 796 458 786 433 l 802 491 l 820 517 q 819 553 821 519 l 819 584 l 797 625 l 801 677 l 794 711 l 800 727 l 800 727 m 926 177 l 1000 243 l 1027 271 q 1037 309 1031 276 l 1057 375 l 1053 416 l 1054 452 l 1027 505 q 1042 506 1036 506 q 1051 504 1047 505 l 1078 483 l 1091 481 q 1093 467 1090 471 l 1116 439 l 1118 339 q 1118 312 1118 336 q 1102 267 1117 287 l 1079 240 q 1069 225 1072 227 l 996 188 q 950 170 956 168 l 926 177 l 926 177 z "},"":{"ha":1389,"x_min":248,"x_max":1107,"o":"m 462 809 q 481 806 479 808 l 493 791 l 507 799 q 516 772 509 779 l 525 765 l 533 734 l 513 689 q 501 680 513 688 l 487 637 l 444 592 l 433 566 l 402 529 q 388 486 398 503 q 377 466 377 468 l 387 433 l 400 322 l 394 298 l 404 267 l 419 176 l 419 119 l 429 83 l 430 68 q 428 45 431 50 q 411 43 424 41 q 391 50 395 43 l 382 72 l 368 81 l 344 182 l 337 216 l 363 418 q 334 416 341 420 l 304 363 l 284 362 q 251 355 251 356 l 253 365 l 248 383 l 280 465 l 319 535 l 379 621 l 435 751 l 452 770 l 462 809 l 462 809 m 937 687 l 944 671 l 932 511 l 929 489 q 933 482 930 485 l 1036 500 q 1056 483 1042 498 q 1088 454 1069 469 q 1106 430 1106 439 q 1101 418 1107 422 l 1069 421 l 1039 412 q 1012 426 1032 412 q 975 439 992 439 q 924 395 926 435 l 921 308 l 919 211 l 906 -58 l 871 -80 l 867 414 l 770 401 l 604 345 l 519 324 l 486 382 q 487 387 487 385 q 484 401 488 389 l 581 398 q 600 403 587 398 l 692 435 l 830 471 l 863 470 q 867 555 882 469 l 861 633 q 857 662 857 656 q 937 687 861 705 m 661 685 l 671 699 l 773 751 q 839 795 828 780 q 859 807 850 810 q 901 834 884 834 q 931 827 918 835 q 949 808 944 819 l 961 782 l 861 732 l 730 687 l 661 685 z "},"":{"ha":1389,"x_min":102,"x_max":1358,"o":"m 149 264 q 173 265 166 262 q 203 294 180 268 l 267 366 l 343 465 l 356 504 l 431 581 l 445 612 q 455 612 448 613 l 468 631 l 523 721 l 536 738 l 611 854 l 625 924 l 633 964 l 624 998 q 656 970 637 982 q 676 957 675 958 l 687 915 l 703 898 l 645 803 l 416 474 l 308 332 l 214 224 q 138 148 155 156 q 112 150 121 140 q 102 169 102 160 q 105 185 102 177 q 128 214 110 199 q 146 232 146 230 l 149 264 l 149 264 m 524 196 l 542 206 l 616 172 l 717 161 q 771 119 771 153 q 745 59 772 85 l 687 2 l 633 -29 q 632 -35 631 -33 q 634 -41 632 -39 l 667 -47 l 699 -68 q 716 -81 715 -79 q 719 -88 718 -83 q 713 -98 719 -93 l 700 -105 l 629 -144 q 605 -152 611 -155 q 623 -118 600 -150 q 635 -98 634 -102 l 645 -73 q 631 -68 636 -69 l 573 -73 q 564 -47 562 -64 q 576 -24 566 -29 l 642 14 q 675 47 647 16 q 706 84 704 79 q 709 103 709 89 q 701 119 709 117 l 616 129 l 543 151 l 523 148 l 524 196 m 568 526 l 583 541 l 676 488 q 685 478 681 484 q 690 466 689 471 q 681 433 691 460 q 666 406 671 406 q 637 425 661 406 q 609 454 614 444 l 568 526 m 648 782 l 755 722 l 825 651 l 863 632 l 888 610 l 903 607 l 920 579 l 939 576 l 940 568 l 1143 484 l 1251 449 q 1310 431 1308 430 l 1350 441 l 1358 438 q 1354 429 1354 432 l 1356 397 l 1346 386 l 1337 368 l 1328 368 l 1303 352 l 1167 395 l 1133 409 l 1031 444 l 903 526 l 762 659 l 694 737 l 648 782 z "},"":{"ha":1389,"x_min":206,"x_max":1135,"o":"m 260 408 l 276 426 l 392 449 l 418 429 l 498 493 q 494 501 494 496 q 507 503 494 506 l 511 475 l 518 460 l 505 429 l 505 386 l 493 372 l 473 343 q 449 343 460 335 l 391 383 q 349 390 375 393 q 315 379 323 386 q 307 351 308 372 q 307 346 307 348 l 309 327 q 300 308 307 311 l 278 310 l 253 307 q 238 327 248 308 l 211 370 q 206 386 206 379 q 214 400 206 395 l 239 401 l 260 408 l 260 408 m 882 737 q 948 720 932 745 q 965 679 965 696 q 965 654 966 661 l 958 571 l 960 501 l 948 479 l 952 457 l 947 416 l 951 397 l 1044 393 q 1074 381 1046 393 q 1105 368 1102 370 q 1121 341 1107 366 q 1135 313 1135 315 q 1135 300 1135 310 q 1125 288 1134 291 l 1004 237 q 948 201 977 225 q 907 181 919 178 q 892 192 895 184 q 911 225 890 199 l 975 300 l 900 367 q 878 399 888 376 q 867 448 867 422 q 869 486 867 475 l 889 664 l 882 737 z "},"":{"ha":1389,"x_min":317,"x_max":1152,"o":"m 600 136 q 596 149 593 146 l 605 157 q 777 188 685 165 q 1093 264 1078 267 l 1129 235 q 1150 215 1152 219 q 1136 201 1149 212 q 1086 192 1124 190 l 1036 194 q 920 180 979 196 l 830 153 l 678 121 q 646 123 650 121 l 600 136 l 600 136 m 686 424 l 692 436 l 707 431 q 755 441 720 426 q 816 465 791 457 l 873 481 q 924 498 892 486 q 974 509 956 511 q 1035 483 999 506 q 1065 446 1072 460 q 1057 435 1063 441 q 1018 415 1050 430 q 977 401 986 401 q 951 414 959 399 l 968 436 l 951 439 q 886 429 916 437 l 807 403 l 755 385 q 698 408 724 393 l 686 424 m 732 635 q 728 644 726 642 l 732 654 q 748 654 742 654 q 762 656 755 654 l 827 677 l 865 687 l 910 711 q 934 718 923 718 q 950 715 941 718 l 981 700 q 1014 680 1011 686 q 1017 670 1017 675 q 1013 661 1017 666 q 989 646 1006 651 l 913 633 q 861 618 885 628 l 827 604 q 808 599 814 598 l 794 603 l 762 613 l 732 635 m 414 635 l 399 631 q 407 654 401 653 l 426 648 q 435 670 429 648 q 467 716 441 691 q 492 745 492 742 q 481 758 492 746 l 536 817 l 551 863 q 562 871 556 869 l 591 831 l 600 825 l 600 810 l 586 789 l 477 637 l 412 537 l 378 494 q 340 436 346 435 q 326 457 334 438 q 317 485 317 477 q 321 502 317 493 l 347 534 l 356 556 l 374 573 l 384 592 l 400 602 l 414 635 l 414 635 m 426 61 l 448 244 l 461 376 l 479 330 l 494 206 l 478 35 q 452 14 475 2 l 426 61 z "},"":{"ha":1389,"x_min":216,"x_max":1172,"o":"m 216 446 q 232 484 224 475 q 241 496 240 493 l 238 515 l 258 536 q 269 571 260 538 l 290 610 l 309 652 l 317 665 l 334 699 l 352 724 l 373 770 q 382 788 380 784 l 387 810 l 395 821 l 401 845 q 413 854 405 852 q 449 835 420 857 q 477 806 477 813 q 473 794 476 801 l 415 707 l 381 635 l 334 567 q 320 541 321 542 l 305 522 l 294 505 l 277 491 l 275 483 l 263 479 l 252 465 l 243 461 q 217 447 218 446 q 216 446 216 447 m 385 487 q 401 434 400 452 l 401 406 l 408 348 q 402 339 402 340 q 410 321 401 337 l 415 307 l 430 288 l 461 338 q 468 329 467 332 q 470 318 470 326 q 469 304 471 311 l 458 273 l 464 246 q 457 217 464 244 q 454 193 456 214 q 448 168 452 173 l 437 160 q 428 138 428 151 q 428 135 427 136 q 428 129 428 134 l 428 119 l 427 115 l 420 110 q 428 89 427 94 q 427 35 429 83 l 426 -9 q 409 -56 420 -56 q 375 -22 398 -57 l 351 11 q 346 20 347 16 q 345 31 345 24 q 347 48 345 40 l 359 89 l 355 133 l 359 143 l 358 169 l 362 190 l 353 193 l 358 196 l 342 383 l 345 437 q 340 467 340 465 q 349 482 342 479 l 377 481 l 385 487 l 385 487 m 537 705 q 547 730 539 713 q 555 749 555 746 l 551 768 q 551 777 550 770 q 560 785 552 785 q 574 781 568 786 q 582 766 585 770 l 574 751 q 614 746 606 751 q 624 741 623 741 l 646 750 l 665 743 q 677 746 667 743 l 690 749 q 707 764 700 753 l 721 790 l 739 806 l 749 821 l 763 831 q 796 884 764 831 l 829 928 l 842 958 q 848 967 847 964 l 842 995 q 861 1013 842 1000 q 886 1026 880 1025 q 917 1018 892 1027 q 946 1004 942 1008 q 950 995 949 1000 l 949 988 l 950 972 l 932 972 q 925 966 927 971 l 919 946 l 901 926 l 886 900 l 867 883 l 834 840 l 800 804 l 782 785 q 824 793 811 786 l 844 806 q 879 815 857 813 q 911 809 901 817 q 922 794 922 802 q 913 780 921 786 l 892 770 l 873 747 l 761 629 q 758 616 757 625 q 774 618 758 608 q 833 640 805 639 q 875 619 863 640 l 804 536 l 793 518 l 771 492 l 764 473 q 795 483 785 477 l 840 507 q 865 506 849 509 l 892 500 l 919 498 l 935 496 q 913 475 922 479 l 890 471 q 869 457 874 468 q 863 440 863 446 q 869 416 863 434 l 884 363 l 903 302 l 909 265 q 922 230 913 247 q 936 203 932 213 q 943 191 939 193 q 947 188 946 188 l 946 168 q 958 158 947 159 q 979 184 972 156 q 1010 222 1002 210 q 1022 248 1019 235 l 1026 263 l 1044 304 l 1055 348 q 1066 360 1061 360 q 1088 350 1072 361 l 1105 340 q 1119 321 1109 336 q 1129 301 1128 307 q 1113 277 1130 296 q 1084 231 1096 258 q 1066 195 1073 204 q 1058 184 1059 186 l 1075 147 q 1079 126 1076 143 q 1095 78 1081 109 q 1113 32 1108 46 l 1124 -19 l 1149 -84 q 1160 -135 1149 -86 q 1171 -198 1172 -184 q 1165 -215 1169 -212 q 1132 -197 1161 -217 l 1093 -175 l 1082 -153 l 1072 -149 q 1059 -136 1064 -146 l 1044 -110 l 1012 -71 l 1012 -56 l 979 -13 l 964 25 l 949 54 q 891 3 912 17 l 847 -22 q 814 -40 821 -40 q 806 -29 808 -41 q 817 -6 804 -17 q 833 5 832 5 l 854 33 q 870 38 870 37 q 871 45 871 39 q 896 75 871 52 q 920 111 920 98 q 917 133 920 123 l 892 176 q 891 183 891 180 q 891 188 890 187 l 897 201 q 879 229 883 218 l 865 269 q 846 328 845 319 l 847 335 q 847 347 847 338 q 844 358 846 355 l 837 363 q 831 398 832 367 q 812 432 829 429 q 795 425 809 432 l 770 414 q 749 391 761 409 q 734 367 737 373 l 718 308 q 716 294 715 298 q 726 279 720 268 l 741 292 l 760 288 q 729 236 747 260 q 710 210 711 213 q 705 189 709 208 l 694 142 l 701 64 q 695 22 701 58 l 690 -11 q 659 -41 685 -40 q 639 -37 650 -41 l 606 -20 q 569 0 576 -7 q 564 41 562 7 q 574 104 564 75 q 616 166 584 133 q 655 213 648 200 q 665 279 663 226 q 675 346 666 332 q 684 359 684 359 l 679 367 l 675 363 q 648 345 657 349 l 615 330 q 568 313 578 311 q 553 320 560 314 q 547 334 546 326 q 557 349 547 342 l 569 355 l 585 374 q 612 390 590 380 q 645 414 633 399 q 661 430 656 429 q 666 431 665 431 q 666 439 667 432 q 704 483 666 446 l 728 522 l 753 558 q 711 555 725 558 l 623 526 l 607 534 q 611 564 606 553 q 627 577 616 574 l 650 581 q 656 588 650 581 q 674 604 662 594 q 708 638 687 613 q 737 677 729 663 q 746 692 745 691 l 760 701 q 765 714 766 709 q 762 722 765 719 q 690 685 760 724 l 612 669 q 600 664 602 664 q 586 666 599 663 q 573 671 574 669 l 566 682 l 537 705 l 537 705 m 988 82 q 1001 64 1003 68 l 998 56 q 1019 20 1008 31 q 1031 7 1029 8 l 1036 -4 q 1053 -30 1036 -5 l 1075 -65 q 1097 -67 1094 -87 q 1095 -27 1101 -48 q 1089 4 1093 -24 l 1082 43 l 1076 78 l 1066 117 q 1057 150 1061 143 q 1046 159 1053 157 q 1008 119 1033 163 l 988 82 l 988 82 m 654 85 q 649 107 653 106 q 627 92 644 108 l 625 90 l 617 61 l 608 39 q 613 20 607 33 q 629 3 619 7 q 646 5 638 -2 q 647 20 647 6 q 651 49 648 33 q 654 85 655 65 m 630 937 q 635 945 629 944 q 660 928 638 945 l 709 899 q 722 862 722 883 q 705 813 722 840 q 650 861 687 787 q 642 882 643 874 l 640 903 l 631 930 q 630 937 630 935 z "},"":{"ha":1389,"x_min":300,"x_max":1120,"o":"m 322 486 q 338 492 336 490 q 347 528 340 495 l 369 572 l 406 656 l 431 761 l 474 780 q 505 699 504 724 q 490 639 507 673 l 406 467 l 395 442 l 318 342 q 307 335 313 335 q 301 343 302 336 q 300 354 300 351 l 322 450 l 329 475 l 322 486 l 322 486 m 347 172 q 368 208 356 190 q 383 233 379 225 q 389 265 387 240 l 401 419 q 410 409 408 412 l 414 389 l 437 367 q 446 336 441 361 l 460 271 l 451 196 l 453 123 l 433 92 q 411 64 417 64 q 384 83 408 63 l 378 79 l 381 109 q 365 120 365 118 l 347 172 l 347 172 m 583 608 l 624 547 l 635 532 q 633 507 635 529 l 643 454 q 643 439 643 450 q 635 420 644 428 q 627 412 627 413 l 637 399 l 635 370 q 642 368 637 368 q 652 372 646 368 l 691 415 q 740 470 738 463 q 745 479 742 477 q 758 481 747 481 l 762 509 l 795 517 l 667 268 l 621 199 q 579 242 592 222 q 565 282 566 262 q 568 309 565 302 l 591 328 q 603 397 604 340 l 602 482 q 600 512 598 505 l 604 535 l 585 569 q 581 586 580 578 l 583 608 l 583 608 m 589 719 l 621 717 l 749 736 q 774 719 754 736 q 793 699 793 702 q 782 683 792 696 q 721 668 771 671 q 627 682 642 663 l 589 719 l 589 719 m 844 69 l 844 83 q 857 89 852 87 l 906 83 l 913 87 q 928 96 928 95 l 928 109 l 919 388 l 926 470 q 930 493 927 490 q 939 497 934 496 q 951 492 944 497 l 987 458 q 1025 498 993 459 q 1055 563 1057 537 q 1034 604 1053 587 q 1004 623 1015 620 l 926 628 q 899 682 922 631 q 967 699 876 733 q 1089 615 1059 665 q 1120 542 1120 566 q 1106 503 1118 522 q 1079 475 1095 484 l 1051 460 l 971 416 l 972 289 l 981 153 l 974 46 l 964 -33 l 940 -1 l 844 69 z "},"":{"ha":1389,"x_min":248,"x_max":1108,"o":"m 462 809 q 481 806 479 808 l 493 791 l 507 799 q 516 772 509 779 l 525 765 l 533 734 l 513 689 q 501 680 513 688 l 487 637 l 444 592 l 433 566 l 402 529 q 388 486 398 503 q 377 466 377 468 l 387 433 l 400 322 l 394 298 l 404 267 l 419 176 l 419 119 l 429 83 l 430 68 q 428 45 431 50 q 411 43 424 41 q 391 50 395 43 l 382 72 l 368 81 l 344 182 l 337 216 l 363 418 q 334 416 341 420 l 304 363 l 284 362 q 251 355 251 356 l 253 365 l 248 383 l 280 465 l 319 535 l 379 621 l 435 751 l 452 770 l 462 809 l 462 809 m 551 393 l 646 490 l 771 589 l 783 789 q 785 816 785 814 l 757 866 q 800 891 761 874 l 822 870 q 843 858 838 864 l 852 840 l 870 827 l 872 804 l 885 777 l 873 676 l 876 654 l 968 686 q 1031 702 1019 704 q 1060 686 1043 701 q 1081 669 1076 671 l 1097 662 q 1104 610 1108 654 q 1099 584 1102 590 l 1067 541 q 1052 511 1053 512 l 1035 500 l 1029 489 l 1014 489 l 1010 480 l 937 417 q 916 411 918 413 l 895 383 l 903 381 q 918 391 912 390 l 930 390 q 934 390 932 389 q 959 401 951 391 l 972 429 q 1009 427 972 429 l 1048 425 l 1071 408 l 1083 406 q 1092 392 1090 401 q 1086 364 1093 383 q 1073 342 1078 345 l 1044 344 l 964 346 l 918 330 l 920 321 q 843 291 847 326 l 831 198 l 835 106 l 823 14 l 824 -43 l 812 -61 l 808 -94 l 787 -92 l 765 38 l 766 176 q 763 230 766 228 l 756 234 l 765 239 q 760 259 763 256 l 703 247 q 699 260 698 252 l 701 268 l 684 287 q 681 295 682 290 q 688 309 680 301 q 720 316 690 310 q 757 332 750 322 q 765 349 764 341 l 775 549 l 709 514 l 696 511 q 682 500 684 505 l 677 483 l 589 404 q 558 360 560 377 q 574 316 555 342 l 628 239 q 631 226 631 234 q 620 214 631 218 q 578 242 608 209 l 516 312 q 515 317 515 313 q 512 331 515 322 q 512 378 509 340 q 530 418 516 444 l 551 393 l 551 393 m 848 442 l 854 425 l 940 494 q 981 563 973 522 l 994 619 l 861 584 l 848 442 z "},"":{"ha":1389,"x_min":239,"x_max":1187,"o":"m 278 500 q 294 506 292 503 q 308 540 297 508 l 334 581 l 382 659 l 420 760 l 464 773 q 485 708 484 724 q 485 678 486 692 q 463 631 484 664 l 358 471 l 345 448 l 256 357 q 245 352 250 351 q 239 361 239 353 q 239 372 239 370 l 273 465 l 283 488 l 278 500 l 278 500 m 310 176 q 331 212 319 195 q 347 237 343 229 q 353 269 351 245 l 364 423 q 374 413 372 416 l 377 393 l 401 371 q 410 341 406 365 l 425 275 l 414 201 l 417 127 l 397 96 q 375 68 382 68 q 369 71 372 68 l 348 87 l 341 83 l 345 113 q 328 124 328 122 l 310 176 l 310 176 m 613 553 l 618 573 l 742 646 l 821 718 l 856 772 l 873 790 q 877 803 876 796 q 873 818 877 809 l 852 850 q 850 857 849 854 q 852 863 850 859 q 865 869 854 868 q 876 867 869 869 l 899 855 l 920 848 l 947 812 l 966 799 q 970 780 968 795 q 970 759 972 764 l 930 739 l 836 665 l 736 595 l 779 557 q 795 543 791 549 l 805 507 q 810 490 811 492 l 784 383 l 692 232 q 659 193 670 196 l 625 191 q 594 189 595 188 l 577 219 q 572 229 571 226 l 578 238 l 711 361 q 730 383 724 373 l 747 414 l 765 435 q 771 465 767 439 l 778 494 q 779 512 779 500 q 768 534 779 524 l 724 551 q 713 555 713 554 l 657 532 q 648 530 652 530 q 613 553 633 530 m 739 -4 q 751 -9 747 -8 l 796 1 l 817 3 q 845 78 841 12 q 825 188 850 144 q 804 228 805 222 q 804 239 803 235 l 804 256 q 826 248 822 252 q 844 227 831 245 l 859 207 q 872 168 864 198 l 894 96 q 901 33 900 71 q 874 -26 901 -5 q 858 -35 866 -33 l 842 -36 l 820 -41 l 770 -24 q 739 -12 738 -18 l 739 -4 m 1025 458 l 1045 454 q 1108 422 1069 448 q 1156 383 1147 395 q 1176 339 1165 371 q 1187 293 1186 308 q 1181 269 1187 277 q 1107 241 1174 260 l 1034 219 l 1093 299 q 1075 333 1097 305 q 1034 398 1053 361 q 1021 447 1015 435 l 1025 458 l 1025 458 z "},"":{"ha":1389,"x_min":296,"x_max":1125,"o":"m 446 742 l 444 707 l 385 583 l 355 527 q 321 486 334 484 q 303 497 311 488 q 296 514 296 507 q 298 526 296 522 l 397 661 l 446 742 m 338 366 q 354 380 350 382 l 366 373 l 367 232 l 374 72 q 329 115 338 99 q 318 140 319 132 q 318 151 317 148 l 335 296 l 338 366 m 876 538 l 913 555 l 989 625 l 1015 673 q 1025 663 1024 663 l 1035 614 q 1045 598 1045 604 q 1036 581 1046 593 q 1019 554 1026 569 q 1004 537 1011 539 l 874 486 l 847 473 l 791 372 l 755 312 l 755 300 l 832 314 l 958 294 l 1061 252 l 1058 244 q 1064 248 1062 247 l 1082 227 l 1109 208 l 1122 177 l 1125 180 q 1118 153 1124 159 l 1086 144 l 1052 126 l 1013 127 q 972 109 980 102 l 946 121 l 1036 178 l 1017 203 l 926 250 l 842 279 l 729 277 l 674 217 q 635 189 644 184 l 620 196 q 589 224 593 212 l 639 264 l 711 334 l 802 463 l 713 432 q 661 422 685 422 q 626 437 637 422 l 599 479 q 586 505 583 498 l 592 526 l 643 619 l 682 656 q 776 700 700 673 q 868 711 852 726 q 884 689 884 696 l 876 584 l 876 538 m 614 502 q 667 465 652 465 q 729 484 682 465 l 815 517 l 823 530 l 838 615 q 839 647 839 623 q 831 677 840 671 q 801 684 822 684 q 751 673 767 682 l 683 629 l 655 598 l 614 502 z "},"":{"ha":1389,"x_min":315,"x_max":1168,"o":"m 315 77 q 363 124 346 110 q 386 145 381 139 l 408 199 q 418 217 417 214 l 413 242 l 422 280 q 428 291 423 290 q 438 288 433 292 l 456 258 l 482 241 l 486 225 l 496 212 l 495 201 l 507 172 l 485 123 l 497 100 l 476 100 l 476 82 q 469 75 476 79 l 455 30 l 441 9 l 429 -15 q 408 -36 424 -24 q 385 -45 392 -47 q 365 -32 382 -45 q 338 4 347 -20 l 324 51 q 315 70 315 66 l 315 77 m 365 346 q 385 362 377 358 l 442 373 l 500 411 l 533 428 l 548 443 q 578 475 580 470 l 576 480 q 594 488 592 485 l 605 504 l 511 487 l 437 473 q 417 484 425 475 q 410 499 409 492 l 443 513 l 455 522 l 473 522 l 499 534 l 441 605 l 393 659 l 396 675 l 429 667 l 559 540 l 555 646 q 541 728 552 718 q 517 741 529 739 l 481 742 q 461 768 461 750 q 467 793 462 787 l 513 853 q 539 923 536 884 q 547 966 542 961 q 561 972 551 972 q 597 949 570 972 q 628 918 624 926 l 661 836 q 642 818 645 819 l 599 801 q 589 783 593 787 l 560 768 q 557 762 556 765 q 561 753 557 760 q 579 753 566 747 l 701 808 l 709 819 l 812 835 q 839 842 831 837 l 850 850 q 874 851 864 859 l 947 788 l 869 720 l 819 632 q 819 619 819 624 q 817 610 819 614 l 806 594 l 804 577 q 787 577 803 576 l 730 549 l 690 547 q 684 543 685 545 l 699 511 l 699 484 l 724 460 q 738 393 742 443 q 732 366 736 370 l 723 351 q 732 316 726 344 q 738 288 739 288 l 823 315 l 876 347 l 949 379 l 1001 422 q 1037 452 1037 451 l 1023 482 l 1032 506 l 1029 515 q 1084 506 1078 516 l 1105 481 q 1131 420 1107 463 l 1120 393 l 1120 361 l 1110 354 l 1098 339 q 1057 322 1088 328 q 1004 311 1025 317 l 928 288 l 781 260 l 913 201 l 1031 129 l 1128 55 q 1153 23 1146 41 l 1161 -14 q 1168 -41 1168 -38 q 1137 -55 1160 -65 l 1081 -42 q 1075 -29 1078 -33 l 1053 -14 l 1047 9 q 1009 47 1044 16 l 981 74 l 869 157 l 761 221 l 709 252 l 705 240 l 713 88 l 723 74 l 721 39 l 730 23 l 720 22 q 725 3 725 8 q 719 -27 726 -1 q 709 -50 713 -54 l 701 -45 q 685 -71 690 -71 l 657 -77 q 628 -34 650 -60 q 614 -4 606 -7 q 623 0 623 0 q 623 10 623 1 l 628 31 l 633 136 l 637 260 l 671 353 q 677 384 677 370 q 676 401 677 398 l 652 458 l 611 421 l 517 359 l 420 318 q 365 346 394 307 m 675 760 l 615 726 l 618 610 l 610 602 l 610 589 l 608 575 q 646 577 611 552 l 653 636 l 677 723 l 675 760 m 817 774 l 729 781 l 734 751 l 696 637 q 689 623 695 635 q 687 594 683 610 q 720 598 691 578 q 754 628 749 618 l 804 733 l 817 774 z "},"":{"ha":1389,"x_min":125,"x_max":1150,"o":"m 125 431 l 206 526 l 304 684 q 369 822 355 767 q 389 885 382 878 l 401 900 q 409 890 406 892 l 448 901 q 462 880 450 899 q 473 838 474 860 q 465 804 473 815 l 349 637 l 278 541 l 254 527 l 243 494 l 153 437 l 125 431 m 364 512 q 418 487 410 501 q 426 465 425 472 q 427 457 427 458 l 407 280 l 403 157 q 412 134 402 145 l 445 101 l 429 52 q 417 14 420 17 q 410 12 414 12 q 387 32 404 11 l 357 63 q 348 118 348 77 q 349 165 349 159 l 355 268 l 354 412 l 364 512 m 481 751 l 593 800 l 726 924 l 800 981 q 820 998 814 996 l 836 1001 l 853 1010 l 874 1017 l 909 1042 l 929 1048 l 960 1067 q 975 1064 967 1069 l 988 1050 l 1002 1040 q 1004 1027 1004 1036 q 987 1009 1004 1018 l 901 965 l 844 884 l 803 802 l 768 662 l 768 557 l 762 492 l 770 463 l 828 555 l 851 623 q 871 659 871 657 l 854 695 q 850 711 849 705 l 852 726 q 891 706 880 718 q 903 678 903 695 q 898 648 903 661 l 852 542 l 795 456 l 880 512 l 984 562 q 1022 566 988 564 q 1059 546 1056 568 q 1049 509 1062 525 l 996 441 l 918 365 q 929 331 932 334 l 890 264 q 907 253 901 256 l 967 237 q 981 214 983 224 l 978 197 q 986 191 984 193 q 986 172 988 188 l 985 144 q 965 100 983 123 q 945 75 946 77 l 996 18 l 1043 -54 l 1050 -74 l 1107 -163 l 1142 -206 q 1150 -236 1150 -221 q 1142 -258 1149 -251 q 1126 -265 1135 -265 q 1112 -256 1117 -264 l 1041 -152 l 975 -48 l 913 38 l 838 -13 q 757 -39 802 -37 q 702 -28 712 -40 l 684 -12 q 742 -8 718 -9 q 776 -1 766 -8 l 792 12 l 814 14 l 840 33 l 881 66 l 776 119 q 774 132 764 124 l 786 126 l 808 133 l 827 132 l 844 140 l 848 130 l 882 119 l 908 100 q 933 114 913 100 q 953 159 953 129 q 942 203 954 189 q 873 224 934 212 l 833 230 l 887 316 l 892 340 q 869 321 877 325 l 841 312 q 819 303 827 304 q 810 317 811 303 q 814 339 809 332 q 830 351 819 345 q 857 364 842 358 q 876 372 871 370 q 905 395 882 375 q 934 421 928 414 l 990 484 q 1020 517 1023 507 q 1011 527 1017 526 q 994 526 1006 528 l 910 502 l 789 416 l 704 340 l 667 281 q 651 269 658 269 q 637 281 645 269 q 630 307 629 293 q 632 321 630 320 l 723 388 l 736 507 l 735 570 l 751 672 l 790 806 l 874 977 l 863 973 l 781 905 l 754 881 l 656 794 l 568 746 q 526 731 532 726 l 481 751 l 481 751 z "},"":{"ha":1389,"x_min":237,"x_max":1164,"o":"m 451 798 q 471 795 469 798 l 482 781 l 496 788 q 505 762 498 768 l 514 753 l 522 724 l 503 678 q 490 669 502 677 l 476 627 l 433 581 l 422 555 l 391 518 q 377 475 387 492 q 366 455 366 457 l 376 422 l 389 311 l 383 287 l 393 256 l 408 165 l 408 108 l 418 72 l 419 57 q 417 35 420 39 q 400 32 413 31 q 380 39 385 33 l 371 60 l 357 70 l 333 172 l 326 204 l 353 407 q 323 405 330 410 l 294 353 l 273 351 q 240 344 240 345 l 242 354 l 237 372 l 269 454 l 309 524 l 368 610 l 425 741 l 441 759 l 451 798 l 451 798 m 587 475 l 599 349 q 571 347 587 347 q 530 368 555 347 q 502 442 504 390 q 510 493 500 494 q 531 485 519 491 q 587 475 544 478 m 528 83 q 570 106 568 97 l 586 142 l 596 143 l 596 131 q 645 191 623 161 q 672 254 667 220 l 688 351 l 724 609 l 726 714 l 695 758 l 688 784 q 681 787 682 784 q 684 794 679 789 l 700 790 l 723 794 l 734 781 q 750 789 735 781 q 782 783 764 798 q 802 762 800 767 l 791 707 l 793 676 l 785 643 l 773 446 l 770 405 l 734 266 l 731 245 l 819 178 l 913 144 l 944 153 l 982 125 l 1019 124 l 1026 109 l 1093 75 l 1107 50 q 1129 45 1122 48 q 1151 27 1137 43 q 1162 1 1164 12 q 1142 -7 1160 -9 l 1037 7 l 987 37 l 953 49 l 926 72 l 899 85 l 848 119 l 811 144 l 720 220 q 680 143 710 178 q 646 77 650 109 l 611 72 l 578 43 q 562 58 563 39 q 545 58 545 57 l 528 83 l 528 83 m 859 431 l 876 458 l 901 602 l 890 647 q 897 642 895 642 l 917 662 q 966 651 920 665 l 998 647 q 1023 633 1016 644 l 1030 616 l 1067 605 l 1074 585 l 1084 558 l 1080 543 q 1066 544 1072 545 q 1052 540 1060 544 q 1027 509 1044 536 q 1005 481 1010 481 l 970 473 q 965 453 969 462 q 939 434 961 444 l 868 404 l 859 431 z "}}}
